<svg xmlns="http://www.w3.org/2000/svg" width="75" height="75" viewBox="0 0 75 75"><path d="M52.352 55.273c-.977 0-1.95-.3-2.852-.824L39.227 47.7c-.75-.524-.977-1.575-.45-2.325.524-.75 1.575-.977 2.325-.45l10.2 6.75c.675.45 1.647.376 2.323-.226.676-.602 1.727-.602 2.398.148.602.675.602 1.726-.148 2.398-.977.828-2.25 1.277-3.523 1.277zM45.676 60.375c-.977 0-1.95-.227-2.774-.824l-6.074-3.976c-.75-.523-.976-1.574-.523-2.324.523-.75 1.574-.977 2.324-.523l6.073 3.976c.9.524 2.102.3 2.625-.6.524-.826 1.574-1.052 2.324-.525.825.524 1.05 1.574.524 2.324-.977 1.575-2.7 2.473-4.5 2.473zM59.023 50.023c-1.5 0-3.226-.523-5.175-1.726l-9.602-6.375c-.75-.524-.976-1.574-.45-2.324.524-.75 1.575-.977 2.325-.45l9.525 6.375c1.425.825 3.976 2.102 5.324.227.823-1.2.675-2.852.147-3.3-.75-.602-.898-1.65-.3-2.4.6-.75 1.648-.898 2.398-.3 2.1 1.648 2.398 5.324.6 7.875-1.042 1.352-2.616 2.398-4.792 2.398z"/><path d="M60 42.75c-.3 0-.602-.074-.898-.3l-12-7.575c-.45-.3-3.977-2.398-5.55-6-1.95.602-3.9 1.2-6.075 2.023l-.227.075c-2.324.824-6.75 2.476-9.3-.45-1.352-1.574-1.876-3.074-1.575-4.648.602-2.852 3.75-4.426 6.3-5.7.524-.226.977-.448 1.352-.675l.524-.3c1.876-1.052 3.825-2.177 5.626-3.376 4.05-2.7 8.55-.148 8.773-.074 0 0 .073 0 .073.074 0 0 3.825 2.477 7.2 4.05 2.25 1.052 4.726.376 7.425-.374.602-.148 1.125-.3 1.727-.45.898-.226 1.8.302 2.023 1.274.227.9-.3 1.8-1.273 2.024-.523.148-1.05.3-1.648.45-3 .823-6.375 1.725-9.75.147-3.375-1.574-7.05-3.898-7.575-4.273-.3-.15-3-1.5-5.175-.074-1.875 1.273-3.9 2.398-5.852 3.45l-.45.3c-.448.226-.976.523-1.5.75-1.726.824-4.273 2.1-4.5 3.375-.148.6.376 1.273.825 1.8.977 1.125 3.977.075 5.55-.523l.227-.074c2.852-1.05 5.4-1.875 7.875-2.55.45-.15.9-.075 1.352.147.375.227.676.602.75 1.05.75 3.376 4.5 5.478 4.5 5.552 0 0 .074 0 .074.074l11.4 7.198L66 37.574c.898-.226 1.8.3 2.102 1.2.226.898-.3 1.8-1.2 2.1l-6.45 1.802c-.15.074-.304.074-.452.074zM26.324 45.824c-.898 0-1.273.375-1.35.45-.603.6-.603 1.574-.603 1.574v3.45c0 1.874 1.275 2.175 2.025 2.25.824 0 1.8-.376 1.8-2.25v-3.45c-.07-.746-.297-2.024-1.87-2.024zm0 11.102c-2.176 0-5.398-1.5-5.398-5.625v-3.448c0-.227 0-2.4 1.574-3.977.676-.676 1.875-1.426 3.75-1.426 1.426 0 2.7.448 3.602 1.425 1.574 1.574 1.574 3.75 1.574 4.05v3.45c0 2.176-.824 3.45-1.574 4.125-1.278 1.352-3.08 1.426-3.528 1.426z"/><path d="M19.125 43.426c-.898 0-1.273.375-1.352.45-.6.6-.6 1.573-.6 1.573v1.273c0 2.023 1.5 2.25 1.948 2.25.825 0 1.802-.375 1.802-2.25V45.45c.078-.75-.223-2.024-1.797-2.024zm.074 8.926c-.075 0-.075 0 0 0-2.177 0-5.4-1.5-5.4-5.625v-1.274c0-.226 0-2.398 1.575-3.976.676-.676 1.875-1.426 3.75-1.426 1.426 0 2.7.45 3.602 1.427 1.574 1.574 1.574 3.75 1.574 4.05V46.8c0 2.177-.823 3.45-1.573 4.126-1.352 1.347-3.153 1.426-3.528 1.426zM33.523 48.898c-.898 0-1.273.375-1.35.45-.603.6-.603 1.574-.603 1.574v2.625c0 1.875 1.274 2.176 2.024 2.25.824 0 1.8-.375 1.8-2.25V51c-.07-.75-.292-2.102-1.87-2.102zm0 10.278s-.074 0 0 0c-2.175 0-5.398-1.5-5.398-5.625V51c0-.227 0-2.398 1.574-3.977.675-.675 1.874-1.425 3.75-1.425 1.425 0 2.698.45 3.6 1.425 1.575 1.575 1.575 3.75 1.575 4.05V53.7c0 2.175-.824 3.448-1.574 4.124-1.277 1.278-3.073 1.352-3.527 1.352zM21.824 24.148c-.148 0-.375 0-.523-.074 0 0-3.448-1.125-5.25-1.726-.898-.3-1.35-1.274-1.05-2.102.3-.898 1.273-1.35 2.102-1.05 1.35.45 3.75 1.273 4.8 1.574l11.774-2.55c.898-.228 1.8.374 2.023 1.272.226.9-.376 1.8-1.274 2.024L22.2 24.14c-.075.008-.223.008-.376.008z"/><path d="M15.45 44.477c-.302 0-.602-.075-.9-.3l-6.976-4.5c-.75-.525-.976-1.575-.523-2.325.45-.75 1.575-.977 2.325-.524l6.977 4.5c.75.524.976 1.574.523 2.324-.3.524-.824.825-1.426.825z"/></svg>