<svg xmlns="http://www.w3.org/2000/svg" viewBox="0 0 75 75"><path d="M16 48.4c1.3 0 2.4 1.1 2.4 2.4 0 1.3-1.1 2.4-2.4 2.4-1.3 0-2.4-1.1-2.4-2.4 0-1.3 1.1-2.4 2.4-2.4zm14.4-21.6c1.3 0 2.4 1.1 2.4 2.4 0 .7-.3 1.3-.8 1.8-.9.8-2.3.8-3.2 0-.5-.4-.8-1.1-.8-1.8 0-1.3 1.1-2.4 2.4-2.4zm13.4 14.9l.2.2c.3.3.6.8.6 1.5 0 1.3-1.1 2.4-2.4 2.4-1.3 0-2.4-1.1-2.4-2.4v-.5-.1c0-.1.1-.2.1-.4.4-.9 1.2-1.4 2.2-1.4.7 0 1.3.3 1.7.7zM59 21.8c1.3 0 2.4 1.1 2.4 2.4 0 1.3-1.1 2.4-2.4 2.4-1.3 0-2.4-1.1-2.4-2.4s1.1-2.4 2.4-2.4zM16 55.6c2.7 0 4.8-2.2 4.8-4.8 0-1-.3-1.9-.8-2.7l8.3-14.6h.1c.3.1.5.2.8.3h.1c.4.2.7.2 1.1.2.4 0 .8-.1 1.1-.1.1 0 .2-.1.3-.1.2-.1.5-.2.7-.3.1 0 .1 0 .2-.1l5.4 7.4c-.1.2-.2.4-.4.7v.1c-.1.2-.2.5-.2.7v.2c-.1.3-.1.6-.1.9 0 2.7 2.2 4.8 4.8 4.8S47 46 47 43.4c0-.3 0-.6-.1-.8v-.2c-.1-.2-.1-.5-.2-.7 0-.1-.1-.2-.2-.4 0 0 0-.1-.1-.1L57 28.5c.6.3 1.3.5 2.1.5 2.7 0 4.8-2.2 4.8-4.8 0-2.7-2.2-4.8-4.8-4.8-2.7 0-4.8 2.2-4.8 4.9 0 1 .3 2 .9 2.8L44.8 39.4c-.7-.5-1.6-.8-2.6-.8-.8 0-1.6.2-2.3.6l-5.5-7.4c.5-.7.8-1.6.8-2.6 0-2.7-2.2-4.8-4.8-4.8s-4.8 2.2-4.8 4.8c0 1 .3 1.9.8 2.7l-8.3 14.7c-.6-.3-1.3-.6-2.1-.6-2.7 0-4.8 2.2-4.8 4.8 0 2.7 2.1 4.8 4.8 4.8z"/></svg>