<svg xmlns="http://www.w3.org/2000/svg" width="75" height="75" viewBox="0 0 75 75"><path d="M15.94 40.137c-.28 0-.557.133-.698.343-.234.332-.21.75.043 1.055l13.305 15.63c.16.187.39.296.62.304l.142-.005c.222-.035.425-.15.554-.317l29.84-38.265c.27-.344.23-.856-.082-1.145-.29-.265-.86-.265-1.156.004l-28.8 26.656c-.368.34-.896.446-1.368.27L16.21 40.18c-.073-.028-.17-.043-.27-.043zm13.29 19.996c-1.015 0-1.984-.45-2.664-1.235L13.25 43.254c-1.035-1.23-1.113-2.992-.2-4.293.634-.925 1.72-1.487 2.89-1.487.404 0 .798.066 1.177.203L28.5 41.89l28.203-26.11c.65-.592 1.492-.913 2.387-.913.894 0 1.738.324 2.38.91 1.33 1.227 1.495 3.31.378 4.743L32.016 58.777c-.57.743-1.45 1.23-2.407 1.336-.028.004-.06.004-.087.008l-.234.01c-.024.003-.044.003-.06.003z"/></svg>