<svg xmlns="http://www.w3.org/2000/svg" width="75" height="75"><path d="M37.965 24.98c-4.465 0-7.762 1.868-9.285 5.258-1.735 3.867-.797 8.832 2.34 12.356 2.414 2.715 3.12 5.312 3.5 6.703l.062.23a584.499 584.499 0 006.406-1.703c.317-.922 1.29-2.277 3.918-5.23 3.137-3.524 4.078-8.49 2.34-12.356-1.516-3.39-4.812-5.258-9.28-5.258zm-3.887 26.672h-.047c-.925-.043-1.163-.91-1.413-1.832-.36-1.324-.965-3.543-3.07-5.91-3.645-4.098-4.715-9.914-2.668-14.476 1.83-4.082 5.874-6.422 11.085-6.422s9.254 2.34 11.086 6.422c2.048 4.562.977 10.378-2.667 14.476-2.36 2.652-3.555 4.238-3.555 4.71a.986.986 0 01-.73.954c-7.598 2.06-7.852 2.078-8.02 2.078zm3.642 10.325a.987.987 0 01-.243-1.943l4.882-1.24a.986.986 0 11.484 1.914l-4.883 1.24a1.16 1.16 0 01-.24.03zm-3.814-4.539a.987.987 0 01-.246-1.942l8.7-2.258a.986.986 0 01.495 1.91l-8.7 2.258c-.085.02-.17.032-.25.032zm0 2.812a.986.986 0 01-.246-1.941l8.7-2.26a.987.987 0 01.495 1.911l-8.7 2.26c-.085.018-.17.03-.25.03zm0-5.625a.986.986 0 01-.246-1.941l8.7-2.258a.987.987 0 01.495 1.91l-8.7 2.258a1.1 1.1 0 01-.25.03zM21.36 36.844h-4.032a.987.987 0 01-.988-.99c0-.545.44-.987.988-.987h4.03a.988.988 0 110 1.978zm2.25-8.41a.977.977 0 01-.493-.133l-3.492-2.015a.986.986 0 01.988-1.707l3.492 2.016a.986.986 0 01-.496 1.841zm6.163-6.161a.987.987 0 01-.855-.492l-2.016-3.49a.989.989 0 01.36-1.35.99.99 0 011.347.36l2.015 3.493a.987.987 0 01-.852 1.481zm8.411-2.257a.99.99 0 01-.99-.99V15a.988.988 0 111.978 0v4.03a.987.987 0 01-.988.986zm8.414 2.257a.986.986 0 01-.853-1.479l2.017-3.492a.987.987 0 111.707.99l-2.017 3.49a.98.98 0 01-.855.493zm6.164 6.161a.985.985 0 01-.496-1.839l3.492-2.016a.987.987 0 01.987 1.707l-3.49 2.016a1 1 0 01-.493.134zm3.488 18.843a.988.988 0 01-.492-.132l-3.492-2.016a.988.988 0 11.988-1.708l3.492 2.016a.984.984 0 01-.496 1.839zm-36.13-.004a.984.984 0 01-.494-1.838l3.49-2.016a.99.99 0 011.35.36.989.989 0 01-.36 1.347l-3.493 2.016a.93.93 0 01-.492.133z"/></svg>