<svg xmlns="http://www.w3.org/2000/svg" viewBox="0 0 75 75"><path d="M26.7 27.5h-19c-.6 0-1.1-.5-1.1-1.1 0-.6.5-1.1 1.1-1.1h19.1c.6 0 1.1.5 1.1 1.1-.1.6-.6 1.1-1.2 1.1zm0 9.8h-13c-.6 0-1.1-.5-1.1-1.1s.5-1.1 1.1-1.1h13c.6 0 1.1.5 1.1 1.1s-.5 1.1-1.1 1.1zm0 9.8h-7c-.6 0-1.1-.5-1.1-1.1 0-.6.5-1.1 1.1-1.1h7c.6 0 1.1.5 1.1 1.1 0 .6-.5 1.1-1.1 1.1zm23.7-24.6c-8.3 0-15 6.7-15 15s6.7 15 15 15 15-6.7 15-15-6.8-15-15-15zm0 33.1c-9.9 0-18.1-8.1-18.1-18.1s8.1-18.1 18.1-18.1c9.9 0 18.1 8.1 18.1 18.1s-8.2 18.1-18.1 18.1z"/></svg>