<svg xmlns="http://www.w3.org/2000/svg" width="75" height="75"><path d="M5.96 64.492h63.08v-43.78H5.96v43.78zm65.044 3.93H3.996a1.967 1.967 0 01-1.965-1.965v-47.71c0-1.087.88-1.966 1.966-1.966h67.008c1.086 0 1.965.88 1.965 1.966v47.71a1.963 1.963 0 01-1.966 1.966z"/><path d="M5.96 16.78h63.08v-6.268H5.96v6.27zm65.044 3.93H3.996a1.963 1.963 0 01-1.965-1.964V8.543c0-1.086.88-1.965 1.966-1.965h67.008c1.086 0 1.965.88 1.965 1.965v10.203a1.963 1.963 0 01-1.966 1.965z"/><path d="M11.145 13.645c0 1.832-2.754 1.832-2.754 0 0-1.836 2.755-1.836 2.755 0m4.112 0c0 1.832-2.75 1.832-2.75 0 0-1.833 2.75-1.833 2.75 0m4.117 0c0 1.832-2.754 1.832-2.754 0 0-1.836 2.755-1.836 2.755 0m8.234 35.269c-.442 0-.88-.168-1.215-.504l-5.352-5.35a1.723 1.723 0 010-2.435l5.344-5.344c.672-.67 1.76-.67 2.433 0a1.723 1.723 0 010 2.435l-4.13 4.13 4.138 4.135a1.721 1.721 0 010 2.434c-.336.332-.777.5-1.22.5zm19.785 0a1.72 1.72 0 01-1.215-2.937l4.13-4.13-4.138-4.136a1.72 1.72 0 112.433-2.433l5.356 5.352c.325.323.505.757.505 1.214 0 .457-.18.894-.504 1.215L48.618 48.4c-.34.344-.78.512-1.222.512zm-12.36 3.973a1.722 1.722 0 01-1.669-2.149l4.37-17.13a1.724 1.724 0 012.095-1.24 1.719 1.719 0 011.242 2.093L36.7 51.59c-.2.78-.9 1.297-1.665 1.297z"/></svg>