<svg xmlns="http://www.w3.org/2000/svg" width="75" height="75"><path d="M17.223 42.348v10.507c0 .247-.196.39-.395.39a.375.375 0 01-.348-.225L8.238 35.47c-.836-1.798-1.488-3.517-1.488-5.466 0-7.777 7.637-13.38 17.06-13.38 1.405 0 2.764.138 4.073.388a27.62 27.62 0 013.44-2.188 23.885 23.885 0 00-7.514-1.2c-11.435 0-20.06 7.044-20.06 16.38 0 2.566.848 4.75 1.773 6.738l8.24 17.56a3.348 3.348 0 003.06 1.948 3.399 3.399 0 003.396-3.39v-6.735c1.12.164 2.26.246 3.417.254a22.403 22.403 0 01-2.164-3.134 20.695 20.695 0 01-4.25-.898z"/><path d="M46.203 13.418c-13.812 0-25.047 9.102-25.047 20.293 0 11.188 11.235 20.294 25.047 20.294 1.87 0 3.715-.164 5.516-.492v9.734a3.512 3.512 0 003.51 3.508 3.473 3.473 0 003.168-2.016L69.05 42.035c1.14-2.465 2.2-5.18 2.2-8.328 0-5.758-2.71-11.012-7.63-14.793-4.612-3.547-10.796-5.496-17.417-5.496zm0 3c12.176 0 22.047 7.238 22.047 17.29 0 2.515-.844 4.737-1.922 7.058L55.68 63.46a.488.488 0 01-.45.29.5.5 0 01-.51-.508V49.664a27.344 27.344 0 01-8.517 1.34c-12.176 0-22.047-7.742-22.047-17.293s9.87-17.292 22.047-17.292"/></svg>