<svg xmlns="http://www.w3.org/2000/svg" width="32.824" height="29.164"><path d="M23.703 8.887H8.64a1.125 1.125 0 010-2.25h15.063a1.126 1.126 0 010 2.25zm0 4.5H8.64a1.125 1.125 0 01.001-2.25h15.063a1.126 1.126 0 010 2.25zm-7.5 4.5H8.64a1.125 1.125 0 01.001-2.25h7.563a1.126 1.126 0 010 2.25z"/><path d="M6.168 2.25a3.919 3.919 0 00-3.914 3.914V25.41l3.137-2.992c.21-.2.49-.312.778-.312h20.496a3.916 3.916 0 003.914-3.914V6.164a3.919 3.919 0 00-3.914-3.914H6.168zM1.125 29.164A1.125 1.125 0 010 28.04V6.163A6.172 6.172 0 016.164 0H26.66a6.17 6.17 0 016.164 6.164v12.028a6.171 6.171 0 01-6.164 6.164H6.617l-4.715 4.496c-.21.207-.492.312-.777.312z"/></svg>