<svg xmlns="http://www.w3.org/2000/svg" viewBox="0 0 75 75"><path d="M56.1 42.8v17.5c0 1.3-.7 2.1-1 2.1h-8.7c-.4 0-.8-.3-.8-.8V47c0-2-1.6-3.7-3.7-3.7h-8.8c-2 0-3.7 1.6-3.7 3.7v14.6c0 .4-.3.8-.8.8h-8.7c-.6 0-1-.5-1-1V29.6l18.5-16.5 18.7 16.7v13zm10.1-7.9L38.6 10.2s-.1-.1-.2-.1c-.5-.5-1.4-.6-2 0L8.8 34.7c-.6.5-.7 1.5-.1 2.1.3.3.7.5 1.1.5.3 0 .7-.1 1-.4l5.3-4.7v29.2c0 2.2 1.8 3.9 3.9 3.9h8.7c1.9 0 3.5-1.5 3.6-3.4V47c0-.4.3-.8.8-.8h8.8c.4 0 .8.3.8.8v14.9c.2 1.9 1.7 3.4 3.6 3.4H55c2.2 0 3.9-2.2 3.9-5v-28l5.3 4.7c.3.2.6.4 1 .4s.8-.2 1.1-.5c.5-.5.5-1.5-.1-2z"/></svg>