<svg xmlns="http://www.w3.org/2000/svg" width="55.406" height="55.483"><path d="M49.182 21.807L36.96 34.034c-3.9 3.898-10.125 4.273-14.4.976l2.853-2.85a6.723 6.723 0 003.6 1.05h.525c1.95-.15 3.976-1.05 5.55-2.625L45.663 20.01c1.8-1.8 2.773-3.75 2.85-5.7.075-1.948-.75-3.75-2.323-5.397-1.273-1.274-3.227-2.024-5.25-2.024-2.176 0-4.273.898-5.852 2.476l-1.5 1.5a20.238 20.238 0 00-3.45-1.05l3.603-3.603c4.274-4.273 11.25-4.273 15.524 0 4.196 4.344 4.196 11.32-.082 15.594zm2.176-17.7a13.986 13.986 0 00-19.8 0L26.005 9.66c-.074.073-.074.073-.074.147-.3.3-.523.676-.523 1.125 0 .824.675 1.5 1.5 1.5 2.1 0 4.272.524 6.374 1.574.226.075.45.15.676.15.45 0 .898-.228 1.2-.603.073-.074.147-.074.147-.148l1.95-1.95c1.05-1.05 2.324-1.574 3.75-1.648 1.2 0 2.398.375 3.074 1.125.977.977 1.5 2.102 1.5 3.15 0 1.198-.675 2.397-1.95 3.674L32.91 28.41c-1.052 1.05-2.325 1.725-3.603 1.8-1.125.074-2.25-.3-3-1.05-.3-.302-.676-.45-1.05-.45s-.75.148-1.05.45l-4.876 4.874c-.3.3-.45.676-.45 1.05s.15.75.45 1.05c2.626 2.626 6.15 4.052 9.9 4.052s7.273-1.426 9.898-4.05l12.226-12.227c5.402-5.404 5.402-14.325.004-19.802z"/><path d="M32.91 20.46l-2.853 2.773c-2.85-1.8-6.824-1.2-9.676 1.648L9.808 35.535c-1.8 1.8-2.773 3.75-2.85 5.7-.076 1.948.75 3.75 2.323 5.397 1.273 1.275 3.148 2.025 5.176 2.025 2.023 0 4.2-.75 5.925-2.477l1.5-1.5a20.23 20.23 0 003.45 1.05l-3.6 3.603c-4.274 4.274-11.25 4.274-15.524 0-4.274-4.273-4.274-11.25 0-15.523l12.224-12.23c3.977-4.046 10.125-4.42 14.477-1.12zM4.107 31.557a13.984 13.984 0 000 19.8c2.7 2.7 6.3 4.126 9.898 4.126 3.602 0 7.2-1.352 9.9-4.125l5.55-5.55c.074-.075.074-.075.074-.15.3-.3.523-.675.523-1.124 0-.824-.675-1.5-1.5-1.5-2.1 0-4.273-.524-6.375-1.574-.675-.3-1.425-.075-1.875.45.078 0 .004.073-.07.073l-1.95 1.95c-2.175 2.175-5.323 1.948-6.823.448-.977-.975-1.5-2.1-1.5-3.147 0-1.2.675-2.398 1.95-3.676l10.573-10.574c2.102-2.102 4.95-2.398 6.602-.676.074.074.148.15.226.15 0 0 .075 0 .075.073.227.148.524.226.75.226.227 0 .375 0 .602-.074.074 0 .148-.074.226-.148l.227-.227 4.875-4.875c.602-.6.602-1.5 0-2.1a13.982 13.982 0 00-19.8 0L4.107 31.556z"/></svg>