<svg xmlns="http://www.w3.org/2000/svg" width="75" height="75"><path fill-rule="evenodd" d="M37.5 12.305l4.7 7.047h-9.395l4.695-7.047zm0-5.41l-1.246 1.87L27.2 22.35h20.605L37.5 6.898v-.003zm20.105 47.707h10.5v10.5h-10.5v-10.5zm-3-3v16.5h16.5v-16.5h-16.5z" clip-rule="evenodd"/><path d="M12.895 53.102c-3.333 0-6 2.668-6 6s2.667 6 6 6c3.332 0 6-2.668 6-6s-2.668-6-6-6zm0-3c4.953 0 9 4.046 9 9 0 4.953-4.047 9-9 9-4.954 0-9-4.047-9-9 0-4.954 4.046-9 9-9z"/><path fill-rule="evenodd" d="M31.848 53.84c-.39.012-.762.172-1.032.453L27.2 57.906a1.499 1.499 0 00-.012 2.383l.003.003 3.626 3.62c1.414 1.33 3.45-.71 2.118-2.12l-1.188-1.19h15.13a1.502 1.502 0 001.534-1.5c0-.84-.695-1.52-1.535-1.5h-15.13l1.19-1.19c.98-.952.276-2.612-1.087-2.573zM23.75 28.254c-1.82.363-3.7.95-5.535 1.44-1.965.5-1.172 3.45.777 2.9l1.625-.438-7.566 13.102c-1.073 1.75 1.618 3.304 2.598 1.5l7.567-13.102.433 1.625c.516 1.935 3.418 1.158 2.9-.776l-1.33-4.953a1.5 1.5 0 00-1.468-1.3v.004zm26.09 0a1.5 1.5 0 00-1.23 2.266l7.562 13.1-1.625-.432c-1.934-.516-2.707 2.382-.777 2.898l5.12 1.37c.755.204 1.672-.436 1.837-1.06l1.37-5.126c.25-.934-.406-1.864-1.37-1.907a1.496 1.496 0 00-1.524 1.133l-.433 1.625-7.563-13.1a1.493 1.493 0 00-1.367-.766z" clip-rule="evenodd"/></svg>