<svg xmlns="http://www.w3.org/2000/svg" width="75" height="75"><path d="M65.55 48.38a1.804 1.804 0 00-.25 2.194c.255.43 2.333 4.305-2.08 7.62a1.804 1.804 0 00-.63 2.06c.027.082.66 2.016-.422 3.906-1 1.754-3.176 3-6.47 3.7-2.64.562-6.21.667-10.608.32-.063-.004-.12-.008-.184-.004-9.14.195-18.38-.97-18.844-1.028l-1.628-.25c.1-.43.156-.875.156-1.336V42.008c0-.625-.102-1.227-.28-1.793.272-1.035 1.014-3.215 2.737-5.07C33.523 30.015 39.89 12.62 40.16 11.88c.106-.29.137-.603.086-.903-.266-1.71-.137-3.84.25-4.352.723.008 2.942.184 4.266 2.016 1.508 2.087 1.453 5.77-.157 10.657-2.41 7.32-2.636 11.156-.753 12.828.92.82 2.144.867 3.035.54a49.2 49.2 0 012.543-.517c.058-.01.117-.023.175-.04 3.08-.67 12.165-1.874 15.305.994 2.426 2.214.715 5.136.52 5.453a1.837 1.837 0 00.312 2.34c.016.015 1.602 1.492 1.664 3.503.043 1.31-.582 2.65-1.855 3.98zM9.845 67.815a2.252 2.252 0 01-2.25-2.25V42.008c0-1.242 1.01-2.25 2.25-2.25h8.847c.787 0 1.478.406 1.88 1.015.043.31.153.602.332.848.024.13.04.26.04.392v23.554a2.253 2.253 0 01-2.25 2.25H9.843zM71.05 44.223c-.085-2.184-1.097-3.922-1.898-4.96.953-2.314 1.356-5.99-1.78-8.853-5.138-4.695-17.286-2.148-18.653-1.84-.005 0-.013.004-.017.004-.773.137-1.59.3-2.43.492-.093-.85-.007-3.14 1.8-8.625 2.02-6.13 1.904-10.82-.35-13.936-2.368-3.274-6.16-3.527-7.266-3.527-1.07 0-2 .425-2.69 1.234-1.59 1.856-1.36 5.407-1.19 6.85-1.9 5.12-7.292 17.772-11.87 21.288-.074.058-.145.12-.21.187-1.368 1.438-2.274 3.012-2.872 4.363a5.894 5.894 0 00-2.934-.79H9.845a5.912 5.912 0 00-5.903 5.904v23.554a5.912 5.912 0 005.904 5.903h8.847a5.87 5.87 0 003.564-1.208l3.29.5c.01 0 .026.004.038.004.395.05 9.738 1.254 19.32 1.058 1.727.133 3.348.203 4.848.203 2.59 0 4.84-.2 6.715-.597 4.39-.934 7.394-2.797 8.918-5.535 1.18-2.118 1.152-4.235.957-5.543 3.945-3.55 3.7-7.813 2.69-10.418 1.423-1.805 2.1-3.723 2.02-5.71z"/></svg>