<svg xmlns="http://www.w3.org/2000/svg" viewBox="0 0 75 75"><path d="M56.4 36.4c-.4 0-.7.4-.7.8v18.3c0 .4.3.8.7.8H67c.4 0 .7-.4.7-.8V37.1c0-.4-.3-.8-.7-.8l-10.6.1zm10.5 21.5H56.4c-1.3 0-2.3-1.1-2.3-2.4V37.1c0-1.3 1-2.4 2.3-2.4H67c1.3 0 2.3 1.1 2.3 2.4v18.3c-.1 1.4-1.1 2.5-2.4 2.5zM5.1 39.7h31.6V23.9c0-2.1 1.7-3.8 3.8-3.8h17.3v-2.7c0-1.8-1.4-3.2-3.2-3.2H8.3c-1.8 0-3.2 1.4-3.2 3.2v22.3zm0 1.6v4.2c0 1.8 1.4 3.2 3.2 3.2h28.4v-7.5H5.1zm37.5-16.2c-.9 0-1.6.7-1.6 1.6v27.8c0 .9.7 1.6 1.6 1.6h9.2v-21c0-1.6 1.3-2.9 2.8-2.9h6.5v-5.5c0-.9-.7-1.6-1.6-1.6H42.6zM29.3 60.9h4.5V50.4h-4.5v10.5zm6 0h2.1c-.4-.6-.7-1.4-.7-2.2v-8.3h-1.4v10.5zm5.2-39.2c-1.2 0-2.2 1-2.2 2.2v34.7c0 1.2 1 2.2 2.2 2.2h11.6c-.2-.4-.3-.8-.3-1.3v-1.8h-9.2c-1.8 0-3.2-1.4-3.2-3.2V26.7c0-1.8 1.4-3.2 3.2-3.2h16.9c1.8 0 3.2 1.4 3.2 3.2v5.5h1.1v-8.3c0-1.2-1-2.2-2.2-2.2H40.5zm14.1 12.1c-.7 0-1.2.6-1.2 1.3v24.4c0 .7.5 1.3 1.2 1.3h14.1c.7 0 1.2-.6 1.2-1.3V35.1c0-.7-.5-1.3-1.2-1.3H54.6zm14.1 28.6H22.4v-1.6h5.2V50.4H8.3c-2.7 0-4.8-2.2-4.8-4.8V17.4c0-2.7 2.2-4.8 4.8-4.8h46.3c2.7 0 4.8 2.2 4.8 4.8v2.7h2.2c2.1 0 3.8 1.7 3.8 3.8v8.3h3.2c1.5 0 2.8 1.3 2.8 2.9v24.4c.1 1.6-1.2 2.9-2.7 2.9z"/></svg>