<svg xmlns="http://www.w3.org/2000/svg" width="75" height="75"><path d="M15.94 40.137c-.28 0-.557.133-.698.343a.853.853 0 00.043 1.055l13.305 15.63c.16.187.39.296.62.304l.142-.005a.875.875 0 00.554-.317l29.84-38.265a.861.861 0 00-.082-1.145c-.29-.265-.86-.265-1.156.004l-28.8 26.656a1.33 1.33 0 01-1.368.27L16.21 40.18a.784.784 0 00-.27-.043zm13.29 19.996a3.529 3.529 0 01-2.664-1.235L13.25 43.254a3.524 3.524 0 01-.2-4.293c.634-.925 1.72-1.487 2.89-1.487.404 0 .798.066 1.177.203L28.5 41.89l28.203-26.11a3.52 3.52 0 012.387-.913c.894 0 1.738.324 2.38.91 1.33 1.227 1.495 3.31.378 4.743L32.016 58.777a3.531 3.531 0 01-2.407 1.336c-.028.004-.06.004-.087.008l-.234.01c-.024.003-.044.003-.06.003z"/></svg>