<svg xmlns="http://www.w3.org/2000/svg" width="75" height="75"><path d="M25.5 33.523c-3.898 0-7.125 3.227-7.125 7.125 0 3.9 3.227 7.125 7.125 7.125s7.125-3.226 7.125-7.125c0-3.898-3.227-7.125-7.125-7.125zm0 16.5c-5.176 0-9.375-4.2-9.375-9.375s4.2-9.375 9.375-9.375 9.375 4.2 9.375 9.375c0 5.176-4.273 9.375-9.375 9.375zm23.852-16.5c-3.9 0-7.125 3.227-7.125 7.125 0 3.9 3.226 7.125 7.125 7.125 3.898 0 7.125-3.226 7.125-7.125 0-3.898-3.153-7.125-7.125-7.125zm0 16.5c-5.176 0-9.375-4.2-9.375-9.375s4.2-9.375 9.375-9.375 9.375 4.2 9.375 9.375c0 5.176-4.204 9.375-9.375 9.375z"/><path d="M28.352 40.648c0 3.8-5.704 3.8-5.704 0 0-3.796 5.704-3.796 5.704 0m23.848 0c0 3.8-5.7 3.8-5.7 0 0-3.796 5.7-3.796 5.7 0m-36.825-9.375c-.3 0-.602-.148-.824-.375a1.09 1.09 0 010-1.574 15.577 15.577 0 0110.876-4.426c1.726 0 3.45.3 5.1.9.603.225.9.823.677 1.425-.226.6-.824.898-1.426.675a12.696 12.696 0 00-4.35-.75 13.308 13.308 0 00-9.302 3.75.913.913 0 01-.75.375zm44.25 0c-.3 0-.602-.074-.75-.3-2.55-2.4-5.852-3.75-9.3-3.75-1.5 0-2.927.226-4.352.75-.602.226-1.2-.075-1.426-.676-.227-.602.074-1.2.676-1.426 1.648-.6 3.375-.897 5.1-.897 4.052 0 7.95 1.574 10.876 4.425a1.09 1.09 0 010 1.575c-.223.226-.524.3-.825.3z"/></svg>