<svg xmlns="http://www.w3.org/2000/svg" width="75" height="75" viewBox="0 0 75 75"><path d="M37.965 24.98c-4.465 0-7.762 1.868-9.285 5.258-1.735 3.867-.797 8.832 2.34 12.356 2.414 2.715 3.12 5.312 3.5 6.703l.062.23c1.305-.332 4.227-1.113 6.406-1.703.317-.922 1.29-2.277 3.918-5.23 3.137-3.524 4.078-8.49 2.34-12.356-1.516-3.39-4.812-5.258-9.28-5.258zm-3.887 26.672h-.047c-.925-.043-1.163-.91-1.413-1.832-.36-1.324-.965-3.543-3.07-5.91-3.645-4.098-4.715-9.914-2.668-14.476 1.83-4.082 5.874-6.422 11.085-6.422s9.254 2.34 11.086 6.422c2.048 4.562.977 10.378-2.667 14.476-2.36 2.652-3.555 4.238-3.555 4.71 0 .446-.297.837-.73.954-7.598 2.06-7.852 2.078-8.02 2.078zM37.72 61.977c-.443 0-.845-.297-.958-.743-.133-.527.183-1.066.715-1.2l4.882-1.24c.527-.134 1.066.183 1.2.714.13.527-.185 1.066-.716 1.2l-4.883 1.24c-.077.017-.163.03-.24.03zM33.906 57.438c-.437 0-.84-.297-.953-.74-.137-.526.18-1.065.707-1.202l8.7-2.258c.53-.14 1.066.18 1.202.707.137.528-.18 1.067-.707 1.203l-8.7 2.258c-.085.02-.17.032-.25.032zM33.906 60.25c-.437 0-.84-.297-.953-.738-.137-.528.18-1.067.707-1.203l8.7-2.26c.53-.14 1.066.18 1.202.708.137.527-.18 1.066-.707 1.203l-8.7 2.26c-.085.018-.17.03-.25.03zM33.906 54.625c-.437 0-.84-.297-.953-.738-.137-.528.18-1.067.707-1.203l8.7-2.258c.53-.14 1.066.18 1.202.707.137.527-.18 1.066-.707 1.203l-8.7 2.258c-.085.02-.17.03-.25.03zM21.36 36.844h-4.032c-.547 0-.988-.442-.988-.99 0-.545.44-.987.988-.987h4.03c.548 0 .99.442.99.988 0 .543-.446.99-.99.99zM23.61 28.434c-.17 0-.337-.043-.493-.133l-3.492-2.015c-.473-.273-.633-.875-.36-1.347.274-.473.88-.633 1.348-.36l3.492 2.016c.473.273.633.875.36 1.347-.18.314-.512.494-.856.494zM29.773 22.273c-.34 0-.67-.175-.855-.492l-2.016-3.49c-.273-.474-.11-1.08.36-1.35.472-.272 1.074-.108 1.347.36l2.015 3.493c.273.473.11 1.078-.36 1.348-.156.09-.324.133-.492.133zM38.184 20.016c-.547 0-.99-.442-.99-.99V15c0-.547.443-.988.99-.988.543 0 .988.44.988.988v4.03c0 .544-.442.986-.988.986zM46.598 22.273c-.168 0-.336-.043-.493-.132-.472-.273-.632-.874-.36-1.347l2.017-3.492c.273-.472.88-.632 1.347-.36.472.275.632.876.36 1.35l-2.017 3.49c-.183.318-.512.493-.855.493zM52.762 28.434c-.34 0-.672-.176-.856-.493-.273-.47-.11-1.077.36-1.346l3.492-2.016c.47-.273 1.074-.11 1.347.36.274.472.11 1.078-.36 1.347l-3.49 2.016c-.157.09-.33.134-.493.134zM56.25 47.277c-.168 0-.336-.043-.492-.132l-3.492-2.016c-.473-.275-.633-.876-.36-1.35.274-.47.88-.632 1.348-.358l3.492 2.016c.473.273.633.874.36 1.347-.184.313-.516.492-.856.492zM20.12 47.273c-.34 0-.67-.175-.854-.492-.274-.47-.11-1.077.36-1.346l3.49-2.016c.474-.273 1.075-.11 1.35.36.272.472.108 1.077-.36 1.347l-3.493 2.016c-.152.094-.324.133-.492.133z"/></svg>