<svg xmlns="http://www.w3.org/2000/svg" viewBox="0 0 75 75"><path d="M24.4 34.3c-2.3 0-4.1 1.8-4.1 4.1v17.4c0 2.3 1.8 4.1 4.1 4.1h26.1c2.3 0 4.1-1.8 4.1-4.1V38.4c0-2.3-1.8-4.1-4.1-4.1H24.4zm26.2 27.6H24.4c-3.4 0-6.1-2.8-6.1-6.1V38.4c0-3.4 2.8-6.1 6.1-6.1h26.1c3.4 0 6.1 2.8 6.1 6.1v17.4c0 1.6-.6 3.2-1.8 4.3-1.1 1.2-2.6 1.8-4.2 1.8z"/><path d="M49.4 34.3c-.6 0-1-.5-1-1V26c0-6-4.9-10.8-10.8-10.8S26.7 20 26.7 26v7.3c0 .6-.5 1-1 1-.6 0-1-.5-1-1V26c0-7.1 5.8-12.9 12.9-12.9S50.4 18.9 50.4 26v7.3c0 .5-.5 1-1 1zM41.5 45.3c0-2.2-1.8-4-4-4s-4 1.8-4 4c0 1.7 1 3.1 2.5 3.7v6.3h3V49c1.5-.6 2.5-2 2.5-3.7z"/></svg>