<svg xmlns="http://www.w3.org/2000/svg" width="75" height="75" viewBox="0 0 75 75"><path d="M5.96 64.492h63.08v-43.78H5.96v43.78zm65.044 3.93H3.996c-1.086 0-1.965-.883-1.965-1.965v-47.71c0-1.087.88-1.966 1.966-1.966h67.008c1.086 0 1.965.88 1.965 1.966v47.71c.003 1.087-.88 1.966-1.966 1.966z"/><path d="M5.96 16.78h63.08v-6.268H5.96v6.27zm65.044 3.93H3.996c-1.086 0-1.965-.878-1.965-1.964V8.543c0-1.086.88-1.965 1.966-1.965h67.008c1.086 0 1.965.88 1.965 1.965v10.203c.003 1.086-.88 1.965-1.966 1.965z"/><path d="M11.145 13.645c0 1.832-2.754 1.832-2.754 0 0-1.836 2.755-1.836 2.755 0M15.258 13.645c0 1.832-2.75 1.832-2.75 0 0-1.833 2.75-1.833 2.75 0M19.375 13.645c0 1.832-2.754 1.832-2.754 0 0-1.836 2.755-1.836 2.755 0M27.61 48.914c-.442 0-.88-.168-1.215-.504l-5.352-5.35c-.672-.673-.672-1.763 0-2.435l5.344-5.344c.672-.67 1.76-.67 2.433 0 .672.673.672 1.763 0 2.435l-4.13 4.13 4.138 4.135c.672.672.672 1.762 0 2.434-.336.332-.777.5-1.22.5zM47.395 48.914c-.442 0-.883-.168-1.215-.504-.672-.672-.672-1.762 0-2.433l4.13-4.13-4.138-4.136c-.672-.67-.672-1.76 0-2.433s1.762-.672 2.433 0l5.356 5.352c.325.323.505.757.505 1.214 0 .457-.18.894-.504 1.215L48.618 48.4c-.34.344-.78.512-1.222.512zM35.035 52.887c-.14 0-.285-.016-.426-.055-.922-.234-1.477-1.172-1.243-2.094l4.37-17.13c.236-.92 1.177-1.475 2.095-1.24.922.234 1.477 1.17 1.242 2.093L36.7 51.59c-.2.78-.9 1.297-1.665 1.297z"/></svg>