<svg xmlns="http://www.w3.org/2000/svg" width="75" height="75" viewBox="0 0 75 75"><path d="M67.727 28.574l-3.3 3.3c-.15.15-.376.15-.525 0l-3.3-3.3c-.15-.148-.15-.375 0-.523l3.3-3.3c.075-.074.15-.074.3-.074.075 0 .228 0 .302.074l3.3 3.3c.07.15.07.376-.077.524zm-36.375-.523l-3.3 3.302c-.15.148-.376.148-.525 0l-3.3-3.3c-.15-.15-.15-.376 0-.525l3.3-3.3c.075-.075.15-.075.3-.075s.228 0 .302.075l3.3 3.3c.074.075.074.227.074.3-.004-.003-.004.07-.152.224zm-3.3 32.626c.073-.074.147-.074.3-.074.148 0 .226 0 .3.074l3.3 3.3c.15.15.15.376 0 .524l-3.3 3.3c-.148.15-.375.15-.523 0l-3.302-3.3c-.074-.074-.074-.227-.074-.3 0-.075 0-.15.074-.302l3.223-3.222zM12.073 47.55c-1.125 1.126-3 1.126-4.125 0s-1.126-3 0-4.124c1.124-1.125 3-1.125 4.124 0 1.125 1.2 1.125 3 0 4.125zM43.5 7.95c.602-.602 1.273-.825 2.023-.825s1.5.3 2.024.824c.523.523.824 1.273.824 2.023s-.3 1.5-.823 2.023c-1.125 1.125-3 1.125-4.125 0-.524-.523-.824-1.273-.824-2.023.078-.746.38-1.496.902-2.024zM68.773 27l-3.3-3.3c-.75-.75-1.95-.75-2.625 0l-1.125 1.124c-9-6.45-21.3-6.3-30.15.3l-.225.228-.075-.075 11.7-11.7c.75.525 1.574.825 2.55.825 1.2 0 2.25-.45 3.075-1.273.824-.825 1.273-1.95 1.273-3.075 0-1.2-.448-2.25-1.272-3.075-1.727-1.726-4.5-1.726-6.227 0-.823.825-1.272 1.95-1.272 3.075 0 .898.3 1.8.824 2.55l-11.7 11.7L29.1 23.18c-.75-.75-1.95-.75-2.625 0l-3.3 3.3c-.75.75-.75 1.95 0 2.625l1.124 1.125-11.7 11.7c-1.726-1.2-4.124-1.05-5.624.45-1.727 1.725-1.727 4.5 0 6.225.824.825 1.95 1.274 3.074 1.274s2.25-.45 3.074-1.275c1.5-1.5 1.65-3.898.45-5.625l11.7-11.7.074.075c-.074.075-.227.15-.227.227-6.676 8.852-6.75 21.148-.3 30.148l-1.2 1.2c-.375.375-.523.824-.523 1.35 0 .525.226.978.523 1.353l3.3 3.3c.376.376.825.524 1.353.524.523 0 .976-.148 1.35-.523l3.302-3.3c.75-.75.75-1.95 0-2.626l-3.3-3.3c-.75-.75-1.95-.75-2.626 0l-.976.976c-5.926-8.4-5.774-19.875.45-28.2 0 0 0-.074.073-.148l.074.074c.375.375.824.524 1.352.524.522 0 .975-.15 1.35-.524l3.3-3.3c.376-.376.525-.825.525-1.352 0-.524-.227-.977-.524-1.352l-.073-.074c.074 0 .074 0 .148-.074 8.25-6.227 19.727-6.3 28.2-.45l-1.125 1.126c-.75.75-.75 1.95 0 2.625l3.3 3.3c.375.374.825.523 1.352.523.523 0 .976-.15 1.35-.524l3.302-3.3c.45-.61.45-1.81-.3-2.56z"/></svg>