<svg xmlns="http://www.w3.org/2000/svg" width="32.824" height="29.164" viewBox="0 0 32.824 29.164"><path d="M23.703 8.887H8.64c-.62 0-1.124-.504-1.124-1.125S8.02 6.637 8.64 6.637h15.063c.62 0 1.125.504 1.125 1.125s-.504 1.125-1.125 1.125zM23.703 13.387H8.64c-.62 0-1.124-.504-1.124-1.125s.503-1.125 1.125-1.125h15.063c.62 0 1.125.504 1.125 1.125s-.504 1.125-1.125 1.125zM16.203 17.887H8.64c-.62 0-1.124-.504-1.124-1.125s.503-1.125 1.125-1.125h7.563c.62 0 1.125.504 1.125 1.125s-.504 1.125-1.125 1.125z"/><path d="M6.168 2.25c-2.16 0-3.914 1.758-3.914 3.914V25.41l3.137-2.992c.21-.2.49-.312.778-.312h20.496c2.16 0 3.914-1.754 3.914-3.914V6.164c0-2.16-1.758-3.914-3.914-3.914H6.168zM1.125 29.164c-.148 0-.3-.03-.44-.09C.268 28.9 0 28.492 0 28.04V6.163C0 2.766 2.766 0 6.164 0H26.66c3.4 0 6.164 2.766 6.164 6.164v12.028c0 3.398-2.765 6.164-6.164 6.164H6.617l-4.715 4.496c-.21.207-.492.312-.777.312z"/></svg>