<svg xmlns="http://www.w3.org/2000/svg" width="75" height="75" viewBox="0 0 75 75"><path d="M17.223 42.348v10.507c0 .247-.196.39-.395.39-.137 0-.277-.07-.348-.225L8.238 35.47c-.836-1.798-1.488-3.517-1.488-5.466 0-7.777 7.637-13.38 17.06-13.38 1.405 0 2.764.138 4.073.388 1.074-.805 2.226-1.532 3.44-2.188-2.323-.77-4.858-1.2-7.514-1.2-11.435 0-20.06 7.044-20.06 16.38 0 2.566.848 4.75 1.773 6.738l8.24 17.56c.56 1.202 1.737 1.948 3.06 1.948 1.872 0 3.396-1.523 3.396-3.39v-6.735c1.12.164 2.26.246 3.417.254-.817-.993-1.54-2.04-2.164-3.134-1.48-.16-2.914-.457-4.25-.898z"/><path d="M46.203 13.418c-13.812 0-25.047 9.102-25.047 20.293 0 11.188 11.235 20.294 25.047 20.294 1.87 0 3.715-.164 5.516-.492v9.734c0 1.934 1.573 3.508 3.51 3.508 1.372 0 2.582-.774 3.168-2.016L69.05 42.035c1.14-2.465 2.2-5.18 2.2-8.328 0-5.758-2.71-11.012-7.63-14.793-4.612-3.547-10.796-5.496-17.417-5.496zm0 3c12.176 0 22.047 7.238 22.047 17.29 0 2.515-.844 4.737-1.922 7.058L55.68 63.46c-.094.2-.274.29-.45.29-.257 0-.51-.188-.51-.508V49.664c-2.622.86-5.497 1.34-8.517 1.34-12.176 0-22.047-7.742-22.047-17.293s9.87-17.292 22.047-17.292"/></svg>