<svg xmlns="http://www.w3.org/2000/svg" width="72.172" height="60.137" viewBox="0 0 72.172 60.137"><path d="M41.934 48.625l-.06-.097.28-.48.065-.095-.005-.015 18.946-32.82 8.555 10.195-27.78 23.312zm-13.484 9L2.512 12.7l11.84-6.836L39.13 48.778l-.036.21.2.075.995 1.726-11.84 6.835zm3.46-55.21l7.32 41.523L19.244 9.32l-.797-4.535 13.465-2.37zM46.857 4.94l-.078.437-6.032 34.206-5.472-31.043-1.028-5.82 12.61 2.22zm10.62 12.062L42.415 43.098 48.8 6.856l10.903 6.293-2.226 3.854zm4.325-5.242L49.216 4.496l.047-.273-.914-1.305L33.05.223l-.046.047L32.62 0 16.943 2.766l-.914 1.305.054.305-.35-.61-1.536-.41L.414 11.314 0 12.848l27.063 46.875 1.54.414 13.788-7.96.345-1.286 29.297-24.585.14-1.586L62.04 12.652l-.24-.89z"/><path d="M31.297 48.887c-.734.422-1.742.145-2.164-.578-.437-.755-.176-1.728.578-2.16.243-.142.513-.212.79-.212.567 0 1.09.3 1.37.79.443.753.18 1.72-.573 2.16zm-.793-5.203c-.668 0-1.332.176-1.914.515-1.828 1.054-2.457 3.402-1.402 5.234.683 1.183 1.957 1.914 3.324 1.914.668 0 1.328-.176 1.914-.516 1.828-1.058 2.457-3.406 1.403-5.234-.69-1.18-1.96-1.914-3.326-1.914z"/></svg>