<svg xmlns="http://www.w3.org/2000/svg" width="30" height="26.25" viewBox="0 0 30 26.25"><path d="M3.043 3.75c-.644 0-1.167.523-1.167 1.167v18.286c0 .648.523 1.17 1.167 1.17h23.91c.65 0 1.173-.522 1.173-1.166V4.917c0-.644-.524-1.167-1.168-1.167H3.043zm23.915 22.5H3.043C1.368 26.25 0 24.882 0 23.207V4.917c0-1.675 1.368-3.043 3.043-3.043h23.91c1.68 0 3.047 1.368 3.047 3.043v18.286c0 1.68-1.367 3.047-3.042 3.047z"/><path d="M.938 7.5h28.125v1.875H.938zM4.688 0h1.875v5.625H4.688zM8.438 0h1.875v5.625H8.438zM19.688 0h1.875v5.625h-1.875zM23.438 0h1.875v5.625h-1.875z"/></svg>