<svg xmlns="http://www.w3.org/2000/svg" viewBox="0 0 75 75"><path d="M59.8 15.2l-14.7 3-17.8 17.9L39 47.7l9.2-9.2.1-.1 8.5-8.5 3-14.7zm-13 28.4L40 50.4l-1.6 7 6.8-6.8 1.6-7zm-29.1-7l7-1.6 6.8-6.8-7 1.6-6.8 6.8zm45.1-22.8l-3.5 17.1c-.1.2-.2.5-.4.7l-8.6 8.6-2.6 11.4c-.1.2-.2.5-.4.6L37 62.4c-.3.3-.6.4-.9.4-.2 0-.4-.1-.6-.2-.5-.3-.8-.9-.6-1.4l2.6-11.3-12.4-12.3-11.3 2.6c-.6.1-1.2-.1-1.4-.6-.3-.5-.2-1.2.2-1.6l10.3-10.3c.2-.2.4-.3.6-.4l11.4-2.7 8.6-8.6c.2-.2.4-.3.7-.4l17.1-3.5c.4-.1.9 0 1.2.4.2.4.4.8.3 1.3zm-15.6 9.6zm3.5.9c.7.7.7 1.9 0 2.6-.7.7-1.9.7-2.6 0-.4-.4-.5-.8-.5-1.3s.2-1 .5-1.3c.3-.3.8-.5 1.3-.5.5-.1 1 .1 1.3.5zm1.9 4.5c1.7-1.7 1.7-4.6 0-6.3-.8-.8-2-1.3-3.2-1.3s-2.3.5-3.2 1.3c-.8.8-1.3 2-1.3 3.2s.5 2.3 1.3 3.2c.9.9 2 1.3 3.2 1.3 1.2-.1 2.3-.6 3.2-1.4zM18.9 50.2l4.8-4.8c.5-.5.5-1.3 0-1.9-.5-.5-1.3-.5-1.9 0L17 48.3c-.5.5-.5 1.3 0 1.9.3.3.6.4.9.4.4 0 .8-.2 1-.4zm7.8 7.7l4.8-4.8c.5-.5.5-1.3 0-1.9-.5-.5-1.3-.5-1.9 0L24.8 56c-.5.5-.5 1.3 0 1.9.3.3.6.4.9.4.4 0 .7-.1 1-.4zm-9.5 1.2c-.3 0-.7-.1-.9-.4-.5-.5-.5-1.3 0-1.9l9.5-9.5c.5-.5 1.3-.5 1.9 0 .5.5.5 1.3 0 1.9l-9.5 9.5c-.4.3-.7.4-1 .4z"/></svg>