<svg xmlns="http://www.w3.org/2000/svg" width="1849.88" height="647" viewBox="829 -286 1849.88 647"><g fill="#1D1D1B"><path d="M972.653 194.88l-44.963-44.964 44.963-44.963 44.963 44.963zM1332.353-74.908l-44.963-44.963-44.964-44.964-44.963 44.963L1152.5-74.91l-44.963 44.963-44.963 44.963 44.963 44.964 44.963 44.963-44.963 44.963-44.963-44.963-44.964 44.963 44.964 44.963 44.963 44.964 44.963-44.963 44.963-44.962 44.963-44.963-44.963-44.963-44.963-44.964 44.963-44.963 44.963-44.963 44.964 44.963-44.964 44.963 44.964 44.964 44.963-44.964 44.963-44.963"/></g><path fill="#1D1D1B" d="M1152.5 361c-86.41 0-167.647-33.65-228.75-94.75S829 123.91 829 37.5s33.65-167.648 94.75-228.75S1066.09-286 1152.5-286s167.647 33.65 228.75 94.75S1476-48.91 1476 37.5s-33.65 167.647-94.75 228.75S1238.91 361 1152.5 361zm0-612c-77.062 0-149.51 30.01-204 84.5-54.49 54.49-84.5 126.94-84.5 204 0 77.062 30.01 149.51 84.5 204s126.938 84.5 204 84.5 149.51-30.01 204-84.5 84.5-126.938 84.5-204c0-77.06-30.01-149.51-84.5-204-54.49-54.49-126.938-84.5-204-84.5z"/><g fill="#1D1D1B"><path d="M1667.795 18.562V92.73h-51.477v-221.897h78.28c15.635 0 29.063 1.854 40.283 5.56 11.22 3.707 20.46 8.81 27.72 15.305 7.258 6.5 12.614 14.164 16.066 22.997 3.45 8.833 5.18 18.378 5.18 28.632 0 11.067-1.778 21.222-5.33 30.46-3.557 9.24-8.987 17.16-16.297 23.758-7.312 6.6-16.578 11.753-27.796 15.458-11.22 3.708-24.496 5.56-39.825 5.56h-26.805zm0-38.836h26.805c13.402 0 23.047-3.198 28.937-9.595 5.887-6.395 8.833-15.33 8.833-26.803 0-5.076-.762-9.695-2.284-13.86-1.523-4.16-3.834-7.74-6.93-10.736-3.1-2.993-7.006-5.303-11.727-6.93-4.723-1.622-10.334-2.436-16.83-2.436h-26.805v70.362zM1861.512 51.61h82.24v41.12h-133.717v-221.897h51.477V51.61zM2021.727 92.73h-51.78v-221.897h51.78V92.73zM2187.27-84.086c-1.522 2.437-3.12 4.264-4.797 5.482-1.675 1.218-3.833 1.828-6.473 1.828-2.336 0-4.85-.735-7.538-2.208-2.69-1.47-5.737-3.123-9.138-4.95-3.403-1.828-7.287-3.477-11.65-4.95-4.367-1.47-9.343-2.208-14.926-2.208-9.647 0-16.83 2.056-21.55 6.168-4.722 4.112-7.082 9.67-7.082 16.677 0 4.47 1.42 8.174 4.265 11.118 2.842 2.947 6.573 5.483 11.194 7.616 4.62 2.132 9.9 4.088 15.84 5.863 5.938 1.777 12.005 3.757 18.198 5.94 6.192 2.184 12.26 4.746 18.2 7.69 5.94 2.946 11.218 6.7 15.84 11.27 4.618 4.57 8.35 10.127 11.192 16.676 2.842 6.55 4.265 14.445 4.265 23.683 0 10.255-1.778 19.85-5.33 28.783-3.557 8.936-8.708 16.73-15.46 23.378-6.753 6.652-15.077 11.88-24.977 15.688s-21.146 5.71-33.733 5.71c-6.906 0-13.936-.71-21.094-2.13-7.157-1.422-14.087-3.428-20.788-6.017-6.7-2.588-12.998-5.658-18.885-9.213-5.89-3.553-11.018-7.512-15.382-11.88l15.23-24.062c1.22-1.725 2.817-3.172 4.797-4.34 1.98-1.166 4.136-1.75 6.473-1.75 3.046 0 6.116.965 9.214 2.893 3.097 1.93 6.6 4.062 10.51 6.396 3.906 2.337 8.4 4.47 13.478 6.396 5.076 1.93 11.065 2.894 17.97 2.894 9.342 0 16.602-2.056 21.78-6.168 5.178-4.112 7.767-10.635 7.767-19.57 0-5.178-1.424-9.39-4.266-12.64-2.843-3.25-6.574-5.94-11.193-8.073-4.62-2.132-9.875-4.01-15.762-5.635-5.89-1.623-11.932-3.427-18.123-5.407-6.194-1.98-12.236-4.416-18.124-7.31-5.89-2.893-11.143-6.7-15.762-11.42-4.62-4.722-8.353-10.61-11.193-17.668-2.844-7.056-4.265-15.763-4.265-26.12 0-8.323 1.675-16.447 5.025-24.367s8.274-14.975 14.773-21.17c6.496-6.19 14.468-11.14 23.91-14.848 9.442-3.705 20.256-5.56 32.44-5.56 6.8 0 13.425.534 19.874 1.6 6.446 1.066 12.564 2.642 18.352 4.72 5.787 2.084 11.194 4.57 16.22 7.464 5.026 2.895 9.52 6.17 13.48 9.824l-12.793 23.91zM2352.738 3.332c1.878 4.165 3.68 8.43 5.406 12.793 1.726-4.467 3.527-8.833 5.407-13.098 1.878-4.264 3.884-8.324 6.017-12.184l56.96-112.09c1.013-1.93 2.055-3.428 3.12-4.494 1.067-1.067 2.26-1.853 3.58-2.362 1.318-.507 2.817-.812 4.492-.914 1.675-.1 3.628-.152 5.863-.152h39.292V92.73h-45.385V-34.895c0-6.192.305-12.893.914-20.104l-58.786 114.072c-1.828 3.555-4.29 6.244-7.387 8.072-3.098 1.828-6.624 2.74-10.584 2.74h-7.006c-3.96 0-7.488-.913-10.584-2.74-3.1-1.828-5.56-4.517-7.387-8.072L2277.58-55.15c.404 3.555.71 7.082.913 10.584.202 3.503.305 6.727.305 9.67V92.73h-45.385v-221.897h39.293c2.232 0 4.188.052 5.863.152 1.675.102 3.17.407 4.492.914 1.318.508 2.513 1.293 3.58 2.36 1.064 1.066 2.104 2.565 3.12 4.493L2346.875-8.7c2.03 3.86 3.984 7.87 5.864 12.032zM2668.677-129.167v39.597h-91.074v51.78h69.752V.287h-69.752v52.847h91.074V92.73h-142.855v-221.897h142.855z"/><g><path d="M1689.676 215.027h-13.335c-1.493 0-2.697-.348-3.613-1.043s-1.61-1.586-2.087-2.673l-4.377-12.927h-28.196l-4.377 12.928c-.374.952-1.043 1.81-2.01 2.57-.968.765-2.164 1.147-3.59 1.147h-13.436l28.705-74.156h17.61l28.706 74.157zm-47.64-28.35h20.257l-6.82-20.307c-.51-1.29-1.052-2.807-1.628-4.555-.578-1.747-1.154-3.64-1.73-5.675-.544 2.07-1.095 3.987-1.654 5.75-.56 1.766-1.094 3.293-1.603 4.582l-6.82 20.206zM1713.8 161.332c2.24 0 4.352.22 6.337.66 1.984.442 3.825 1.07 5.52 1.885h15.932v5.75c0 .884-.247 1.58-.74 2.088s-1.33.9-2.518 1.17l-3.868.865c.475 1.527.712 3.105.712 4.733 0 2.647-.552 5.022-1.653 7.126-1.104 2.103-2.613 3.893-4.53 5.368-1.917 1.477-4.183 2.613-6.795 3.41-2.613.798-5.412 1.196-8.397 1.196-1.662 0-3.223-.102-4.682-.306-1.154.68-1.73 1.46-1.73 2.342 0 .883.475 1.52 1.425 1.908.95.39 2.206.662 3.767.814s3.334.255 5.318.306c1.985.05 4.013.17 6.082.356s4.098.5 6.083.94c1.984.442 3.757 1.154 5.318 2.14 1.562.983 2.816 2.298 3.768 3.943.95 1.646 1.425 3.74 1.425 6.285 0 2.375-.577 4.7-1.73 6.973-1.154 2.273-2.85 4.292-5.09 6.058-2.24 1.764-4.987 3.18-8.245 4.25-3.258 1.068-6.99 1.603-11.197 1.603-4.14 0-7.71-.39-10.713-1.17s-5.496-1.808-7.48-3.08-3.454-2.74-4.403-4.402c-.95-1.663-1.426-3.394-1.426-5.19 0-2.342.68-4.294 2.036-5.855 1.356-1.56 3.258-2.816 5.7-3.767-1.29-.78-2.308-1.78-3.054-3.003s-1.12-2.8-1.12-4.733c0-.78.136-1.604.408-2.47.27-.864.694-1.704 1.272-2.52.576-.813 1.306-1.593 2.188-2.34.882-.746 1.934-1.407 3.155-1.985-2.748-1.458-4.91-3.393-6.49-5.802s-2.366-5.208-2.366-8.398c0-2.646.56-5.03 1.68-7.15 1.12-2.12 2.655-3.92 4.606-5.396 1.95-1.476 4.25-2.612 6.896-3.41s5.512-1.194 8.6-1.194zm12.214 55.63c0-1.256-.56-2.164-1.68-2.724-1.12-.56-2.58-.95-4.377-1.17-1.8-.22-3.817-.356-6.057-.407-2.24-.05-4.462-.194-6.667-.432-.984.68-1.78 1.434-2.393 2.265-.61.83-.916 1.772-.916 2.824 0 .746.16 1.426.483 2.036s.89 1.137 1.705 1.578c.814.44 1.91.79 3.283 1.044s3.112.382 5.217.382c2.272 0 4.14-.136 5.6-.407 1.457-.272 2.62-.646 3.485-1.12s1.467-1.044 1.807-1.706c.34-.66.51-1.383.51-2.163zm-12.214-31.098c2.612 0 4.504-.653 5.675-1.96 1.17-1.306 1.756-2.994 1.756-5.064 0-2.138-.584-3.817-1.755-5.038-1.17-1.222-3.062-1.833-5.675-1.833s-4.505.61-5.675 1.832c-1.17 1.22-1.756 2.9-1.756 5.038 0 1.02.143 1.952.432 2.8.287.85.737 1.586 1.35 2.214.61.628 1.38 1.12 2.314 1.476.932.356 2.044.534 3.334.534zM1770.447 161.434c3.494 0 6.693.543 9.594 1.63 2.902 1.085 5.397 2.663 7.483 4.732s3.715 4.605 4.886 7.608 1.755 6.405 1.755 10.205c0 1.187-.05 2.154-.152 2.9-.103.746-.29 1.34-.56 1.78-.272.442-.637.747-1.095.917s-1.044.254-1.756.254h-30.437c.51 4.413 1.85 7.61 4.02 9.596 2.172 1.984 4.97 2.978 8.398 2.978 1.832 0 3.41-.22 4.733-.662 1.323-.44 2.502-.933 3.537-1.476s1.985-1.035 2.85-1.477c.866-.44 1.773-.662 2.724-.662 1.255 0 2.205.458 2.85 1.374l4.58 5.65c-1.627 1.865-3.383 3.384-5.267 4.554-1.883 1.17-3.817 2.087-5.802 2.75-1.985.66-3.97 1.118-5.955 1.373s-3.877.38-5.675.38c-3.7 0-7.17-.602-10.408-1.806-3.24-1.204-6.074-2.994-8.5-5.37-2.426-2.374-4.344-5.326-5.75-8.855-1.41-3.53-2.113-7.636-2.113-12.318 0-3.528.602-6.87 1.807-10.026 1.204-3.155 2.935-5.92 5.19-8.296 2.257-2.375 4.99-4.258 8.195-5.65 3.207-1.39 6.83-2.086 10.867-2.086zm.306 10.89c-3.02 0-5.378.858-7.074 2.57-1.698 1.715-2.818 4.184-3.36 7.406h19.696c0-1.255-.16-2.477-.483-3.664s-.85-2.248-1.577-3.182c-.73-.933-1.688-1.688-2.876-2.265-1.19-.576-2.63-.865-4.327-.865zM1802.052 215.027v-52.78h9.772c1.968 0 3.258.884 3.868 2.647l.916 3.054c1.018-.95 2.07-1.832 3.155-2.646s2.248-1.502 3.486-2.062 2.578-1 4.02-1.323c1.44-.322 3.01-.483 4.708-.483 2.883 0 5.437.5 7.66 1.5 2.222 1.003 4.097 2.394 5.623 4.175 1.528 1.78 2.682 3.9 3.462 6.36s1.17 5.134 1.17 8.017v33.54h-15.776v-33.54c0-2.578-.595-4.588-1.782-6.03-1.188-1.442-2.935-2.164-5.242-2.164-1.73 0-3.358.374-4.886 1.12-1.527.747-2.986 1.748-4.377 3.003v37.612h-15.778zM1898.856 174.77c-.476.576-.934 1.034-1.374 1.373-.44.34-1.07.51-1.883.51-.782 0-1.486-.187-2.113-.56-.63-.374-1.332-.79-2.112-1.248-.78-.458-1.697-.873-2.75-1.247-1.05-.373-2.357-.56-3.918-.56-1.934 0-3.605.356-5.013 1.068-1.408.713-2.57 1.73-3.486 3.054s-1.596 2.944-2.036 4.86c-.44 1.918-.662 4.08-.662 6.49 0 5.056.976 8.94 2.927 11.655s4.64 4.07 8.067 4.07c1.832 0 3.282-.228 4.352-.687 1.068-.458 1.977-.967 2.723-1.526s1.433-1.077 2.06-1.553c.63-.476 1.417-.713 2.368-.713 1.255 0 2.205.458 2.85 1.374l4.58 5.65c-1.628 1.866-3.342 3.385-5.14 4.555-1.8 1.17-3.64 2.087-5.522 2.75-1.883.66-3.775 1.118-5.675 1.373-1.9.255-3.75.382-5.547.382-3.224 0-6.303-.61-9.237-1.832-2.936-1.222-5.515-2.994-7.736-5.32-2.223-2.322-3.987-5.182-5.293-8.575-1.307-3.392-1.96-7.26-1.96-11.604 0-3.8.567-7.355 1.705-10.664 1.137-3.31 2.816-6.175 5.04-8.602 2.22-2.426 4.97-4.334 8.244-5.726 3.273-1.39 7.065-2.087 11.375-2.087 4.14 0 7.77.663 10.893 1.986s5.938 3.257 8.45 5.802l-4.177 5.55zM1931.94 161.434c3.493 0 6.692.543 9.593 1.63 2.9 1.085 5.396 2.663 7.482 4.732s3.715 4.605 4.886 7.608 1.757 6.405 1.757 10.205c0 1.187-.05 2.154-.152 2.9-.103.746-.29 1.34-.56 1.78-.272.442-.637.747-1.095.917s-1.044.254-1.756.254h-30.437c.51 4.413 1.85 7.61 4.02 9.596 2.172 1.984 4.97 2.978 8.398 2.978 1.832 0 3.41-.22 4.733-.662 1.323-.44 2.502-.933 3.537-1.476s1.985-1.035 2.85-1.477c.866-.44 1.773-.662 2.724-.662 1.254 0 2.204.458 2.85 1.374l4.58 5.65c-1.628 1.865-3.384 3.384-5.268 4.554-1.883 1.17-3.817 2.087-5.802 2.75-1.985.66-3.97 1.118-5.955 1.373s-3.877.38-5.675.38c-3.7 0-7.17-.602-10.408-1.806-3.24-1.204-6.074-2.994-8.5-5.37-2.426-2.374-4.344-5.326-5.75-8.855-1.41-3.53-2.113-7.636-2.113-12.318 0-3.528.6-6.87 1.806-10.026 1.204-3.155 2.935-5.92 5.19-8.296 2.257-2.375 4.99-4.258 8.195-5.65 3.21-1.39 6.83-2.086 10.87-2.086zm.305 10.89c-3.02 0-5.378.858-7.074 2.57-1.696 1.715-2.816 4.184-3.358 7.406h19.696c0-1.255-.16-2.477-.483-3.664s-.85-2.248-1.577-3.182c-.73-.933-1.688-1.688-2.876-2.265-1.19-.576-2.63-.865-4.327-.865zM1981.917 140.87h14.455c1.492 0 2.74.34 3.74 1.02 1 .68 1.654 1.577 1.96 2.697l10.18 38.682c.305 1.254.61 2.595.916 4.02.305 1.425.61 2.918.916 4.48.61-3.19 1.356-6.023 2.24-8.5l12.01-38.682c.307-.95.96-1.807 1.96-2.57s2.215-1.146 3.64-1.146h5.09c1.492 0 2.697.35 3.613 1.044s1.61 1.586 2.087 2.672l11.91 38.682c.88 2.375 1.628 5.072 2.24 8.092.27-1.492.55-2.918.838-4.275.288-1.356.586-2.63.892-3.816l10.18-38.68c.27-.984.915-1.85 1.934-2.597 1.018-.746 2.24-1.12 3.664-1.12h13.538l-22.903 74.156h-15.574l-13.945-45.96c-.51-1.46-1-3.14-1.476-5.04-.476 1.9-.968 3.58-1.477 5.04l-14.148 45.96h-15.575l-22.905-74.16zM2112.058 161.434c3.494 0 6.693.543 9.594 1.63 2.9 1.085 5.396 2.663 7.482 4.732s3.715 4.605 4.886 7.608 1.756 6.405 1.756 10.205c0 1.187-.05 2.154-.152 2.9-.103.746-.29 1.34-.56 1.78-.272.442-.637.747-1.095.917s-1.045.254-1.757.254h-30.437c.51 4.413 1.85 7.61 4.02 9.596 2.172 1.984 4.97 2.978 8.398 2.978 1.832 0 3.41-.22 4.733-.662 1.323-.44 2.502-.933 3.537-1.476s1.985-1.035 2.85-1.477c.866-.44 1.773-.662 2.724-.662 1.255 0 2.205.458 2.85 1.374l4.58 5.65c-1.627 1.865-3.383 3.384-5.267 4.554-1.882 1.17-3.816 2.087-5.8 2.75-1.986.66-3.97 1.118-5.956 1.373s-3.877.38-5.675.38c-3.7 0-7.17-.602-10.41-1.806-3.24-1.204-6.073-2.994-8.5-5.37-2.425-2.374-4.343-5.326-5.75-8.855-1.408-3.53-2.112-7.636-2.112-12.318 0-3.528.602-6.87 1.807-10.026 1.204-3.155 2.935-5.92 5.19-8.296 2.257-2.375 4.99-4.258 8.195-5.65 3.208-1.39 6.83-2.086 10.868-2.086zm.306 10.89c-3.02 0-5.378.858-7.074 2.57-1.697 1.715-2.817 4.184-3.36 7.406h19.697c0-1.255-.16-2.477-.483-3.664s-.85-2.248-1.577-3.182c-.73-.933-1.688-1.688-2.876-2.265-1.188-.576-2.63-.865-4.326-.865zM2143.663 215.027v-76.19h15.778v29.06c2.037-1.967 4.26-3.536 6.668-4.707s5.123-1.756 8.144-1.756c2.985 0 5.7.61 8.144 1.832s4.53 2.96 6.26 5.217c1.73 2.257 3.062 4.98 3.996 8.17.933 3.19 1.4 6.752 1.4 10.687 0 4.275-.544 8.16-1.63 11.655-1.086 3.495-2.62 6.49-4.605 8.983-1.985 2.493-4.353 4.428-7.1 5.802s-5.786 2.062-9.11 2.062c-1.597 0-3.022-.152-4.276-.458-1.255-.306-2.408-.738-3.46-1.298s-2.01-1.23-2.876-2.01c-.865-.78-1.704-1.63-2.52-2.546l-.56 2.646c-.27 1.087-.712 1.833-1.323 2.24-.61.407-1.424.61-2.44.61h-10.487zm25.04-41.735c-1.933 0-3.612.425-5.037 1.272-1.426.85-2.834 2.087-4.225 3.716v22.395c1.19 1.323 2.478 2.248 3.87 2.773 1.39.526 2.798.79 4.224.79 1.492 0 2.866-.28 4.122-.84 1.255-.56 2.333-1.477 3.232-2.75.898-1.27 1.603-2.95 2.112-5.038.51-2.087.763-4.657.763-7.71 0-2.647-.195-4.895-.585-6.744-.39-1.85-.967-3.36-1.73-4.53s-1.714-2.02-2.85-2.545c-1.137-.524-2.435-.788-3.894-.788zM2268.46 155.937c-.51.814-1.044 1.426-1.604 1.833-.56.406-1.28.61-2.163.61-.78 0-1.62-.246-2.52-.738-.9-.49-1.918-1.043-3.054-1.654-1.14-.61-2.437-1.16-3.895-1.653-1.46-.492-3.122-.738-4.988-.738-3.224 0-5.624.687-7.2 2.062-1.58 1.373-2.368 3.23-2.368 5.572 0 1.493.474 2.73 1.424 3.715.95.984 2.197 1.832 3.74 2.545s3.31 1.366 5.294 1.96c1.985.594 4.013 1.255 6.082 1.984 2.07.73 4.098 1.587 6.082 2.57 1.985.984 3.75 2.24 5.294 3.767 1.543 1.526 2.79 3.385 3.74 5.573s1.426 4.827 1.426 7.914c0 3.428-.595 6.634-1.78 9.62-1.19 2.985-2.91 5.59-5.167 7.81-2.258 2.224-5.04 3.972-8.348 5.243-3.308 1.272-7.066 1.91-11.273 1.91-2.308 0-4.657-.24-7.05-.714-2.392-.476-4.707-1.146-6.946-2.01s-4.344-1.893-6.312-3.08c-1.968-1.188-3.682-2.51-5.14-3.97l5.09-8.042c.406-.577.94-1.06 1.603-1.45.66-.39 1.38-.586 2.162-.586 1.018 0 2.044.323 3.08.967 1.033.645 2.204 1.356 3.51 2.137 1.307.78 2.81 1.493 4.505 2.138 1.696.646 3.698.967 6.006.967 3.122 0 5.548-.687 7.278-2.06 1.73-1.376 2.597-3.556 2.597-6.542 0-1.73-.476-3.138-1.425-4.224-.95-1.086-2.197-1.985-3.74-2.698-1.545-.712-3.3-1.34-5.27-1.883-1.967-.542-3.986-1.146-6.056-1.807-2.07-.662-4.09-1.477-6.057-2.443s-3.726-2.24-5.27-3.817c-1.544-1.577-2.79-3.545-3.74-5.903s-1.425-5.268-1.425-8.73c0-2.78.56-5.496 1.68-8.143 1.12-2.646 2.765-5.005 4.937-7.075 2.17-2.07 4.835-3.723 7.99-4.962 3.156-1.238 6.77-1.857 10.842-1.857 2.272 0 4.486.178 6.642.534 2.154.356 4.2.883 6.133 1.577 1.934.695 3.74 1.526 5.42 2.493s3.18 2.062 4.504 3.283l-4.275 7.99zM2299.81 147.793c0 1.256-.255 2.436-.764 3.538s-1.205 2.07-2.087 2.9c-.884.833-1.91 1.495-3.08 1.986-1.17.492-2.418.738-3.74.738-1.29 0-2.495-.246-3.614-.738-1.12-.49-2.112-1.153-2.978-1.985-.865-.83-1.545-1.797-2.036-2.9-.492-1.102-.738-2.28-.738-3.537 0-1.29.246-2.493.738-3.613.49-1.12 1.17-2.104 2.036-2.952.865-.848 1.857-1.51 2.978-1.984 1.12-.476 2.323-.713 3.613-.713 1.322 0 2.57.238 3.74.714 1.17.476 2.196 1.137 3.08 1.984.88.85 1.577 1.832 2.086 2.952s.763 2.324.763 3.613zm-1.63 14.455v52.78h-15.777v-52.78h15.778zM2309.225 215.027v-52.78h9.772c1.968 0 3.258.884 3.868 2.647l.865 2.85c.882-.916 1.798-1.755 2.748-2.52s1.977-1.425 3.08-1.984 2.29-1 3.562-1.323c1.272-.322 2.672-.483 4.198-.483 3.19 0 5.828.823 7.915 2.47s3.672 3.842 4.76 6.59c.88-1.63 1.958-3.02 3.23-4.174 1.272-1.153 2.646-2.087 4.123-2.8 1.476-.712 3.036-1.237 4.683-1.577 1.644-.34 3.28-.51 4.91-.51 3.02 0 5.7.45 8.042 1.35 2.34.9 4.3 2.206 5.878 3.92 1.578 1.713 2.774 3.816 3.588 6.31.814 2.495 1.222 5.32 1.222 8.475v33.54h-15.777v-33.54c0-5.462-2.342-8.194-7.024-8.194-2.138 0-3.91.705-5.32 2.112-1.407 1.41-2.11 3.436-2.11 6.082v33.54h-15.778v-33.54c0-3.02-.595-5.14-1.78-6.36-1.19-1.223-2.937-1.834-5.243-1.834-1.427 0-2.775.323-4.048.968s-2.47 1.51-3.588 2.596v38.172h-15.78zM2395.85 231.772v-69.524h9.772c1.968 0 3.258.883 3.868 2.646l1.17 3.868c1.02-1.12 2.113-2.138 3.283-3.054 1.17-.916 2.426-1.705 3.767-2.367 1.34-.66 2.782-1.177 4.326-1.55 1.544-.374 3.23-.56 5.064-.56 2.748 0 5.293.61 7.634 1.83 2.342 1.223 4.36 2.987 6.057 5.294 1.697 2.308 3.03 5.133 3.997 8.475.967 3.34 1.45 7.133 1.45 11.374 0 3.97-.552 7.635-1.654 10.993-1.103 3.36-2.646 6.278-4.632 8.755-1.983 2.477-4.36 4.41-7.124 5.802-2.766 1.39-5.828 2.087-9.187 2.087-2.75 0-5.058-.39-6.923-1.17-1.867-.78-3.563-1.832-5.09-3.155v20.257h-15.777zm25.754-58.48c-1.154 0-2.197.11-3.13.33-.934.223-1.8.535-2.596.942-.798.407-1.536.925-2.214 1.553-.68.628-1.357 1.35-2.036 2.163v22.395c1.188 1.323 2.477 2.248 3.868 2.773 1.39.526 2.85.79 4.377.79 1.458 0 2.8-.29 4.02-.866 1.223-.576 2.283-1.5 3.183-2.773.898-1.273 1.603-2.928 2.112-4.964.51-2.036.763-4.512.763-7.43 0-2.783-.202-5.124-.61-7.024s-.975-3.436-1.704-4.606c-.73-1.17-1.604-2.01-2.62-2.52-1.02-.51-2.157-.764-3.412-.764zM2470.16 138.836v76.19h-15.78v-76.19h15.78zM2498.61 147.793c0 1.256-.255 2.436-.764 3.538s-1.205 2.07-2.087 2.9c-.884.833-1.91 1.495-3.08 1.986-1.17.492-2.418.738-3.74.738-1.29 0-2.495-.246-3.614-.738-1.12-.49-2.112-1.153-2.978-1.985-.865-.83-1.545-1.797-2.036-2.9-.492-1.102-.738-2.28-.738-3.537 0-1.29.246-2.493.738-3.613.49-1.12 1.17-2.104 2.036-2.952.865-.848 1.857-1.51 2.978-1.984 1.12-.476 2.323-.713 3.613-.713 1.322 0 2.57.238 3.74.714 1.17.476 2.196 1.137 3.08 1.984.88.85 1.577 1.832 2.086 2.952s.763 2.324.763 3.613zm-1.63 14.455v52.78h-15.777v-52.78h15.778zM2511.944 215.027V173.09l-3.46-.714c-1.19-.27-2.147-.694-2.876-1.272-.73-.576-1.095-1.425-1.095-2.545v-6.21h7.43v-.764c0-3.188.553-6.2 1.655-9.034 1.103-2.832 2.808-5.293 5.115-7.38 2.308-2.086 5.25-3.74 8.83-4.962 3.58-1.222 7.847-1.832 12.8-1.832 1.528 0 3.105.076 4.734.23 1.63.152 3.036.38 4.225.687l-.51 7.99c-.067.85-.49 1.408-1.27 1.68-.782.272-1.613.407-2.495.407-3.53 0-6.447.272-8.754.814-2.308.543-4.132 1.35-5.472 2.418-1.34 1.068-2.272 2.4-2.798 3.995-.526 1.594-.79 3.427-.79 5.496v.254h33.49v52.678h-15.777V173.14h-17.203v41.888h-15.778zM2595.057 161.434c3.494 0 6.693.543 9.594 1.63 2.902 1.085 5.397 2.663 7.483 4.732s3.715 4.605 4.886 7.608 1.755 6.405 1.755 10.205c0 1.187-.05 2.154-.152 2.9-.103.746-.29 1.34-.56 1.78-.272.442-.637.747-1.095.917s-1.044.254-1.756.254h-30.437c.51 4.413 1.85 7.61 4.02 9.596 2.172 1.984 4.97 2.978 8.398 2.978 1.832 0 3.41-.22 4.733-.662 1.323-.44 2.502-.933 3.537-1.476s1.985-1.035 2.85-1.477c.866-.44 1.773-.662 2.724-.662 1.255 0 2.205.458 2.85 1.374l4.58 5.65c-1.627 1.865-3.383 3.384-5.267 4.554-1.883 1.17-3.817 2.087-5.802 2.75-1.985.66-3.97 1.118-5.955 1.373s-3.877.38-5.675.38c-3.7 0-7.17-.602-10.408-1.806-3.24-1.204-6.074-2.994-8.5-5.37-2.426-2.374-4.344-5.326-5.75-8.855-1.41-3.53-2.113-7.636-2.113-12.318 0-3.528.602-6.87 1.807-10.026 1.204-3.155 2.935-5.92 5.19-8.296 2.257-2.375 4.99-4.258 8.195-5.65 3.207-1.39 6.83-2.086 10.867-2.086zm.306 10.89c-3.02 0-5.378.858-7.074 2.57-1.698 1.715-2.818 4.184-3.36 7.406h19.696c0-1.255-.16-2.477-.483-3.664s-.85-2.248-1.577-3.182c-.73-.933-1.688-1.688-2.876-2.265-1.19-.576-2.63-.865-4.327-.865zm20.257-32.266l-13.233 13.385c-.78.78-1.526 1.333-2.24 1.654-.712.323-1.662.483-2.85.483h-9.467l6.922-12.47c.577-.983 1.256-1.738 2.036-2.265.78-.525 1.968-.788 3.562-.788h15.27zM2649.922 161.434c3.494 0 6.693.543 9.594 1.63 2.9 1.085 5.396 2.663 7.482 4.732s3.715 4.605 4.886 7.608 1.756 6.405 1.756 10.205c0 1.187-.05 2.154-.152 2.9-.103.746-.29 1.34-.56 1.78-.272.442-.637.747-1.095.917s-1.044.254-1.756.254h-30.437c.51 4.413 1.85 7.61 4.02 9.596 2.172 1.984 4.97 2.978 8.398 2.978 1.832 0 3.41-.22 4.733-.662 1.324-.44 2.503-.933 3.538-1.476s1.985-1.035 2.85-1.477c.866-.44 1.773-.662 2.724-.662 1.255 0 2.205.458 2.85 1.374l4.58 5.65c-1.627 1.865-3.383 3.384-5.267 4.554-1.883 1.17-3.817 2.087-5.802 2.75-1.985.66-3.97 1.118-5.955 1.373s-3.877.38-5.675.38c-3.7 0-7.17-.602-10.408-1.806-3.24-1.204-6.074-2.994-8.5-5.37-2.426-2.374-4.344-5.326-5.75-8.855-1.41-3.53-2.113-7.636-2.113-12.318 0-3.528.602-6.87 1.807-10.026 1.203-3.155 2.934-5.92 5.19-8.296 2.256-2.375 4.988-4.258 8.194-5.65 3.207-1.39 6.83-2.086 10.868-2.086zm.305 10.89c-3.02 0-5.378.858-7.074 2.57-1.697 1.715-2.817 4.184-3.36 7.406h19.697c0-1.255-.16-2.477-.483-3.664s-.85-2.248-1.577-3.182c-.73-.933-1.688-1.688-2.876-2.265-1.19-.576-2.63-.865-4.327-.865z"/></g></g></svg>