<svg xmlns="http://www.w3.org/2000/svg" width="75" height="75" viewBox="0 0 75 75"><path d="M24.23 32.238l18.54 18.54-8.282 12.195-4.093-4.094c.27-1.485.898-2.88 1.98-4.232.36-.406.047-1.035-.45-.988-.18 0-.36.09-.448.227-1.036 1.26-1.71 2.61-2.07 3.96l-4.997-4.995-.72-.676 3.33-3.328c.406-.407.136-1.078-.45-1.036-.136 0-.27.047-.406.18l-3.328 3.328-.676-.718-4.996-4.997c1.352-.36 2.7-1.035 3.96-2.07.45-.36.228-1.078-.358-1.078-.137.047-.27.09-.407.18-1.352 1.078-2.747 1.71-4.23 1.98l-4.095-4.097 12.195-8.282zm34.422-20.566c.54 0 1.078.226 1.485.63h.047l2.52 2.518c.808.856.808 2.16 0 3.016L50.553 29.94c-.226.27-.226.63 0 .857l2.16 2.16c1.126 1.172 1.352 3.238.45 4.59L44.3 50.64l-.27-.27c-.046-.09-.09-.136-.178-.18L24.816 31.157c-.046-.09-.09-.136-.18-.18l-.27-.27 13.095-8.862c1.352-.9 3.466-.676 4.59.45l2.16 2.16c.228.226.587.226.856 0l12.106-12.15c.445-.406.988-.632 1.48-.632zm0-1.172c-.808 0-1.664.316-2.34.988l-11.7 11.7-1.71-1.754c-1.62-1.575-4.23-1.844-6.12-.586l-13.68 9.27c-.317.226-.36.675-.09.944l.36.317-12.602 8.55c-.317.18-.36.63-.09.898L34.172 64.32c.27.27.72.227.898-.09l8.55-12.6.318.358c.27.27.718.227.945-.09l9.27-13.68c1.26-1.843.988-4.5-.587-6.12l-1.754-1.71 11.7-11.7c1.304-1.305 1.304-3.422 0-4.68l-2.114-2.16-.316.406c.18-.27.137-.586-.047-.81-.672-.628-1.527-.944-2.383-.944z"/></svg>