<svg viewBox="0 0 100 100" xmlns="http://www.w3.org/2000/svg"><symbol viewBox="0 0 75 75" id="icon-ampoule"><title>ampoule</title><path d="M37.965 24.98c-4.465 0-7.762 1.868-9.285 5.258-1.735 3.867-.797 8.832 2.34 12.356 2.414 2.715 3.12 5.312 3.5 6.703l.062.23c1.305-.332 4.227-1.113 6.406-1.703.317-.922 1.29-2.277 3.918-5.23 3.137-3.524 4.078-8.49 2.34-12.356-1.516-3.39-4.812-5.258-9.28-5.258zm-3.887 26.672h-.047c-.925-.043-1.163-.91-1.413-1.832-.36-1.324-.965-3.543-3.07-5.91-3.645-4.098-4.715-9.914-2.668-14.476 1.83-4.082 5.874-6.422 11.085-6.422s9.254 2.34 11.086 6.422c2.048 4.562.977 10.378-2.667 14.476-2.36 2.652-3.555 4.238-3.555 4.71 0 .446-.297.837-.73.954-7.598 2.06-7.852 2.078-8.02 2.078zM37.72 61.977c-.443 0-.845-.297-.958-.743-.133-.527.183-1.066.715-1.2l4.882-1.24c.527-.134 1.066.183 1.2.714.13.527-.185 1.066-.716 1.2l-4.883 1.24c-.077.017-.163.03-.24.03zM33.906 57.438c-.437 0-.84-.297-.953-.74-.137-.526.18-1.065.707-1.202l8.7-2.258c.53-.14 1.066.18 1.202.707.137.528-.18 1.067-.707 1.203l-8.7 2.258c-.085.02-.17.032-.25.032zM33.906 60.25c-.437 0-.84-.297-.953-.738-.137-.528.18-1.067.707-1.203l8.7-2.26c.53-.14 1.066.18 1.202.708.137.527-.18 1.066-.707 1.203l-8.7 2.26c-.085.018-.17.03-.25.03zM33.906 54.625c-.437 0-.84-.297-.953-.738-.137-.528.18-1.067.707-1.203l8.7-2.258c.53-.14 1.066.18 1.202.707.137.527-.18 1.066-.707 1.203l-8.7 2.258c-.085.02-.17.03-.25.03zM21.36 36.844h-4.032c-.547 0-.988-.442-.988-.99 0-.545.44-.987.988-.987h4.03c.548 0 .99.442.99.988 0 .543-.446.99-.99.99zM23.61 28.434c-.17 0-.337-.043-.493-.133l-3.492-2.015c-.473-.273-.633-.875-.36-1.347.274-.473.88-.633 1.348-.36l3.492 2.016c.473.273.633.875.36 1.347-.18.314-.512.494-.856.494zM29.773 22.273c-.34 0-.67-.175-.855-.492l-2.016-3.49c-.273-.474-.11-1.08.36-1.35.472-.272 1.074-.108 1.347.36l2.015 3.493c.273.473.11 1.078-.36 1.348-.156.09-.324.133-.492.133zM38.184 20.016c-.547 0-.99-.442-.99-.99V15c0-.547.443-.988.99-.988.543 0 .988.44.988.988v4.03c0 .544-.442.986-.988.986zM46.598 22.273c-.168 0-.336-.043-.493-.132-.472-.273-.632-.874-.36-1.347l2.017-3.492c.273-.472.88-.632 1.347-.36.472.275.632.876.36 1.35l-2.017 3.49c-.183.318-.512.493-.855.493zM52.762 28.434c-.34 0-.672-.176-.856-.493-.273-.47-.11-1.077.36-1.346l3.492-2.016c.47-.273 1.074-.11 1.347.36.274.472.11 1.078-.36 1.347l-3.49 2.016c-.157.09-.33.134-.493.134zM56.25 47.277c-.168 0-.336-.043-.492-.132l-3.492-2.016c-.473-.275-.633-.876-.36-1.35.274-.47.88-.632 1.348-.358l3.492 2.016c.473.273.633.874.36 1.347-.184.313-.516.492-.856.492zM20.12 47.273c-.34 0-.67-.175-.854-.492-.274-.47-.11-1.077.36-1.346l3.49-2.016c.474-.273 1.075-.11 1.35.36.272.472.108 1.077-.36 1.347l-3.493 2.016c-.152.094-.324.133-.492.133z"/></symbol><symbol viewBox="0 0 64 25.9" id="icon-bas-mac"><title>bas-mac</title><path fill="#CDCCCC" d="M50.7 20.4c.1 1.5 1.3 2.6 2.8 2.7l10.5.8v1H0v-1l11.4-.8c1.5-.1 2.6-1.3 2.8-2.7L16 0h33l1.7 20.4z"/><path fill="#E0E0E0" d="M0 24.9h64v1H0z"/></symbol><symbol viewBox="0 0 18.679 34.361" id="icon-big-arrow"><title>big-arrow</title><path opacity=".5" fill="#FFF" d="M.442 33.92c.293.294.676.442 1.058.442.383 0 .766-.144 1.06-.44l15.68-15.685c.585-.586.585-1.535 0-2.12L2.562.44c-.586-.586-1.535-.586-2.12 0-.587.586-.587 1.536 0 2.12L15.06 17.18.442 31.795c-.59.59-.59 1.535 0 2.125z"/></symbol><symbol viewBox="0 0 75 75" id="icon-contact"><title>contact</title><path d="M17.223 42.348v10.507c0 .247-.196.39-.395.39-.137 0-.277-.07-.348-.225L8.238 35.47c-.836-1.798-1.488-3.517-1.488-5.466 0-7.777 7.637-13.38 17.06-13.38 1.405 0 2.764.138 4.073.388 1.074-.805 2.226-1.532 3.44-2.188-2.323-.77-4.858-1.2-7.514-1.2-11.435 0-20.06 7.044-20.06 16.38 0 2.566.848 4.75 1.773 6.738l8.24 17.56c.56 1.202 1.737 1.948 3.06 1.948 1.872 0 3.396-1.523 3.396-3.39v-6.735c1.12.164 2.26.246 3.417.254-.817-.993-1.54-2.04-2.164-3.134-1.48-.16-2.914-.457-4.25-.898z"/><path d="M46.203 13.418c-13.812 0-25.047 9.102-25.047 20.293 0 11.188 11.235 20.294 25.047 20.294 1.87 0 3.715-.164 5.516-.492v9.734c0 1.934 1.573 3.508 3.51 3.508 1.372 0 2.582-.774 3.168-2.016L69.05 42.035c1.14-2.465 2.2-5.18 2.2-8.328 0-5.758-2.71-11.012-7.63-14.793-4.612-3.547-10.796-5.496-17.417-5.496zm0 3c12.176 0 22.047 7.238 22.047 17.29 0 2.515-.844 4.737-1.922 7.058L55.68 63.46c-.094.2-.274.29-.45.29-.257 0-.51-.188-.51-.508V49.664c-2.622.86-5.497 1.34-8.517 1.34-12.176 0-22.047-7.742-22.047-17.293s9.87-17.292 22.047-17.292"/></symbol><symbol viewBox="0 0 32.824 29.164" id="icon-contexte"><title>contexte</title><path d="M23.703 8.887H8.64c-.62 0-1.124-.504-1.124-1.125S8.02 6.637 8.64 6.637h15.063c.62 0 1.125.504 1.125 1.125s-.504 1.125-1.125 1.125zM23.703 13.387H8.64c-.62 0-1.124-.504-1.124-1.125s.503-1.125 1.125-1.125h15.063c.62 0 1.125.504 1.125 1.125s-.504 1.125-1.125 1.125zM16.203 17.887H8.64c-.62 0-1.124-.504-1.124-1.125s.503-1.125 1.125-1.125h7.563c.62 0 1.125.504 1.125 1.125s-.504 1.125-1.125 1.125z"/><path d="M6.168 2.25c-2.16 0-3.914 1.758-3.914 3.914V25.41l3.137-2.992c.21-.2.49-.312.778-.312h20.496c2.16 0 3.914-1.754 3.914-3.914V6.164c0-2.16-1.758-3.914-3.914-3.914H6.168zM1.125 29.164c-.148 0-.3-.03-.44-.09C.268 28.9 0 28.492 0 28.04V6.163C0 2.766 2.766 0 6.164 0H26.66c3.4 0 6.164 2.766 6.164 6.164v12.028c0 3.398-2.765 6.164-6.164 6.164H6.617l-4.715 4.496c-.21.207-.492.312-.777.312z"/></symbol><symbol viewBox="0 0 72.172 60.137" id="icon-couleurs"><title>couleurs</title><path d="M41.934 48.625l-.06-.097.28-.48.065-.095-.005-.015 18.946-32.82 8.555 10.195-27.78 23.312zm-13.484 9L2.512 12.7l11.84-6.836L39.13 48.778l-.036.21.2.075.995 1.726-11.84 6.835zm3.46-55.21l7.32 41.523L19.244 9.32l-.797-4.535 13.465-2.37zM46.857 4.94l-.078.437-6.032 34.206-5.472-31.043-1.028-5.82 12.61 2.22zm10.62 12.062L42.415 43.098 48.8 6.856l10.903 6.293-2.226 3.854zm4.325-5.242L49.216 4.496l.047-.273-.914-1.305L33.05.223l-.046.047L32.62 0 16.943 2.766l-.914 1.305.054.305-.35-.61-1.536-.41L.414 11.314 0 12.848l27.063 46.875 1.54.414 13.788-7.96.345-1.286 29.297-24.585.14-1.586L62.04 12.652l-.24-.89z"/><path d="M31.297 48.887c-.734.422-1.742.145-2.164-.578-.437-.755-.176-1.728.578-2.16.243-.142.513-.212.79-.212.567 0 1.09.3 1.37.79.443.753.18 1.72-.573 2.16zm-.793-5.203c-.668 0-1.332.176-1.914.515-1.828 1.054-2.457 3.402-1.402 5.234.683 1.183 1.957 1.914 3.324 1.914.668 0 1.328-.176 1.914-.516 1.828-1.058 2.457-3.406 1.403-5.234-.69-1.18-1.96-1.914-3.326-1.914z"/></symbol><symbol viewBox="0 0 30 26.25" id="icon-date"><title>date</title><path d="M3.043 3.75c-.644 0-1.167.523-1.167 1.167v18.286c0 .648.523 1.17 1.167 1.17h23.91c.65 0 1.173-.522 1.173-1.166V4.917c0-.644-.524-1.167-1.168-1.167H3.043zm23.915 22.5H3.043C1.368 26.25 0 24.882 0 23.207V4.917c0-1.675 1.368-3.043 3.043-3.043h23.91c1.68 0 3.047 1.368 3.047 3.043v18.286c0 1.68-1.367 3.047-3.042 3.047z"/><path d="M.938 7.5h28.125v1.875H.938zM4.688 0h1.875v5.625H4.688zM8.438 0h1.875v5.625H8.438zM19.688 0h1.875v5.625h-1.875zM23.438 0h1.875v5.625h-1.875z"/></symbol><symbol viewBox="0 0 55.406 55.483" id="icon-lien"><title>lien</title><path d="M49.182 21.807L36.96 34.034c-3.9 3.898-10.125 4.273-14.4.976l2.853-2.85c1.05.675 2.324 1.05 3.6 1.05h.525c1.95-.15 3.976-1.05 5.55-2.625L45.663 20.01c1.8-1.8 2.773-3.75 2.85-5.7.075-1.948-.75-3.75-2.323-5.397-1.273-1.274-3.227-2.024-5.25-2.024-2.176 0-4.273.898-5.852 2.476l-1.5 1.5c-1.125-.45-2.324-.824-3.45-1.05l3.603-3.603c4.274-4.273 11.25-4.273 15.524 0 4.196 4.344 4.196 11.32-.082 15.594zm2.176-17.7c-5.477-5.476-14.324-5.476-19.8 0L26.005 9.66c-.074.073-.074.073-.074.147-.3.3-.523.676-.523 1.125 0 .824.675 1.5 1.5 1.5 2.1 0 4.272.524 6.374 1.574.226.075.45.15.676.15.45 0 .898-.228 1.2-.603.073-.074.147-.074.147-.148l1.95-1.95c1.05-1.05 2.324-1.574 3.75-1.648 1.2 0 2.398.375 3.074 1.125.977.977 1.5 2.102 1.5 3.15 0 1.198-.675 2.397-1.95 3.674L32.91 28.41c-1.052 1.05-2.325 1.725-3.603 1.8-1.125.074-2.25-.3-3-1.05-.3-.302-.676-.45-1.05-.45s-.75.148-1.05.45l-4.876 4.874c-.3.3-.45.676-.45 1.05s.15.75.45 1.05c2.626 2.626 6.15 4.052 9.9 4.052s7.273-1.426 9.898-4.05l12.226-12.227c5.402-5.404 5.402-14.325.004-19.802z"/><path d="M32.91 20.46l-2.853 2.773c-2.85-1.8-6.824-1.2-9.676 1.648L9.808 35.535c-1.8 1.8-2.773 3.75-2.85 5.7-.076 1.948.75 3.75 2.323 5.397 1.273 1.275 3.148 2.025 5.176 2.025 2.023 0 4.2-.75 5.925-2.477l1.5-1.5c1.126.45 2.326.825 3.45 1.05l-3.6 3.603c-4.274 4.274-11.25 4.274-15.524 0-4.274-4.273-4.274-11.25 0-15.523L18.432 21.58c3.977-4.046 10.125-4.42 14.477-1.12zM4.107 31.557c-5.477 5.477-5.477 14.324 0 19.8 2.7 2.7 6.3 4.126 9.898 4.126 3.602 0 7.2-1.352 9.9-4.125l5.55-5.55c.074-.075.074-.075.074-.15.3-.3.523-.675.523-1.124 0-.824-.675-1.5-1.5-1.5-2.1 0-4.273-.524-6.375-1.574-.675-.3-1.425-.075-1.875.45.078 0 .004.073-.07.073l-1.95 1.95c-2.175 2.175-5.323 1.948-6.823.448-.977-.975-1.5-2.1-1.5-3.147 0-1.2.675-2.398 1.95-3.676l10.573-10.574c2.102-2.102 4.95-2.398 6.602-.676.074.074.148.15.226.15 0 0 .075 0 .075.073.227.148.524.226.75.226.227 0 .375 0 .602-.074.074 0 .148-.074.226-.148l.227-.227 4.875-4.875c.602-.6.602-1.5 0-2.1-5.477-5.478-14.324-5.478-19.8 0L4.107 31.556z"/></symbol><symbol viewBox="0 0 75 75" id="icon-methode"><title>methode</title><path fill-rule="evenodd" clip-rule="evenodd" d="M37.5 12.305l4.7 7.047h-9.395l4.695-7.047zm0-5.41l-1.246 1.87L27.2 22.35h20.605L37.5 6.898v-.003zM57.605 54.602h10.5v10.5h-10.5v-10.5zm-3-3v16.5h16.5v-16.5h-16.5z"/><path d="M12.895 53.102c-3.333 0-6 2.668-6 6s2.667 6 6 6c3.332 0 6-2.668 6-6s-2.668-6-6-6zm0-3c4.953 0 9 4.046 9 9 0 4.953-4.047 9-9 9-4.954 0-9-4.047-9-9 0-4.954 4.046-9 9-9z"/><path fill-rule="evenodd" clip-rule="evenodd" d="M31.848 53.84c-.39.012-.762.172-1.032.453L27.2 57.906c-.79.598-.794 1.782-.012 2.383l.003.003 3.626 3.62c1.414 1.33 3.45-.71 2.118-2.12l-1.188-1.19h15.13c.84.018 1.534-.658 1.534-1.5 0-.84-.695-1.52-1.535-1.5h-15.13l1.19-1.19c.98-.952.276-2.612-1.087-2.573zM23.75 28.254c-1.82.363-3.7.95-5.535 1.44-1.965.5-1.172 3.45.777 2.9l1.625-.438-7.566 13.102c-1.073 1.75 1.618 3.304 2.598 1.5l7.567-13.102.433 1.625c.516 1.935 3.418 1.158 2.9-.776l-1.33-4.953c-.1-.738-.726-1.292-1.468-1.3v.004zM49.84 28.254c-1.137.043-1.813 1.29-1.23 2.266l7.562 13.1-1.625-.432c-1.934-.516-2.707 2.382-.777 2.898l5.12 1.37c.755.204 1.672-.436 1.837-1.06l1.37-5.126c.25-.934-.406-1.864-1.37-1.907-.71-.035-1.352.438-1.524 1.133l-.433 1.625-7.563-13.1c-.273-.493-.805-.79-1.367-.766z"/></symbol><symbol viewBox="0 0 75 75" id="icon-poigneemain"><title>poigneemain</title><path d="M52.352 55.273c-.977 0-1.95-.3-2.852-.824L39.227 47.7c-.75-.524-.977-1.575-.45-2.325.524-.75 1.575-.977 2.325-.45l10.2 6.75c.675.45 1.647.376 2.323-.226.676-.602 1.727-.602 2.398.148.602.675.602 1.726-.148 2.398-.977.828-2.25 1.277-3.523 1.277zM45.676 60.375c-.977 0-1.95-.227-2.774-.824l-6.074-3.976c-.75-.523-.976-1.574-.523-2.324.523-.75 1.574-.977 2.324-.523l6.073 3.976c.9.524 2.102.3 2.625-.6.524-.826 1.574-1.052 2.324-.525.825.524 1.05 1.574.524 2.324-.977 1.575-2.7 2.473-4.5 2.473zM59.023 50.023c-1.5 0-3.226-.523-5.175-1.726l-9.602-6.375c-.75-.524-.976-1.574-.45-2.324.524-.75 1.575-.977 2.325-.45l9.525 6.375c1.425.825 3.976 2.102 5.324.227.823-1.2.675-2.852.147-3.3-.75-.602-.898-1.65-.3-2.4.6-.75 1.648-.898 2.398-.3 2.1 1.648 2.398 5.324.6 7.875-1.042 1.352-2.616 2.398-4.792 2.398z"/><path d="M60 42.75c-.3 0-.602-.074-.898-.3l-12-7.575c-.45-.3-3.977-2.398-5.55-6-1.95.602-3.9 1.2-6.075 2.023l-.227.075c-2.324.824-6.75 2.476-9.3-.45-1.352-1.574-1.876-3.074-1.575-4.648.602-2.852 3.75-4.426 6.3-5.7.524-.226.977-.448 1.352-.675l.524-.3c1.876-1.052 3.825-2.177 5.626-3.376 4.05-2.7 8.55-.148 8.773-.074 0 0 .073 0 .073.074 0 0 3.825 2.477 7.2 4.05 2.25 1.052 4.726.376 7.425-.374.602-.148 1.125-.3 1.727-.45.898-.226 1.8.302 2.023 1.274.227.9-.3 1.8-1.273 2.024-.523.148-1.05.3-1.648.45-3 .823-6.375 1.725-9.75.147-3.375-1.574-7.05-3.898-7.575-4.273-.3-.15-3-1.5-5.175-.074-1.875 1.273-3.9 2.398-5.852 3.45l-.45.3c-.448.226-.976.523-1.5.75-1.726.824-4.273 2.1-4.5 3.375-.148.6.376 1.273.825 1.8.977 1.125 3.977.075 5.55-.523l.227-.074c2.852-1.05 5.4-1.875 7.875-2.55.45-.15.9-.075 1.352.147.375.227.676.602.75 1.05.75 3.376 4.5 5.478 4.5 5.552 0 0 .074 0 .074.074l11.4 7.198L66 37.574c.898-.226 1.8.3 2.102 1.2.226.898-.3 1.8-1.2 2.1l-6.45 1.802c-.15.074-.304.074-.452.074zM26.324 45.824c-.898 0-1.273.375-1.35.45-.603.6-.603 1.574-.603 1.574v3.45c0 1.874 1.275 2.175 2.025 2.25.824 0 1.8-.376 1.8-2.25v-3.45c-.07-.746-.297-2.024-1.87-2.024zm0 11.102c-2.176 0-5.398-1.5-5.398-5.625v-3.448c0-.227 0-2.4 1.574-3.977.676-.676 1.875-1.426 3.75-1.426 1.426 0 2.7.448 3.602 1.425 1.574 1.574 1.574 3.75 1.574 4.05v3.45c0 2.176-.824 3.45-1.574 4.125-1.278 1.352-3.08 1.426-3.528 1.426z"/><path d="M19.125 43.426c-.898 0-1.273.375-1.352.45-.6.6-.6 1.573-.6 1.573v1.273c0 2.023 1.5 2.25 1.948 2.25.825 0 1.802-.375 1.802-2.25V45.45c.078-.75-.223-2.024-1.797-2.024zm.074 8.926c-.075 0-.075 0 0 0-2.177 0-5.4-1.5-5.4-5.625v-1.274c0-.226 0-2.398 1.575-3.976.676-.676 1.875-1.426 3.75-1.426 1.426 0 2.7.45 3.602 1.427 1.574 1.574 1.574 3.75 1.574 4.05V46.8c0 2.177-.823 3.45-1.573 4.126-1.352 1.347-3.153 1.426-3.528 1.426zM33.523 48.898c-.898 0-1.273.375-1.35.45-.603.6-.603 1.574-.603 1.574v2.625c0 1.875 1.274 2.176 2.024 2.25.824 0 1.8-.375 1.8-2.25V51c-.07-.75-.292-2.102-1.87-2.102zm0 10.278s-.074 0 0 0c-2.175 0-5.398-1.5-5.398-5.625V51c0-.227 0-2.398 1.574-3.977.675-.675 1.874-1.425 3.75-1.425 1.425 0 2.698.45 3.6 1.425 1.575 1.575 1.575 3.75 1.575 4.05V53.7c0 2.175-.824 3.448-1.574 4.124-1.277 1.278-3.073 1.352-3.527 1.352zM21.824 24.148c-.148 0-.375 0-.523-.074 0 0-3.448-1.125-5.25-1.726-.898-.3-1.35-1.274-1.05-2.102.3-.898 1.273-1.35 2.102-1.05 1.35.45 3.75 1.273 4.8 1.574l11.774-2.55c.898-.228 1.8.374 2.023 1.272.226.9-.376 1.8-1.274 2.024L22.2 24.14c-.075.008-.223.008-.376.008z"/><path d="M15.45 44.477c-.302 0-.602-.075-.9-.3l-6.976-4.5c-.75-.525-.976-1.575-.523-2.325.45-.75 1.575-.977 2.325-.524l6.977 4.5c.75.524.976 1.574.523 2.324-.3.524-.824.825-1.426.825z"/></symbol><symbol viewBox="0 0 75 75" id="icon-portfolio"><title>portfolio</title><path d="M16.875 38.438h10.313v-9.376H16.875v9.376zm12.187 1.874H15V27.188h14.062v13.124zM32.812 38.438h10.313v-9.376H32.812v9.376zM45 40.312H30.938V27.188H45v13.124zM48.75 38.438h10.312v-9.376H48.75v9.376zm12.188 1.874H46.875V27.188h14.063v13.124zM16.875 53.438h10.313v-9.376H16.875v9.376zm12.187 1.874H15V42.188h14.062v13.124zM32.812 53.438h10.313v-9.376H32.812v9.376zM45 55.312H30.938V42.188H45v13.124zM48.75 53.438h10.312v-9.376H48.75v9.376zm12.188 1.874H46.875V42.188h14.063v13.124z"/><path d="M10.312 15.938c-.562 0-.937.374-.937.937v41.25c0 .563.375.937.937.937h55.313c.563 0 .937-.374.937-.937v-41.25c0-.563-.374-.937-.937-.937H10.312zm55.313 45H10.312c-1.593 0-2.812-1.22-2.812-2.813v-41.25c0-1.594 1.22-2.813 2.812-2.813h55.313c1.594 0 2.813 1.22 2.813 2.813v41.25c0 1.594-1.22 2.813-2.813 2.813z"/><path d="M8.438 21.562h58.125v1.875H8.438zM13.125 17.812H15v1.875h-1.875zM16.875 17.812h1.875v1.875h-1.875zM20.625 17.812H22.5v1.875h-1.875z"/></symbol><symbol viewBox="0 0 75 75" id="icon-pouce"><title>pouce</title><path d="M65.55 48.38c-.57.597-.68 1.487-.25 2.194.255.43 2.333 4.305-2.08 7.62-.642.482-.9 1.306-.63 2.06.027.082.66 2.016-.422 3.906-1 1.754-3.176 3-6.47 3.7-2.64.562-6.21.667-10.608.32-.063-.004-.12-.008-.184-.004-9.14.195-18.38-.97-18.844-1.028l-1.628-.25c.1-.43.156-.875.156-1.336V42.008c0-.625-.102-1.227-.28-1.793.272-1.035 1.014-3.215 2.737-5.07C33.523 30.015 39.89 12.62 40.16 11.88c.106-.29.137-.603.086-.903-.266-1.71-.137-3.84.25-4.352.723.008 2.942.184 4.266 2.016 1.508 2.087 1.453 5.77-.157 10.657-2.41 7.32-2.636 11.156-.753 12.828.92.82 2.144.867 3.035.54.886-.204 1.738-.376 2.543-.517.058-.01.117-.023.175-.04 3.08-.67 12.165-1.874 15.305.994 2.426 2.214.715 5.136.52 5.453-.48.746-.344 1.738.312 2.34.016.015 1.602 1.492 1.664 3.503.043 1.31-.582 2.65-1.855 3.98zM9.845 67.815c-1.242 0-2.25-1.01-2.25-2.25V42.008c0-1.242 1.01-2.25 2.25-2.25h8.847c.787 0 1.478.406 1.88 1.015.043.31.153.602.332.848.024.13.04.26.04.392v23.554c0 1.243-1.012 2.25-2.25 2.25H9.843zM71.05 44.223c-.085-2.184-1.097-3.922-1.898-4.96.953-2.314 1.356-5.99-1.78-8.853-5.138-4.695-17.286-2.148-18.653-1.84-.005 0-.013.004-.017.004-.773.137-1.59.3-2.43.492-.093-.85-.007-3.14 1.8-8.625 2.02-6.13 1.904-10.82-.35-13.936-2.368-3.274-6.16-3.527-7.266-3.527-1.07 0-2 .425-2.69 1.234-1.59 1.856-1.36 5.407-1.19 6.85-1.9 5.12-7.292 17.772-11.87 21.288-.074.058-.145.12-.21.187-1.368 1.438-2.274 3.012-2.872 4.363-.867-.496-1.867-.79-2.934-.79H9.845c-3.254 0-5.903 2.65-5.903 5.904v23.554c0 3.254 2.65 5.903 5.904 5.903h8.847c1.34 0 2.572-.454 3.564-1.208l3.29.5c.01 0 .026.004.038.004.395.05 9.738 1.254 19.32 1.058 1.727.133 3.348.203 4.848.203 2.59 0 4.84-.2 6.715-.597 4.39-.934 7.394-2.797 8.918-5.535 1.18-2.118 1.152-4.235.957-5.543 3.945-3.55 3.7-7.813 2.69-10.418 1.423-1.805 2.1-3.723 2.02-5.71z"/></symbol><symbol viewBox="0 0 100 100" id="icon-svgs"><title>ampoule</title><symbol viewBox="0 0 75 75" id="svgs-icon-ampoule"><path d="M37.965 24.98c-4.465 0-7.762 1.868-9.285 5.258-1.735 3.867-.797 8.832 2.34 12.356 2.414 2.715 3.12 5.312 3.5 6.703l.062.23c1.305-.332 4.227-1.113 6.406-1.703.317-.922 1.29-2.277 3.918-5.23 3.137-3.524 4.078-8.49 2.34-12.356-1.516-3.39-4.812-5.258-9.28-5.258zm-3.887 26.672h-.047c-.925-.043-1.163-.91-1.413-1.832-.36-1.324-.965-3.543-3.07-5.91-3.645-4.098-4.715-9.914-2.668-14.476 1.83-4.082 5.874-6.422 11.085-6.422s9.254 2.34 11.086 6.422c2.048 4.562.977 10.378-2.667 14.476-2.36 2.652-3.555 4.238-3.555 4.71 0 .446-.297.837-.73.954-7.598 2.06-7.852 2.078-8.02 2.078zM37.72 61.977c-.443 0-.845-.297-.958-.743-.133-.527.183-1.066.715-1.2l4.882-1.24c.527-.134 1.066.183 1.2.714.13.527-.185 1.066-.716 1.2l-4.883 1.24c-.077.017-.163.03-.24.03zM33.906 57.438c-.437 0-.84-.297-.953-.74-.137-.526.18-1.065.707-1.202l8.7-2.258c.53-.14 1.066.18 1.202.707.137.528-.18 1.067-.707 1.203l-8.7 2.258c-.085.02-.17.032-.25.032zM33.906 60.25c-.437 0-.84-.297-.953-.738-.137-.528.18-1.067.707-1.203l8.7-2.26c.53-.14 1.066.18 1.202.708.137.527-.18 1.066-.707 1.203l-8.7 2.26c-.085.018-.17.03-.25.03zM33.906 54.625c-.437 0-.84-.297-.953-.738-.137-.528.18-1.067.707-1.203l8.7-2.258c.53-.14 1.066.18 1.202.707.137.527-.18 1.066-.707 1.203l-8.7 2.258c-.085.02-.17.03-.25.03zM21.36 36.844h-4.032c-.547 0-.988-.442-.988-.99 0-.545.44-.987.988-.987h4.03c.548 0 .99.442.99.988 0 .543-.446.99-.99.99zM23.61 28.434c-.17 0-.337-.043-.493-.133l-3.492-2.015c-.473-.273-.633-.875-.36-1.347.274-.473.88-.633 1.348-.36l3.492 2.016c.473.273.633.875.36 1.347-.18.314-.512.494-.856.494zM29.773 22.273c-.34 0-.67-.175-.855-.492l-2.016-3.49c-.273-.474-.11-1.08.36-1.35.472-.272 1.074-.108 1.347.36l2.015 3.493c.273.473.11 1.078-.36 1.348-.156.09-.324.133-.492.133zM38.184 20.016c-.547 0-.99-.442-.99-.99V15c0-.547.443-.988.99-.988.543 0 .988.44.988.988v4.03c0 .544-.442.986-.988.986zM46.598 22.273c-.168 0-.336-.043-.493-.132-.472-.273-.632-.874-.36-1.347l2.017-3.492c.273-.472.88-.632 1.347-.36.472.275.632.876.36 1.35l-2.017 3.49c-.183.318-.512.493-.855.493zM52.762 28.434c-.34 0-.672-.176-.856-.493-.273-.47-.11-1.077.36-1.346l3.492-2.016c.47-.273 1.074-.11 1.347.36.274.472.11 1.078-.36 1.347l-3.49 2.016c-.157.09-.33.134-.493.134zM56.25 47.277c-.168 0-.336-.043-.492-.132l-3.492-2.016c-.473-.275-.633-.876-.36-1.35.274-.47.88-.632 1.348-.358l3.492 2.016c.473.273.633.874.36 1.347-.184.313-.516.492-.856.492zM20.12 47.273c-.34 0-.67-.175-.854-.492-.274-.47-.11-1.077.36-1.346l3.49-2.016c.474-.273 1.075-.11 1.35.36.272.472.108 1.077-.36 1.347l-3.493 2.016c-.152.094-.324.133-.492.133z"/></symbol><symbol viewBox="0 0 64 25.9" id="svgs-icon-bas-mac"><path fill="#CDCCCC" d="M50.7 20.4c.1 1.5 1.3 2.6 2.8 2.7l10.5.8v1H0v-1l11.4-.8c1.5-.1 2.6-1.3 2.8-2.7L16 0h33l1.7 20.4z"/><path fill="#E0E0E0" d="M0 24.9h64v1H0z"/></symbol><symbol viewBox="0 0 18.679 34.361" id="svgs-icon-big-arrow"><path opacity=".5" fill="#FFF" d="M.442 33.92c.293.294.676.442 1.058.442.383 0 .766-.144 1.06-.44l15.68-15.685c.585-.586.585-1.535 0-2.12L2.562.44c-.586-.586-1.535-.586-2.12 0-.587.586-.587 1.536 0 2.12L15.06 17.18.442 31.795c-.59.59-.59 1.535 0 2.125z"/></symbol><symbol viewBox="0 0 75 75" id="svgs-icon-contact"><path d="M17.223 42.348v10.507c0 .247-.196.39-.395.39-.137 0-.277-.07-.348-.225L8.238 35.47c-.836-1.798-1.488-3.517-1.488-5.466 0-7.777 7.637-13.38 17.06-13.38 1.405 0 2.764.138 4.073.388 1.074-.805 2.226-1.532 3.44-2.188-2.323-.77-4.858-1.2-7.514-1.2-11.435 0-20.06 7.044-20.06 16.38 0 2.566.848 4.75 1.773 6.738l8.24 17.56c.56 1.202 1.737 1.948 3.06 1.948 1.872 0 3.396-1.523 3.396-3.39v-6.735c1.12.164 2.26.246 3.417.254-.817-.993-1.54-2.04-2.164-3.134-1.48-.16-2.914-.457-4.25-.898z"/><path d="M46.203 13.418c-13.812 0-25.047 9.102-25.047 20.293 0 11.188 11.235 20.294 25.047 20.294 1.87 0 3.715-.164 5.516-.492v9.734c0 1.934 1.573 3.508 3.51 3.508 1.372 0 2.582-.774 3.168-2.016L69.05 42.035c1.14-2.465 2.2-5.18 2.2-8.328 0-5.758-2.71-11.012-7.63-14.793-4.612-3.547-10.796-5.496-17.417-5.496zm0 3c12.176 0 22.047 7.238 22.047 17.29 0 2.515-.844 4.737-1.922 7.058L55.68 63.46c-.094.2-.274.29-.45.29-.257 0-.51-.188-.51-.508V49.664c-2.622.86-5.497 1.34-8.517 1.34-12.176 0-22.047-7.742-22.047-17.293s9.87-17.292 22.047-17.292"/></symbol><symbol viewBox="0 0 32.824 29.164" id="svgs-icon-contexte"><path d="M23.703 8.887H8.64c-.62 0-1.124-.504-1.124-1.125S8.02 6.637 8.64 6.637h15.063c.62 0 1.125.504 1.125 1.125s-.504 1.125-1.125 1.125zM23.703 13.387H8.64c-.62 0-1.124-.504-1.124-1.125s.503-1.125 1.125-1.125h15.063c.62 0 1.125.504 1.125 1.125s-.504 1.125-1.125 1.125zM16.203 17.887H8.64c-.62 0-1.124-.504-1.124-1.125s.503-1.125 1.125-1.125h7.563c.62 0 1.125.504 1.125 1.125s-.504 1.125-1.125 1.125z"/><path d="M6.168 2.25c-2.16 0-3.914 1.758-3.914 3.914V25.41l3.137-2.992c.21-.2.49-.312.778-.312h20.496c2.16 0 3.914-1.754 3.914-3.914V6.164c0-2.16-1.758-3.914-3.914-3.914H6.168zM1.125 29.164c-.148 0-.3-.03-.44-.09C.268 28.9 0 28.492 0 28.04V6.163C0 2.766 2.766 0 6.164 0H26.66c3.4 0 6.164 2.766 6.164 6.164v12.028c0 3.398-2.765 6.164-6.164 6.164H6.617l-4.715 4.496c-.21.207-.492.312-.777.312z"/></symbol><symbol viewBox="0 0 72.172 60.137" id="svgs-icon-couleurs"><path d="M41.934 48.625l-.06-.097.28-.48.065-.095-.005-.015 18.946-32.82 8.555 10.195-27.78 23.312zm-13.484 9L2.512 12.7l11.84-6.836L39.13 48.778l-.036.21.2.075.995 1.726-11.84 6.835zm3.46-55.21l7.32 41.523L19.244 9.32l-.797-4.535 13.465-2.37zM46.857 4.94l-.078.437-6.032 34.206-5.472-31.043-1.028-5.82 12.61 2.22zm10.62 12.062L42.415 43.098 48.8 6.856l10.903 6.293-2.226 3.854zm4.325-5.242L49.216 4.496l.047-.273-.914-1.305L33.05.223l-.046.047L32.62 0 16.943 2.766l-.914 1.305.054.305-.35-.61-1.536-.41L.414 11.314 0 12.848l27.063 46.875 1.54.414 13.788-7.96.345-1.286 29.297-24.585.14-1.586L62.04 12.652l-.24-.89z"/><path d="M31.297 48.887c-.734.422-1.742.145-2.164-.578-.437-.755-.176-1.728.578-2.16.243-.142.513-.212.79-.212.567 0 1.09.3 1.37.79.443.753.18 1.72-.573 2.16zm-.793-5.203c-.668 0-1.332.176-1.914.515-1.828 1.054-2.457 3.402-1.402 5.234.683 1.183 1.957 1.914 3.324 1.914.668 0 1.328-.176 1.914-.516 1.828-1.058 2.457-3.406 1.403-5.234-.69-1.18-1.96-1.914-3.326-1.914z"/></symbol><symbol viewBox="0 0 30 26.25" id="svgs-icon-date"><path d="M3.043 3.75c-.644 0-1.167.523-1.167 1.167v18.286c0 .648.523 1.17 1.167 1.17h23.91c.65 0 1.173-.522 1.173-1.166V4.917c0-.644-.524-1.167-1.168-1.167H3.043zm23.915 22.5H3.043C1.368 26.25 0 24.882 0 23.207V4.917c0-1.675 1.368-3.043 3.043-3.043h23.91c1.68 0 3.047 1.368 3.047 3.043v18.286c0 1.68-1.367 3.047-3.042 3.047z"/><path d="M.938 7.5h28.125v1.875H.938zM4.688 0h1.875v5.625H4.688zM8.438 0h1.875v5.625H8.438zM19.688 0h1.875v5.625h-1.875zM23.438 0h1.875v5.625h-1.875z"/></symbol><symbol viewBox="0 0 55.406 55.483" id="svgs-icon-lien"><path d="M49.182 21.807L36.96 34.034c-3.9 3.898-10.125 4.273-14.4.976l2.853-2.85c1.05.675 2.324 1.05 3.6 1.05h.525c1.95-.15 3.976-1.05 5.55-2.625L45.663 20.01c1.8-1.8 2.773-3.75 2.85-5.7.075-1.948-.75-3.75-2.323-5.397-1.273-1.274-3.227-2.024-5.25-2.024-2.176 0-4.273.898-5.852 2.476l-1.5 1.5c-1.125-.45-2.324-.824-3.45-1.05l3.603-3.603c4.274-4.273 11.25-4.273 15.524 0 4.196 4.344 4.196 11.32-.082 15.594zm2.176-17.7c-5.477-5.476-14.324-5.476-19.8 0L26.005 9.66c-.074.073-.074.073-.074.147-.3.3-.523.676-.523 1.125 0 .824.675 1.5 1.5 1.5 2.1 0 4.272.524 6.374 1.574.226.075.45.15.676.15.45 0 .898-.228 1.2-.603.073-.074.147-.074.147-.148l1.95-1.95c1.05-1.05 2.324-1.574 3.75-1.648 1.2 0 2.398.375 3.074 1.125.977.977 1.5 2.102 1.5 3.15 0 1.198-.675 2.397-1.95 3.674L32.91 28.41c-1.052 1.05-2.325 1.725-3.603 1.8-1.125.074-2.25-.3-3-1.05-.3-.302-.676-.45-1.05-.45s-.75.148-1.05.45l-4.876 4.874c-.3.3-.45.676-.45 1.05s.15.75.45 1.05c2.626 2.626 6.15 4.052 9.9 4.052s7.273-1.426 9.898-4.05l12.226-12.227c5.402-5.404 5.402-14.325.004-19.802z"/><path d="M32.91 20.46l-2.853 2.773c-2.85-1.8-6.824-1.2-9.676 1.648L9.808 35.535c-1.8 1.8-2.773 3.75-2.85 5.7-.076 1.948.75 3.75 2.323 5.397 1.273 1.275 3.148 2.025 5.176 2.025 2.023 0 4.2-.75 5.925-2.477l1.5-1.5c1.126.45 2.326.825 3.45 1.05l-3.6 3.603c-4.274 4.274-11.25 4.274-15.524 0-4.274-4.273-4.274-11.25 0-15.523L18.432 21.58c3.977-4.046 10.125-4.42 14.477-1.12zM4.107 31.557c-5.477 5.477-5.477 14.324 0 19.8 2.7 2.7 6.3 4.126 9.898 4.126 3.602 0 7.2-1.352 9.9-4.125l5.55-5.55c.074-.075.074-.075.074-.15.3-.3.523-.675.523-1.124 0-.824-.675-1.5-1.5-1.5-2.1 0-4.273-.524-6.375-1.574-.675-.3-1.425-.075-1.875.45.078 0 .004.073-.07.073l-1.95 1.95c-2.175 2.175-5.323 1.948-6.823.448-.977-.975-1.5-2.1-1.5-3.147 0-1.2.675-2.398 1.95-3.676l10.573-10.574c2.102-2.102 4.95-2.398 6.602-.676.074.074.148.15.226.15 0 0 .075 0 .075.073.227.148.524.226.75.226.227 0 .375 0 .602-.074.074 0 .148-.074.226-.148l.227-.227 4.875-4.875c.602-.6.602-1.5 0-2.1-5.477-5.478-14.324-5.478-19.8 0L4.107 31.556z"/></symbol><symbol viewBox="0 0 75 75" id="svgs-icon-methode"><path fill-rule="evenodd" clip-rule="evenodd" d="M37.5 12.305l4.7 7.047h-9.395l4.695-7.047zm0-5.41l-1.246 1.87L27.2 22.35h20.605L37.5 6.898v-.003zM57.605 54.602h10.5v10.5h-10.5v-10.5zm-3-3v16.5h16.5v-16.5h-16.5z"/><path d="M12.895 53.102c-3.333 0-6 2.668-6 6s2.667 6 6 6c3.332 0 6-2.668 6-6s-2.668-6-6-6zm0-3c4.953 0 9 4.046 9 9 0 4.953-4.047 9-9 9-4.954 0-9-4.047-9-9 0-4.954 4.046-9 9-9z"/><path fill-rule="evenodd" clip-rule="evenodd" d="M31.848 53.84c-.39.012-.762.172-1.032.453L27.2 57.906c-.79.598-.794 1.782-.012 2.383l.003.003 3.626 3.62c1.414 1.33 3.45-.71 2.118-2.12l-1.188-1.19h15.13c.84.018 1.534-.658 1.534-1.5 0-.84-.695-1.52-1.535-1.5h-15.13l1.19-1.19c.98-.952.276-2.612-1.087-2.573zM23.75 28.254c-1.82.363-3.7.95-5.535 1.44-1.965.5-1.172 3.45.777 2.9l1.625-.438-7.566 13.102c-1.073 1.75 1.618 3.304 2.598 1.5l7.567-13.102.433 1.625c.516 1.935 3.418 1.158 2.9-.776l-1.33-4.953c-.1-.738-.726-1.292-1.468-1.3v.004zM49.84 28.254c-1.137.043-1.813 1.29-1.23 2.266l7.562 13.1-1.625-.432c-1.934-.516-2.707 2.382-.777 2.898l5.12 1.37c.755.204 1.672-.436 1.837-1.06l1.37-5.126c.25-.934-.406-1.864-1.37-1.907-.71-.035-1.352.438-1.524 1.133l-.433 1.625-7.563-13.1c-.273-.493-.805-.79-1.367-.766z"/></symbol><symbol viewBox="0 0 75 75" id="svgs-icon-poigneemain"><path d="M52.352 55.273c-.977 0-1.95-.3-2.852-.824L39.227 47.7c-.75-.524-.977-1.575-.45-2.325.524-.75 1.575-.977 2.325-.45l10.2 6.75c.675.45 1.647.376 2.323-.226.676-.602 1.727-.602 2.398.148.602.675.602 1.726-.148 2.398-.977.828-2.25 1.277-3.523 1.277zM45.676 60.375c-.977 0-1.95-.227-2.774-.824l-6.074-3.976c-.75-.523-.976-1.574-.523-2.324.523-.75 1.574-.977 2.324-.523l6.073 3.976c.9.524 2.102.3 2.625-.6.524-.826 1.574-1.052 2.324-.525.825.524 1.05 1.574.524 2.324-.977 1.575-2.7 2.473-4.5 2.473zM59.023 50.023c-1.5 0-3.226-.523-5.175-1.726l-9.602-6.375c-.75-.524-.976-1.574-.45-2.324.524-.75 1.575-.977 2.325-.45l9.525 6.375c1.425.825 3.976 2.102 5.324.227.823-1.2.675-2.852.147-3.3-.75-.602-.898-1.65-.3-2.4.6-.75 1.648-.898 2.398-.3 2.1 1.648 2.398 5.324.6 7.875-1.042 1.352-2.616 2.398-4.792 2.398z"/><path d="M60 42.75c-.3 0-.602-.074-.898-.3l-12-7.575c-.45-.3-3.977-2.398-5.55-6-1.95.602-3.9 1.2-6.075 2.023l-.227.075c-2.324.824-6.75 2.476-9.3-.45-1.352-1.574-1.876-3.074-1.575-4.648.602-2.852 3.75-4.426 6.3-5.7.524-.226.977-.448 1.352-.675l.524-.3c1.876-1.052 3.825-2.177 5.626-3.376 4.05-2.7 8.55-.148 8.773-.074 0 0 .073 0 .073.074 0 0 3.825 2.477 7.2 4.05 2.25 1.052 4.726.376 7.425-.374.602-.148 1.125-.3 1.727-.45.898-.226 1.8.302 2.023 1.274.227.9-.3 1.8-1.273 2.024-.523.148-1.05.3-1.648.45-3 .823-6.375 1.725-9.75.147-3.375-1.574-7.05-3.898-7.575-4.273-.3-.15-3-1.5-5.175-.074-1.875 1.273-3.9 2.398-5.852 3.45l-.45.3c-.448.226-.976.523-1.5.75-1.726.824-4.273 2.1-4.5 3.375-.148.6.376 1.273.825 1.8.977 1.125 3.977.075 5.55-.523l.227-.074c2.852-1.05 5.4-1.875 7.875-2.55.45-.15.9-.075 1.352.147.375.227.676.602.75 1.05.75 3.376 4.5 5.478 4.5 5.552 0 0 .074 0 .074.074l11.4 7.198L66 37.574c.898-.226 1.8.3 2.102 1.2.226.898-.3 1.8-1.2 2.1l-6.45 1.802c-.15.074-.304.074-.452.074zM26.324 45.824c-.898 0-1.273.375-1.35.45-.603.6-.603 1.574-.603 1.574v3.45c0 1.874 1.275 2.175 2.025 2.25.824 0 1.8-.376 1.8-2.25v-3.45c-.07-.746-.297-2.024-1.87-2.024zm0 11.102c-2.176 0-5.398-1.5-5.398-5.625v-3.448c0-.227 0-2.4 1.574-3.977.676-.676 1.875-1.426 3.75-1.426 1.426 0 2.7.448 3.602 1.425 1.574 1.574 1.574 3.75 1.574 4.05v3.45c0 2.176-.824 3.45-1.574 4.125-1.278 1.352-3.08 1.426-3.528 1.426z"/><path d="M19.125 43.426c-.898 0-1.273.375-1.352.45-.6.6-.6 1.573-.6 1.573v1.273c0 2.023 1.5 2.25 1.948 2.25.825 0 1.802-.375 1.802-2.25V45.45c.078-.75-.223-2.024-1.797-2.024zm.074 8.926c-.075 0-.075 0 0 0-2.177 0-5.4-1.5-5.4-5.625v-1.274c0-.226 0-2.398 1.575-3.976.676-.676 1.875-1.426 3.75-1.426 1.426 0 2.7.45 3.602 1.427 1.574 1.574 1.574 3.75 1.574 4.05V46.8c0 2.177-.823 3.45-1.573 4.126-1.352 1.347-3.153 1.426-3.528 1.426zM33.523 48.898c-.898 0-1.273.375-1.35.45-.603.6-.603 1.574-.603 1.574v2.625c0 1.875 1.274 2.176 2.024 2.25.824 0 1.8-.375 1.8-2.25V51c-.07-.75-.292-2.102-1.87-2.102zm0 10.278s-.074 0 0 0c-2.175 0-5.398-1.5-5.398-5.625V51c0-.227 0-2.398 1.574-3.977.675-.675 1.874-1.425 3.75-1.425 1.425 0 2.698.45 3.6 1.425 1.575 1.575 1.575 3.75 1.575 4.05V53.7c0 2.175-.824 3.448-1.574 4.124-1.277 1.278-3.073 1.352-3.527 1.352zM21.824 24.148c-.148 0-.375 0-.523-.074 0 0-3.448-1.125-5.25-1.726-.898-.3-1.35-1.274-1.05-2.102.3-.898 1.273-1.35 2.102-1.05 1.35.45 3.75 1.273 4.8 1.574l11.774-2.55c.898-.228 1.8.374 2.023 1.272.226.9-.376 1.8-1.274 2.024L22.2 24.14c-.075.008-.223.008-.376.008z"/><path d="M15.45 44.477c-.302 0-.602-.075-.9-.3l-6.976-4.5c-.75-.525-.976-1.575-.523-2.325.45-.75 1.575-.977 2.325-.524l6.977 4.5c.75.524.976 1.574.523 2.324-.3.524-.824.825-1.426.825z"/></symbol><symbol viewBox="0 0 75 75" id="svgs-icon-portfolio"><path d="M16.875 38.438h10.313v-9.376H16.875v9.376zm12.187 1.874H15V27.188h14.062v13.124zM32.812 38.438h10.313v-9.376H32.812v9.376zM45 40.312H30.938V27.188H45v13.124zM48.75 38.438h10.312v-9.376H48.75v9.376zm12.188 1.874H46.875V27.188h14.063v13.124zM16.875 53.438h10.313v-9.376H16.875v9.376zm12.187 1.874H15V42.188h14.062v13.124zM32.812 53.438h10.313v-9.376H32.812v9.376zM45 55.312H30.938V42.188H45v13.124zM48.75 53.438h10.312v-9.376H48.75v9.376zm12.188 1.874H46.875V42.188h14.063v13.124z"/><path d="M10.312 15.938c-.562 0-.937.374-.937.937v41.25c0 .563.375.937.937.937h55.313c.563 0 .937-.374.937-.937v-41.25c0-.563-.374-.937-.937-.937H10.312zm55.313 45H10.312c-1.593 0-2.812-1.22-2.812-2.813v-41.25c0-1.594 1.22-2.813 2.812-2.813h55.313c1.594 0 2.813 1.22 2.813 2.813v41.25c0 1.594-1.22 2.813-2.813 2.813z"/><path d="M8.438 21.562h58.125v1.875H8.438zM13.125 17.812H15v1.875h-1.875zM16.875 17.812h1.875v1.875h-1.875zM20.625 17.812H22.5v1.875h-1.875z"/></symbol><symbol viewBox="0 0 75 75" id="svgs-icon-pouce"><path d="M65.55 48.38c-.57.597-.68 1.487-.25 2.194.255.43 2.333 4.305-2.08 7.62-.642.482-.9 1.306-.63 2.06.027.082.66 2.016-.422 3.906-1 1.754-3.176 3-6.47 3.7-2.64.562-6.21.667-10.608.32-.063-.004-.12-.008-.184-.004-9.14.195-18.38-.97-18.844-1.028l-1.628-.25c.1-.43.156-.875.156-1.336V42.008c0-.625-.102-1.227-.28-1.793.272-1.035 1.014-3.215 2.737-5.07C33.523 30.015 39.89 12.62 40.16 11.88c.106-.29.137-.603.086-.903-.266-1.71-.137-3.84.25-4.352.723.008 2.942.184 4.266 2.016 1.508 2.087 1.453 5.77-.157 10.657-2.41 7.32-2.636 11.156-.753 12.828.92.82 2.144.867 3.035.54.886-.204 1.738-.376 2.543-.517.058-.01.117-.023.175-.04 3.08-.67 12.165-1.874 15.305.994 2.426 2.214.715 5.136.52 5.453-.48.746-.344 1.738.312 2.34.016.015 1.602 1.492 1.664 3.503.043 1.31-.582 2.65-1.855 3.98zM9.845 67.815c-1.242 0-2.25-1.01-2.25-2.25V42.008c0-1.242 1.01-2.25 2.25-2.25h8.847c.787 0 1.478.406 1.88 1.015.043.31.153.602.332.848.024.13.04.26.04.392v23.554c0 1.243-1.012 2.25-2.25 2.25H9.843zM71.05 44.223c-.085-2.184-1.097-3.922-1.898-4.96.953-2.314 1.356-5.99-1.78-8.853-5.138-4.695-17.286-2.148-18.653-1.84-.005 0-.013.004-.017.004-.773.137-1.59.3-2.43.492-.093-.85-.007-3.14 1.8-8.625 2.02-6.13 1.904-10.82-.35-13.936-2.368-3.274-6.16-3.527-7.266-3.527-1.07 0-2 .425-2.69 1.234-1.59 1.856-1.36 5.407-1.19 6.85-1.9 5.12-7.292 17.772-11.87 21.288-.074.058-.145.12-.21.187-1.368 1.438-2.274 3.012-2.872 4.363-.867-.496-1.867-.79-2.934-.79H9.845c-3.254 0-5.903 2.65-5.903 5.904v23.554c0 3.254 2.65 5.903 5.904 5.903h8.847c1.34 0 2.572-.454 3.564-1.208l3.29.5c.01 0 .026.004.038.004.395.05 9.738 1.254 19.32 1.058 1.727.133 3.348.203 4.848.203 2.59 0 4.84-.2 6.715-.597 4.39-.934 7.394-2.797 8.918-5.535 1.18-2.118 1.152-4.235.957-5.543 3.945-3.55 3.7-7.813 2.69-10.418 1.423-1.805 2.1-3.723 2.02-5.71z"/></symbol><symbol viewBox="0 0 100 100" id="svgs-icon-svgs"><symbol viewBox="0 0 75 75" id="svgs-svgs-icon-ampoule"><path d="M37.965 24.98c-4.465 0-7.762 1.868-9.285 5.258-1.735 3.867-.797 8.832 2.34 12.356 2.414 2.715 3.12 5.312 3.5 6.703l.062.23c1.305-.332 4.227-1.113 6.406-1.703.317-.922 1.29-2.277 3.918-5.23 3.137-3.524 4.078-8.49 2.34-12.356-1.516-3.39-4.812-5.258-9.28-5.258zm-3.887 26.672h-.047c-.925-.043-1.163-.91-1.413-1.832-.36-1.324-.965-3.543-3.07-5.91-3.645-4.098-4.715-9.914-2.668-14.476 1.83-4.082 5.874-6.422 11.085-6.422s9.254 2.34 11.086 6.422c2.048 4.562.977 10.378-2.667 14.476-2.36 2.652-3.555 4.238-3.555 4.71 0 .446-.297.837-.73.954-7.598 2.06-7.852 2.078-8.02 2.078zM37.72 61.977c-.443 0-.845-.297-.958-.743-.133-.527.183-1.066.715-1.2l4.882-1.24c.527-.134 1.066.183 1.2.714.13.527-.185 1.066-.716 1.2l-4.883 1.24c-.077.017-.163.03-.24.03zM33.906 57.438c-.437 0-.84-.297-.953-.74-.137-.526.18-1.065.707-1.202l8.7-2.258c.53-.14 1.066.18 1.202.707.137.528-.18 1.067-.707 1.203l-8.7 2.258c-.085.02-.17.032-.25.032zM33.906 60.25c-.437 0-.84-.297-.953-.738-.137-.528.18-1.067.707-1.203l8.7-2.26c.53-.14 1.066.18 1.202.708.137.527-.18 1.066-.707 1.203l-8.7 2.26c-.085.018-.17.03-.25.03zM33.906 54.625c-.437 0-.84-.297-.953-.738-.137-.528.18-1.067.707-1.203l8.7-2.258c.53-.14 1.066.18 1.202.707.137.527-.18 1.066-.707 1.203l-8.7 2.258c-.085.02-.17.03-.25.03zM21.36 36.844h-4.032c-.547 0-.988-.442-.988-.99 0-.545.44-.987.988-.987h4.03c.548 0 .99.442.99.988 0 .543-.446.99-.99.99zM23.61 28.434c-.17 0-.337-.043-.493-.133l-3.492-2.015c-.473-.273-.633-.875-.36-1.347.274-.473.88-.633 1.348-.36l3.492 2.016c.473.273.633.875.36 1.347-.18.314-.512.494-.856.494zM29.773 22.273c-.34 0-.67-.175-.855-.492l-2.016-3.49c-.273-.474-.11-1.08.36-1.35.472-.272 1.074-.108 1.347.36l2.015 3.493c.273.473.11 1.078-.36 1.348-.156.09-.324.133-.492.133zM38.184 20.016c-.547 0-.99-.442-.99-.99V15c0-.547.443-.988.99-.988.543 0 .988.44.988.988v4.03c0 .544-.442.986-.988.986zM46.598 22.273c-.168 0-.336-.043-.493-.132-.472-.273-.632-.874-.36-1.347l2.017-3.492c.273-.472.88-.632 1.347-.36.472.275.632.876.36 1.35l-2.017 3.49c-.183.318-.512.493-.855.493zM52.762 28.434c-.34 0-.672-.176-.856-.493-.273-.47-.11-1.077.36-1.346l3.492-2.016c.47-.273 1.074-.11 1.347.36.274.472.11 1.078-.36 1.347l-3.49 2.016c-.157.09-.33.134-.493.134zM56.25 47.277c-.168 0-.336-.043-.492-.132l-3.492-2.016c-.473-.275-.633-.876-.36-1.35.274-.47.88-.632 1.348-.358l3.492 2.016c.473.273.633.874.36 1.347-.184.313-.516.492-.856.492zM20.12 47.273c-.34 0-.67-.175-.854-.492-.274-.47-.11-1.077.36-1.346l3.49-2.016c.474-.273 1.075-.11 1.35.36.272.472.108 1.077-.36 1.347l-3.493 2.016c-.152.094-.324.133-.492.133z"/></symbol><symbol viewBox="0 0 64 25.9" id="svgs-svgs-icon-bas-mac"><path fill="#CDCCCC" d="M50.7 20.4c.1 1.5 1.3 2.6 2.8 2.7l10.5.8v1H0v-1l11.4-.8c1.5-.1 2.6-1.3 2.8-2.7L16 0h33l1.7 20.4z"/><path fill="#E0E0E0" d="M0 24.9h64v1H0z"/></symbol><symbol viewBox="0 0 18.679 34.361" id="svgs-svgs-icon-big-arrow"><path opacity=".5" fill="#FFF" d="M.442 33.92c.293.294.676.442 1.058.442.383 0 .766-.144 1.06-.44l15.68-15.685c.585-.586.585-1.535 0-2.12L2.562.44c-.586-.586-1.535-.586-2.12 0-.587.586-.587 1.536 0 2.12L15.06 17.18.442 31.795c-.59.59-.59 1.535 0 2.125z"/></symbol><symbol viewBox="0 0 75 75" id="svgs-svgs-icon-contact"><path d="M17.223 42.348v10.507c0 .247-.196.39-.395.39-.137 0-.277-.07-.348-.225L8.238 35.47c-.836-1.798-1.488-3.517-1.488-5.466 0-7.777 7.637-13.38 17.06-13.38 1.405 0 2.764.138 4.073.388 1.074-.805 2.226-1.532 3.44-2.188-2.323-.77-4.858-1.2-7.514-1.2-11.435 0-20.06 7.044-20.06 16.38 0 2.566.848 4.75 1.773 6.738l8.24 17.56c.56 1.202 1.737 1.948 3.06 1.948 1.872 0 3.396-1.523 3.396-3.39v-6.735c1.12.164 2.26.246 3.417.254-.817-.993-1.54-2.04-2.164-3.134-1.48-.16-2.914-.457-4.25-.898z"/><path d="M46.203 13.418c-13.812 0-25.047 9.102-25.047 20.293 0 11.188 11.235 20.294 25.047 20.294 1.87 0 3.715-.164 5.516-.492v9.734c0 1.934 1.573 3.508 3.51 3.508 1.372 0 2.582-.774 3.168-2.016L69.05 42.035c1.14-2.465 2.2-5.18 2.2-8.328 0-5.758-2.71-11.012-7.63-14.793-4.612-3.547-10.796-5.496-17.417-5.496zm0 3c12.176 0 22.047 7.238 22.047 17.29 0 2.515-.844 4.737-1.922 7.058L55.68 63.46c-.094.2-.274.29-.45.29-.257 0-.51-.188-.51-.508V49.664c-2.622.86-5.497 1.34-8.517 1.34-12.176 0-22.047-7.742-22.047-17.293s9.87-17.292 22.047-17.292"/></symbol><symbol viewBox="0 0 32.824 29.164" id="svgs-svgs-icon-contexte"><path d="M23.703 8.887H8.64c-.62 0-1.124-.504-1.124-1.125S8.02 6.637 8.64 6.637h15.063c.62 0 1.125.504 1.125 1.125s-.504 1.125-1.125 1.125zM23.703 13.387H8.64c-.62 0-1.124-.504-1.124-1.125s.503-1.125 1.125-1.125h15.063c.62 0 1.125.504 1.125 1.125s-.504 1.125-1.125 1.125zM16.203 17.887H8.64c-.62 0-1.124-.504-1.124-1.125s.503-1.125 1.125-1.125h7.563c.62 0 1.125.504 1.125 1.125s-.504 1.125-1.125 1.125z"/><path d="M6.168 2.25c-2.16 0-3.914 1.758-3.914 3.914V25.41l3.137-2.992c.21-.2.49-.312.778-.312h20.496c2.16 0 3.914-1.754 3.914-3.914V6.164c0-2.16-1.758-3.914-3.914-3.914H6.168zM1.125 29.164c-.148 0-.3-.03-.44-.09C.268 28.9 0 28.492 0 28.04V6.163C0 2.766 2.766 0 6.164 0H26.66c3.4 0 6.164 2.766 6.164 6.164v12.028c0 3.398-2.765 6.164-6.164 6.164H6.617l-4.715 4.496c-.21.207-.492.312-.777.312z"/></symbol><symbol viewBox="0 0 72.172 60.137" id="svgs-svgs-icon-couleurs"><path d="M41.934 48.625l-.06-.097.28-.48.065-.095-.005-.015 18.946-32.82 8.555 10.195-27.78 23.312zm-13.484 9L2.512 12.7l11.84-6.836L39.13 48.778l-.036.21.2.075.995 1.726-11.84 6.835zm3.46-55.21l7.32 41.523L19.244 9.32l-.797-4.535 13.465-2.37zM46.857 4.94l-.078.437-6.032 34.206-5.472-31.043-1.028-5.82 12.61 2.22zm10.62 12.062L42.415 43.098 48.8 6.856l10.903 6.293-2.226 3.854zm4.325-5.242L49.216 4.496l.047-.273-.914-1.305L33.05.223l-.046.047L32.62 0 16.943 2.766l-.914 1.305.054.305-.35-.61-1.536-.41L.414 11.314 0 12.848l27.063 46.875 1.54.414 13.788-7.96.345-1.286 29.297-24.585.14-1.586L62.04 12.652l-.24-.89z"/><path d="M31.297 48.887c-.734.422-1.742.145-2.164-.578-.437-.755-.176-1.728.578-2.16.243-.142.513-.212.79-.212.567 0 1.09.3 1.37.79.443.753.18 1.72-.573 2.16zm-.793-5.203c-.668 0-1.332.176-1.914.515-1.828 1.054-2.457 3.402-1.402 5.234.683 1.183 1.957 1.914 3.324 1.914.668 0 1.328-.176 1.914-.516 1.828-1.058 2.457-3.406 1.403-5.234-.69-1.18-1.96-1.914-3.326-1.914z"/></symbol><symbol viewBox="0 0 30 26.25" id="svgs-svgs-icon-date"><path d="M3.043 3.75c-.644 0-1.167.523-1.167 1.167v18.286c0 .648.523 1.17 1.167 1.17h23.91c.65 0 1.173-.522 1.173-1.166V4.917c0-.644-.524-1.167-1.168-1.167H3.043zm23.915 22.5H3.043C1.368 26.25 0 24.882 0 23.207V4.917c0-1.675 1.368-3.043 3.043-3.043h23.91c1.68 0 3.047 1.368 3.047 3.043v18.286c0 1.68-1.367 3.047-3.042 3.047z"/><path d="M.938 7.5h28.125v1.875H.938zM4.688 0h1.875v5.625H4.688zM8.438 0h1.875v5.625H8.438zM19.688 0h1.875v5.625h-1.875zM23.438 0h1.875v5.625h-1.875z"/></symbol><symbol viewBox="0 0 55.406 55.483" id="svgs-svgs-icon-lien"><path d="M49.182 21.807L36.96 34.034c-3.9 3.898-10.125 4.273-14.4.976l2.853-2.85c1.05.675 2.324 1.05 3.6 1.05h.525c1.95-.15 3.976-1.05 5.55-2.625L45.663 20.01c1.8-1.8 2.773-3.75 2.85-5.7.075-1.948-.75-3.75-2.323-5.397-1.273-1.274-3.227-2.024-5.25-2.024-2.176 0-4.273.898-5.852 2.476l-1.5 1.5c-1.125-.45-2.324-.824-3.45-1.05l3.603-3.603c4.274-4.273 11.25-4.273 15.524 0 4.196 4.344 4.196 11.32-.082 15.594zm2.176-17.7c-5.477-5.476-14.324-5.476-19.8 0L26.005 9.66c-.074.073-.074.073-.074.147-.3.3-.523.676-.523 1.125 0 .824.675 1.5 1.5 1.5 2.1 0 4.272.524 6.374 1.574.226.075.45.15.676.15.45 0 .898-.228 1.2-.603.073-.074.147-.074.147-.148l1.95-1.95c1.05-1.05 2.324-1.574 3.75-1.648 1.2 0 2.398.375 3.074 1.125.977.977 1.5 2.102 1.5 3.15 0 1.198-.675 2.397-1.95 3.674L32.91 28.41c-1.052 1.05-2.325 1.725-3.603 1.8-1.125.074-2.25-.3-3-1.05-.3-.302-.676-.45-1.05-.45s-.75.148-1.05.45l-4.876 4.874c-.3.3-.45.676-.45 1.05s.15.75.45 1.05c2.626 2.626 6.15 4.052 9.9 4.052s7.273-1.426 9.898-4.05l12.226-12.227c5.402-5.404 5.402-14.325.004-19.802z"/><path d="M32.91 20.46l-2.853 2.773c-2.85-1.8-6.824-1.2-9.676 1.648L9.808 35.535c-1.8 1.8-2.773 3.75-2.85 5.7-.076 1.948.75 3.75 2.323 5.397 1.273 1.275 3.148 2.025 5.176 2.025 2.023 0 4.2-.75 5.925-2.477l1.5-1.5c1.126.45 2.326.825 3.45 1.05l-3.6 3.603c-4.274 4.274-11.25 4.274-15.524 0-4.274-4.273-4.274-11.25 0-15.523L18.432 21.58c3.977-4.046 10.125-4.42 14.477-1.12zM4.107 31.557c-5.477 5.477-5.477 14.324 0 19.8 2.7 2.7 6.3 4.126 9.898 4.126 3.602 0 7.2-1.352 9.9-4.125l5.55-5.55c.074-.075.074-.075.074-.15.3-.3.523-.675.523-1.124 0-.824-.675-1.5-1.5-1.5-2.1 0-4.273-.524-6.375-1.574-.675-.3-1.425-.075-1.875.45.078 0 .004.073-.07.073l-1.95 1.95c-2.175 2.175-5.323 1.948-6.823.448-.977-.975-1.5-2.1-1.5-3.147 0-1.2.675-2.398 1.95-3.676l10.573-10.574c2.102-2.102 4.95-2.398 6.602-.676.074.074.148.15.226.15 0 0 .075 0 .075.073.227.148.524.226.75.226.227 0 .375 0 .602-.074.074 0 .148-.074.226-.148l.227-.227 4.875-4.875c.602-.6.602-1.5 0-2.1-5.477-5.478-14.324-5.478-19.8 0L4.107 31.556z"/></symbol><symbol viewBox="0 0 75 75" id="svgs-svgs-icon-methode"><path fill-rule="evenodd" clip-rule="evenodd" d="M37.5 12.305l4.7 7.047h-9.395l4.695-7.047zm0-5.41l-1.246 1.87L27.2 22.35h20.605L37.5 6.898v-.003zM57.605 54.602h10.5v10.5h-10.5v-10.5zm-3-3v16.5h16.5v-16.5h-16.5z"/><path d="M12.895 53.102c-3.333 0-6 2.668-6 6s2.667 6 6 6c3.332 0 6-2.668 6-6s-2.668-6-6-6zm0-3c4.953 0 9 4.046 9 9 0 4.953-4.047 9-9 9-4.954 0-9-4.047-9-9 0-4.954 4.046-9 9-9z"/><path fill-rule="evenodd" clip-rule="evenodd" d="M31.848 53.84c-.39.012-.762.172-1.032.453L27.2 57.906c-.79.598-.794 1.782-.012 2.383l.003.003 3.626 3.62c1.414 1.33 3.45-.71 2.118-2.12l-1.188-1.19h15.13c.84.018 1.534-.658 1.534-1.5 0-.84-.695-1.52-1.535-1.5h-15.13l1.19-1.19c.98-.952.276-2.612-1.087-2.573zM23.75 28.254c-1.82.363-3.7.95-5.535 1.44-1.965.5-1.172 3.45.777 2.9l1.625-.438-7.566 13.102c-1.073 1.75 1.618 3.304 2.598 1.5l7.567-13.102.433 1.625c.516 1.935 3.418 1.158 2.9-.776l-1.33-4.953c-.1-.738-.726-1.292-1.468-1.3v.004zM49.84 28.254c-1.137.043-1.813 1.29-1.23 2.266l7.562 13.1-1.625-.432c-1.934-.516-2.707 2.382-.777 2.898l5.12 1.37c.755.204 1.672-.436 1.837-1.06l1.37-5.126c.25-.934-.406-1.864-1.37-1.907-.71-.035-1.352.438-1.524 1.133l-.433 1.625-7.563-13.1c-.273-.493-.805-.79-1.367-.766z"/></symbol><symbol viewBox="0 0 75 75" id="svgs-svgs-icon-poigneemain"><path d="M52.352 55.273c-.977 0-1.95-.3-2.852-.824L39.227 47.7c-.75-.524-.977-1.575-.45-2.325.524-.75 1.575-.977 2.325-.45l10.2 6.75c.675.45 1.647.376 2.323-.226.676-.602 1.727-.602 2.398.148.602.675.602 1.726-.148 2.398-.977.828-2.25 1.277-3.523 1.277zM45.676 60.375c-.977 0-1.95-.227-2.774-.824l-6.074-3.976c-.75-.523-.976-1.574-.523-2.324.523-.75 1.574-.977 2.324-.523l6.073 3.976c.9.524 2.102.3 2.625-.6.524-.826 1.574-1.052 2.324-.525.825.524 1.05 1.574.524 2.324-.977 1.575-2.7 2.473-4.5 2.473zM59.023 50.023c-1.5 0-3.226-.523-5.175-1.726l-9.602-6.375c-.75-.524-.976-1.574-.45-2.324.524-.75 1.575-.977 2.325-.45l9.525 6.375c1.425.825 3.976 2.102 5.324.227.823-1.2.675-2.852.147-3.3-.75-.602-.898-1.65-.3-2.4.6-.75 1.648-.898 2.398-.3 2.1 1.648 2.398 5.324.6 7.875-1.042 1.352-2.616 2.398-4.792 2.398z"/><path d="M60 42.75c-.3 0-.602-.074-.898-.3l-12-7.575c-.45-.3-3.977-2.398-5.55-6-1.95.602-3.9 1.2-6.075 2.023l-.227.075c-2.324.824-6.75 2.476-9.3-.45-1.352-1.574-1.876-3.074-1.575-4.648.602-2.852 3.75-4.426 6.3-5.7.524-.226.977-.448 1.352-.675l.524-.3c1.876-1.052 3.825-2.177 5.626-3.376 4.05-2.7 8.55-.148 8.773-.074 0 0 .073 0 .073.074 0 0 3.825 2.477 7.2 4.05 2.25 1.052 4.726.376 7.425-.374.602-.148 1.125-.3 1.727-.45.898-.226 1.8.302 2.023 1.274.227.9-.3 1.8-1.273 2.024-.523.148-1.05.3-1.648.45-3 .823-6.375 1.725-9.75.147-3.375-1.574-7.05-3.898-7.575-4.273-.3-.15-3-1.5-5.175-.074-1.875 1.273-3.9 2.398-5.852 3.45l-.45.3c-.448.226-.976.523-1.5.75-1.726.824-4.273 2.1-4.5 3.375-.148.6.376 1.273.825 1.8.977 1.125 3.977.075 5.55-.523l.227-.074c2.852-1.05 5.4-1.875 7.875-2.55.45-.15.9-.075 1.352.147.375.227.676.602.75 1.05.75 3.376 4.5 5.478 4.5 5.552 0 0 .074 0 .074.074l11.4 7.198L66 37.574c.898-.226 1.8.3 2.102 1.2.226.898-.3 1.8-1.2 2.1l-6.45 1.802c-.15.074-.304.074-.452.074zM26.324 45.824c-.898 0-1.273.375-1.35.45-.603.6-.603 1.574-.603 1.574v3.45c0 1.874 1.275 2.175 2.025 2.25.824 0 1.8-.376 1.8-2.25v-3.45c-.07-.746-.297-2.024-1.87-2.024zm0 11.102c-2.176 0-5.398-1.5-5.398-5.625v-3.448c0-.227 0-2.4 1.574-3.977.676-.676 1.875-1.426 3.75-1.426 1.426 0 2.7.448 3.602 1.425 1.574 1.574 1.574 3.75 1.574 4.05v3.45c0 2.176-.824 3.45-1.574 4.125-1.278 1.352-3.08 1.426-3.528 1.426z"/><path d="M19.125 43.426c-.898 0-1.273.375-1.352.45-.6.6-.6 1.573-.6 1.573v1.273c0 2.023 1.5 2.25 1.948 2.25.825 0 1.802-.375 1.802-2.25V45.45c.078-.75-.223-2.024-1.797-2.024zm.074 8.926c-.075 0-.075 0 0 0-2.177 0-5.4-1.5-5.4-5.625v-1.274c0-.226 0-2.398 1.575-3.976.676-.676 1.875-1.426 3.75-1.426 1.426 0 2.7.45 3.602 1.427 1.574 1.574 1.574 3.75 1.574 4.05V46.8c0 2.177-.823 3.45-1.573 4.126-1.352 1.347-3.153 1.426-3.528 1.426zM33.523 48.898c-.898 0-1.273.375-1.35.45-.603.6-.603 1.574-.603 1.574v2.625c0 1.875 1.274 2.176 2.024 2.25.824 0 1.8-.375 1.8-2.25V51c-.07-.75-.292-2.102-1.87-2.102zm0 10.278s-.074 0 0 0c-2.175 0-5.398-1.5-5.398-5.625V51c0-.227 0-2.398 1.574-3.977.675-.675 1.874-1.425 3.75-1.425 1.425 0 2.698.45 3.6 1.425 1.575 1.575 1.575 3.75 1.575 4.05V53.7c0 2.175-.824 3.448-1.574 4.124-1.277 1.278-3.073 1.352-3.527 1.352zM21.824 24.148c-.148 0-.375 0-.523-.074 0 0-3.448-1.125-5.25-1.726-.898-.3-1.35-1.274-1.05-2.102.3-.898 1.273-1.35 2.102-1.05 1.35.45 3.75 1.273 4.8 1.574l11.774-2.55c.898-.228 1.8.374 2.023 1.272.226.9-.376 1.8-1.274 2.024L22.2 24.14c-.075.008-.223.008-.376.008z"/><path d="M15.45 44.477c-.302 0-.602-.075-.9-.3l-6.976-4.5c-.75-.525-.976-1.575-.523-2.325.45-.75 1.575-.977 2.325-.524l6.977 4.5c.75.524.976 1.574.523 2.324-.3.524-.824.825-1.426.825z"/></symbol><symbol viewBox="0 0 75 75" id="svgs-svgs-icon-portfolio"><path d="M16.875 38.438h10.313v-9.376H16.875v9.376zm12.187 1.874H15V27.188h14.062v13.124zM32.812 38.438h10.313v-9.376H32.812v9.376zM45 40.312H30.938V27.188H45v13.124zM48.75 38.438h10.312v-9.376H48.75v9.376zm12.188 1.874H46.875V27.188h14.063v13.124zM16.875 53.438h10.313v-9.376H16.875v9.376zm12.187 1.874H15V42.188h14.062v13.124zM32.812 53.438h10.313v-9.376H32.812v9.376zM45 55.312H30.938V42.188H45v13.124zM48.75 53.438h10.312v-9.376H48.75v9.376zm12.188 1.874H46.875V42.188h14.063v13.124z"/><path d="M10.312 15.938c-.562 0-.937.374-.937.937v41.25c0 .563.375.937.937.937h55.313c.563 0 .937-.374.937-.937v-41.25c0-.563-.374-.937-.937-.937H10.312zm55.313 45H10.312c-1.593 0-2.812-1.22-2.812-2.813v-41.25c0-1.594 1.22-2.813 2.812-2.813h55.313c1.594 0 2.813 1.22 2.813 2.813v41.25c0 1.594-1.22 2.813-2.813 2.813z"/><path d="M8.438 21.562h58.125v1.875H8.438zM13.125 17.812H15v1.875h-1.875zM16.875 17.812h1.875v1.875h-1.875zM20.625 17.812H22.5v1.875h-1.875z"/></symbol><symbol viewBox="0 0 75 75" id="svgs-svgs-icon-pouce"><path d="M65.55 48.38c-.57.597-.68 1.487-.25 2.194.255.43 2.333 4.305-2.08 7.62-.642.482-.9 1.306-.63 2.06.027.082.66 2.016-.422 3.906-1 1.754-3.176 3-6.47 3.7-2.64.562-6.21.667-10.608.32-.063-.004-.12-.008-.184-.004-9.14.195-18.38-.97-18.844-1.028l-1.628-.25c.1-.43.156-.875.156-1.336V42.008c0-.625-.102-1.227-.28-1.793.272-1.035 1.014-3.215 2.737-5.07C33.523 30.015 39.89 12.62 40.16 11.88c.106-.29.137-.603.086-.903-.266-1.71-.137-3.84.25-4.352.723.008 2.942.184 4.266 2.016 1.508 2.087 1.453 5.77-.157 10.657-2.41 7.32-2.636 11.156-.753 12.828.92.82 2.144.867 3.035.54.886-.204 1.738-.376 2.543-.517.058-.01.117-.023.175-.04 3.08-.67 12.165-1.874 15.305.994 2.426 2.214.715 5.136.52 5.453-.48.746-.344 1.738.312 2.34.016.015 1.602 1.492 1.664 3.503.043 1.31-.582 2.65-1.855 3.98zM9.845 67.815c-1.242 0-2.25-1.01-2.25-2.25V42.008c0-1.242 1.01-2.25 2.25-2.25h8.847c.787 0 1.478.406 1.88 1.015.043.31.153.602.332.848.024.13.04.26.04.392v23.554c0 1.243-1.012 2.25-2.25 2.25H9.843zM71.05 44.223c-.085-2.184-1.097-3.922-1.898-4.96.953-2.314 1.356-5.99-1.78-8.853-5.138-4.695-17.286-2.148-18.653-1.84-.005 0-.013.004-.017.004-.773.137-1.59.3-2.43.492-.093-.85-.007-3.14 1.8-8.625 2.02-6.13 1.904-10.82-.35-13.936-2.368-3.274-6.16-3.527-7.266-3.527-1.07 0-2 .425-2.69 1.234-1.59 1.856-1.36 5.407-1.19 6.85-1.9 5.12-7.292 17.772-11.87 21.288-.074.058-.145.12-.21.187-1.368 1.438-2.274 3.012-2.872 4.363-.867-.496-1.867-.79-2.934-.79H9.845c-3.254 0-5.903 2.65-5.903 5.904v23.554c0 3.254 2.65 5.903 5.904 5.903h8.847c1.34 0 2.572-.454 3.564-1.208l3.29.5c.01 0 .026.004.038.004.395.05 9.738 1.254 19.32 1.058 1.727.133 3.348.203 4.848.203 2.59 0 4.84-.2 6.715-.597 4.39-.934 7.394-2.797 8.918-5.535 1.18-2.118 1.152-4.235.957-5.543 3.945-3.55 3.7-7.813 2.69-10.418 1.423-1.805 2.1-3.723 2.02-5.71z"/></symbol><symbol viewBox="0 0 75 75" id="svgs-svgs-icon-yeux"><path d="M25.5 33.523c-3.898 0-7.125 3.227-7.125 7.125 0 3.9 3.227 7.125 7.125 7.125s7.125-3.226 7.125-7.125c0-3.898-3.227-7.125-7.125-7.125zm0 16.5c-5.176 0-9.375-4.2-9.375-9.375s4.2-9.375 9.375-9.375 9.375 4.2 9.375 9.375c0 5.176-4.273 9.375-9.375 9.375zM49.352 33.523c-3.9 0-7.125 3.227-7.125 7.125 0 3.9 3.226 7.125 7.125 7.125 3.898 0 7.125-3.226 7.125-7.125 0-3.898-3.153-7.125-7.125-7.125zm0 16.5c-5.176 0-9.375-4.2-9.375-9.375s4.2-9.375 9.375-9.375 9.375 4.2 9.375 9.375c0 5.176-4.204 9.375-9.375 9.375z"/><path d="M28.352 40.648c0 3.8-5.704 3.8-5.704 0 0-3.796 5.704-3.796 5.704 0M52.2 40.648c0 3.8-5.7 3.8-5.7 0 0-3.796 5.7-3.796 5.7 0M15.375 31.273c-.3 0-.602-.148-.824-.375-.448-.45-.448-1.125 0-1.574 2.927-2.85 6.825-4.426 10.876-4.426 1.726 0 3.45.3 5.1.9.603.225.9.823.677 1.425-.226.6-.824.898-1.426.675-1.425-.523-2.925-.75-4.35-.75-3.525 0-6.825 1.352-9.302 3.75-.227.3-.523.375-.75.375zM59.625 31.273c-.3 0-.602-.074-.75-.3-2.55-2.4-5.852-3.75-9.3-3.75-1.5 0-2.927.226-4.352.75-.602.226-1.2-.075-1.426-.676-.227-.602.074-1.2.676-1.426 1.648-.6 3.375-.897 5.1-.897 4.052 0 7.95 1.574 10.876 4.425.448.45.448 1.125 0 1.575-.223.226-.524.3-.825.3z"/></symbol></symbol><symbol viewBox="0 0 58.594 58.594" id="svgs-icon-user"><path d="M29.297 2.344c-7.11 0-12.89 5.78-12.89 12.89s5.78 12.89 12.89 12.89 12.89-5.78 12.89-12.89-5.78-12.89-12.89-12.89zm0 28.125c-8.398 0-15.234-6.837-15.234-15.235C14.063 6.835 20.9 0 29.297 0S44.53 6.836 44.53 15.235c0 8.398-6.835 15.234-15.233 15.234zM2.352 56.25h53.89c-.043-2.28-.304-5.863-1.906-9.367-2.28-4.992-6.625-8.434-12.91-10.234-3.684 2.092-7.867 3.194-12.13 3.194s-8.444-1.102-12.132-3.195C10.88 38.452 6.54 41.894 4.254 46.882c-1.598 3.504-1.86 7.086-1.902 9.367zm56.242 2.344H0v-1.172c0-2.227 0-6.863 2.125-11.512 2.64-5.777 7.652-9.7 14.895-11.652l.48-.13.426.255c3.43 2.04 7.363 3.117 11.37 3.117s7.942-1.078 11.372-3.12l.426-.255.48.13c7.243 1.952 12.254 5.874 14.895 11.65 2.124 4.654 2.124 9.29 2.124 11.517v1.172z"/></symbol><symbol viewBox="0 0 75 75" id="svgs-icon-yeux"><path d="M25.5 33.523c-3.898 0-7.125 3.227-7.125 7.125 0 3.9 3.227 7.125 7.125 7.125s7.125-3.226 7.125-7.125c0-3.898-3.227-7.125-7.125-7.125zm0 16.5c-5.176 0-9.375-4.2-9.375-9.375s4.2-9.375 9.375-9.375 9.375 4.2 9.375 9.375c0 5.176-4.273 9.375-9.375 9.375zM49.352 33.523c-3.9 0-7.125 3.227-7.125 7.125 0 3.9 3.226 7.125 7.125 7.125 3.898 0 7.125-3.226 7.125-7.125 0-3.898-3.153-7.125-7.125-7.125zm0 16.5c-5.176 0-9.375-4.2-9.375-9.375s4.2-9.375 9.375-9.375 9.375 4.2 9.375 9.375c0 5.176-4.204 9.375-9.375 9.375z"/><path d="M28.352 40.648c0 3.8-5.704 3.8-5.704 0 0-3.796 5.704-3.796 5.704 0M52.2 40.648c0 3.8-5.7 3.8-5.7 0 0-3.796 5.7-3.796 5.7 0M15.375 31.273c-.3 0-.602-.148-.824-.375-.448-.45-.448-1.125 0-1.574 2.927-2.85 6.825-4.426 10.876-4.426 1.726 0 3.45.3 5.1.9.603.225.9.823.677 1.425-.226.6-.824.898-1.426.675-1.425-.523-2.925-.75-4.35-.75-3.525 0-6.825 1.352-9.302 3.75-.227.3-.523.375-.75.375zM59.625 31.273c-.3 0-.602-.074-.75-.3-2.55-2.4-5.852-3.75-9.3-3.75-1.5 0-2.927.226-4.352.75-.602.226-1.2-.075-1.426-.676-.227-.602.074-1.2.676-1.426 1.648-.6 3.375-.897 5.1-.897 4.052 0 7.95 1.574 10.876 4.425.448.45.448 1.125 0 1.575-.223.226-.524.3-.825.3z"/></symbol></symbol><symbol viewBox="0 0 75 75" id="icon-user"><title>user</title><path d="M37.5 10.547c-7.11 0-12.89 5.78-12.89 12.89s5.78 12.89 12.89 12.89 12.89-5.78 12.89-12.89-5.78-12.89-12.89-12.89zm0 28.125c-8.398 0-15.234-6.836-15.234-15.234 0-8.4 6.836-15.235 15.234-15.235s15.234 6.836 15.234 15.235c0 8.398-6.836 15.234-15.234 15.234zM10.555 64.453h53.89c-.043-2.28-.304-5.863-1.906-9.367-2.282-4.992-6.626-8.434-12.91-10.234-3.685 2.093-7.868 3.195-12.13 3.195s-8.445-1.102-12.133-3.195c-6.285 1.804-10.625 5.246-12.91 10.234-1.598 3.504-1.86 7.086-1.902 9.367zm56.242 2.344H8.203v-1.172c0-2.227 0-6.863 2.125-11.512 2.64-5.777 7.652-9.7 14.895-11.652l.48-.128.426.254c3.43 2.04 7.362 3.117 11.37 3.117s7.94-1.078 11.37-3.12l.427-.255.48.13c7.243 1.952 12.254 5.874 14.895 11.65 2.125 4.654 2.125 9.29 2.125 11.517v1.172z"/></symbol><symbol viewBox="0 0 75 75" id="icon-yeux"><title>yeux</title><path d="M25.5 33.523c-3.898 0-7.125 3.227-7.125 7.125 0 3.9 3.227 7.125 7.125 7.125s7.125-3.226 7.125-7.125c0-3.898-3.227-7.125-7.125-7.125zm0 16.5c-5.176 0-9.375-4.2-9.375-9.375s4.2-9.375 9.375-9.375 9.375 4.2 9.375 9.375c0 5.176-4.273 9.375-9.375 9.375zM49.352 33.523c-3.9 0-7.125 3.227-7.125 7.125 0 3.9 3.226 7.125 7.125 7.125 3.898 0 7.125-3.226 7.125-7.125 0-3.898-3.153-7.125-7.125-7.125zm0 16.5c-5.176 0-9.375-4.2-9.375-9.375s4.2-9.375 9.375-9.375 9.375 4.2 9.375 9.375c0 5.176-4.204 9.375-9.375 9.375z"/><path d="M28.352 40.648c0 3.8-5.704 3.8-5.704 0 0-3.796 5.704-3.796 5.704 0M52.2 40.648c0 3.8-5.7 3.8-5.7 0 0-3.796 5.7-3.796 5.7 0M15.375 31.273c-.3 0-.602-.148-.824-.375-.448-.45-.448-1.125 0-1.574 2.927-2.85 6.825-4.426 10.876-4.426 1.726 0 3.45.3 5.1.9.603.225.9.823.677 1.425-.226.6-.824.898-1.426.675-1.425-.523-2.925-.75-4.35-.75-3.525 0-6.825 1.352-9.302 3.75-.227.3-.523.375-.75.375zM59.625 31.273c-.3 0-.602-.074-.75-.3-2.55-2.4-5.852-3.75-9.3-3.75-1.5 0-2.927.226-4.352.75-.602.226-1.2-.075-1.426-.676-.227-.602.074-1.2.676-1.426 1.648-.6 3.375-.897 5.1-.897 4.052 0 7.95 1.574 10.876 4.425.448.45.448 1.125 0 1.575-.223.226-.524.3-.825.3z"/></symbol></svg>