<svg xmlns="http://www.w3.org/2000/svg" width="75" height="75" viewBox="0 0 75 75"><path d="M37.5 10.547c-7.11 0-12.89 5.78-12.89 12.89s5.78 12.89 12.89 12.89 12.89-5.78 12.89-12.89-5.78-12.89-12.89-12.89zm0 28.125c-8.398 0-15.234-6.836-15.234-15.234 0-8.4 6.836-15.235 15.234-15.235s15.234 6.836 15.234 15.235c0 8.398-6.836 15.234-15.234 15.234zM10.555 64.453h53.89c-.043-2.28-.304-5.863-1.906-9.367-2.282-4.992-6.626-8.434-12.91-10.234-3.685 2.093-7.868 3.195-12.13 3.195s-8.445-1.102-12.133-3.195c-6.285 1.804-10.625 5.246-12.91 10.234-1.598 3.504-1.86 7.086-1.902 9.367zm56.242 2.344H8.203v-1.172c0-2.227 0-6.863 2.125-11.512 2.64-5.777 7.652-9.7 14.895-11.652l.48-.128.426.254c3.43 2.04 7.362 3.117 11.37 3.117s7.94-1.078 11.37-3.12l.427-.255.48.13c7.243 1.952 12.254 5.874 14.895 11.65 2.125 4.654 2.125 9.29 2.125 11.517v1.172z"/></svg>