<svg viewBox="0 0 100 100" xmlns="http://www.w3.org/2000/svg"><symbol viewBox="0 0 75 75" id="icon-address"><title>address</title> <path d="M66.449,60.676c0,0.301-0.074,0.523-0.226,0.75L46.801,46.125l19.574-15.523c0.074,0.148,0.074,0.3,0.074,0.523V60.676z
	 M10.125,62.176c-0.074,0-0.227,0-0.301,0L37.273,40.5l27.45,21.75H10.125V62.176z M8.551,60.676V31.125
	c0-0.148,0-0.227,0.074-0.375l19.199,15.227L8.699,61.125C8.625,60.977,8.551,60.824,8.551,60.676z M37.273,11.852L65.25,29.551
	l-0.148,0.074l-19.5,15.523l-7.875-6.226c-0.149-0.074-0.301-0.149-0.45-0.149c-0.148,0-0.3,0.075-0.449,0.149L29.102,45
	L9.824,29.625L37.273,11.852z M67.727,27.602L37.273,8.25l-30,19.273c-1.05,0.825-1.726,2.102-1.726,3.524v29.551
	c0,2.476,2.023,4.5,4.5,4.5h54.824c2.477,0,4.5-2.024,4.5-4.5V31.125C69.449,29.699,68.773,28.426,67.727,27.602z"/> </symbol><symbol viewBox="0 0 75 75" id="icon-contact"><title>contact</title> <path d="M17.223,42.348v10.507c0,0.247-0.196,0.391-0.395,0.391c-0.137,0-0.277-0.07-0.348-0.226L8.238,35.469
	c-0.836-1.797-1.488-3.516-1.488-5.465c0-7.777,7.637-13.379,17.059-13.379c1.406,0,2.765,0.137,4.074,0.387
	c1.074-0.805,2.226-1.532,3.441-2.188c-2.324-0.769-4.859-1.199-7.515-1.199c-11.434,0-20.059,7.043-20.059,16.379
	c0,2.566,0.848,4.75,1.773,6.738l8.239,17.559c0.562,1.203,1.738,1.949,3.062,1.949c1.871,0,3.395-1.523,3.395-3.391v-6.734
	c1.121,0.164,2.261,0.246,3.418,0.254c-0.817-0.992-1.539-2.039-2.164-3.133C19.992,43.086,18.559,42.789,17.223,42.348z"/> <path d="M46.203,13.418c-13.812,0-25.047,9.102-25.047,20.293c0,11.187,11.235,20.293,25.047,20.293
	c1.871,0,3.715-0.164,5.516-0.492v9.734c0,1.934,1.574,3.508,3.511,3.508c1.372,0,2.582-0.774,3.168-2.016l10.653-22.703
	c1.14-2.465,2.199-5.18,2.199-8.328c0-5.758-2.711-11.012-7.629-14.793C59.008,15.367,52.824,13.418,46.203,13.418z M46.203,16.418
	c12.176,0,22.047,7.238,22.047,17.289c0,2.516-0.844,4.738-1.922,7.059L55.68,63.461c-0.094,0.199-0.274,0.289-0.45,0.289
	c-0.257,0-0.511-0.188-0.511-0.508V49.664c-2.621,0.859-5.496,1.34-8.516,1.34c-12.176,0-22.047-7.742-22.047-17.293
	S34.027,16.418,46.203,16.418"/> </symbol><symbol viewBox="0 0 32.824 29.164" id="icon-contexte"><title>contexte</title> <path d="M23.703,8.887H8.641c-0.622,0-1.125-0.504-1.125-1.125s0.503-1.125,1.125-1.125h15.062c0.621,0,1.125,0.504,1.125,1.125
	S24.324,8.887,23.703,8.887z"/> <path d="M23.703,13.387H8.641c-0.622,0-1.125-0.504-1.125-1.125s0.503-1.125,1.125-1.125h15.062c0.621,0,1.125,0.504,1.125,1.125
	S24.324,13.387,23.703,13.387z"/> <path d="M16.203,17.887H8.641c-0.622,0-1.125-0.504-1.125-1.125s0.503-1.125,1.125-1.125h7.562c0.621,0,1.125,0.504,1.125,1.125
	S16.824,17.887,16.203,17.887z"/> <path d="M6.168,2.25c-2.16,0-3.914,1.758-3.914,3.914V25.41l3.137-2.992c0.21-0.199,0.488-0.312,0.777-0.312h20.496
	c2.16,0,3.914-1.754,3.914-3.914V6.164c0-2.16-1.758-3.914-3.914-3.914H6.168z M1.125,29.164c-0.148,0-0.301-0.031-0.441-0.09
	C0.269,28.899,0,28.492,0,28.039V6.164C0,2.766,2.766,0,6.164,0H26.66c3.399,0,6.164,2.766,6.164,6.164v12.028
	c0,3.398-2.765,6.164-6.164,6.164H6.617l-4.715,4.496C1.691,29.059,1.41,29.164,1.125,29.164z"/> </symbol><symbol viewBox="0 0 72.172 60.137" id="icon-couleurs"><title>couleurs</title> <path d="M41.934,48.625l-0.059-0.097l0.278-0.481l0.066-0.094l-0.004-0.015l18.946-32.821l8.554,10.196L41.934,48.625z
	 M28.45,57.625L2.512,12.699l11.84-6.835l24.777,42.914l-0.035,0.211l0.199,0.074l0.996,1.726L28.45,57.625z M31.911,2.414
	l7.32,41.524L19.243,9.321l-0.797-4.536L31.911,2.414z M46.856,4.942l-0.078,0.437l-6.032,34.207L35.274,8.543l-1.028-5.82
	L46.856,4.942z M57.477,17.004L42.414,43.098l6.387-36.242l10.902,6.293L57.477,17.004z M61.801,11.762L49.215,4.496l0.047-0.273
	l-0.914-1.305L33.051,0.223L33.004,0.27L32.621,0L16.942,2.766l-0.914,1.305l0.054,0.304l-0.351-0.609l-1.535-0.41L0.414,11.313
	L0,12.848l27.063,46.875l1.539,0.414l13.789-7.961l0.344-1.285l29.297-24.586l0.14-1.586L62.039,12.653L61.801,11.762z"/> <path d="M31.297,48.887c-0.734,0.422-1.742,0.145-2.164-0.578c-0.437-0.754-0.176-1.727,0.578-2.16
	c0.242-0.141,0.512-0.211,0.789-0.211c0.567,0,1.09,0.301,1.371,0.789C32.313,47.481,32.051,48.449,31.297,48.887z M30.504,43.684
	c-0.668,0-1.332,0.176-1.914,0.515c-1.828,1.055-2.457,3.403-1.402,5.235c0.683,1.183,1.957,1.914,3.324,1.914
	c0.668,0,1.328-0.176,1.914-0.516c1.828-1.058,2.457-3.406,1.403-5.234C33.141,44.418,31.871,43.684,30.504,43.684z"/> </symbol><symbol viewBox="0 0 30 26.25" id="icon-date"><title>date</title> <path d="M3.043,3.75c-0.644,0-1.167,0.523-1.167,1.167v18.286c0,0.648,0.523,1.171,1.167,1.171h23.911
	c0.648,0,1.172-0.523,1.172-1.167V4.917c0-0.644-0.524-1.167-1.168-1.167H3.043z M26.958,26.25H3.043C1.368,26.25,0,24.882,0,23.207
	V4.917c0-1.675,1.368-3.043,3.043-3.043h23.911C28.633,1.874,30,3.242,30,4.917v18.286C30,24.882,28.633,26.25,26.958,26.25z"/> <rect x="0.938" y="7.5" width="28.125" height="1.875"/> <rect x="4.688" width="1.875" height="5.625"/> <rect x="8.438" width="1.875" height="5.625"/> <rect x="19.688" width="1.875" height="5.625"/> <rect x="23.438" width="1.875" height="5.625"/> </symbol><symbol viewBox="0 0 75 75" id="icon-envoyer"><title>envoyer</title> <path d="M3.824,68.102l5.699-24.676c0.227-1.051,1.125-1.875,2.25-2.024l31.875-3.3c0.899-0.075,0.899-1.426,0-1.575l-31.875-3.074
	c-1.125-0.074-2.023-0.898-2.25-1.949L3.824,6.898C3.301,4.801,5.551,3.074,7.5,4.051L69.824,35.25c1.875,0.977,1.875,3.676,0,4.648
	L7.5,70.949C5.551,71.926,3.301,70.199,3.824,68.102z"/> </symbol><symbol viewBox="0 0 75 75" id="icon-home"><title>home</title> <path d="M56.1,42.8v17.5c0,1.3-0.7,2.1-1,2.1h-8.7c-0.4,0-0.8-0.3-0.8-0.8V47c0-2-1.6-3.7-3.7-3.7h-8.8c-2,0-3.7,1.6-3.7,3.7v14.6
	c0,0.4-0.3,0.8-0.8,0.8h-8.5c0,0-0.1,0-0.1,0c0,0-0.1,0-0.1,0c-0.6,0-1-0.5-1-1V29.6l18.5-16.5l18.7,16.7V42.8z M66.2,34.9
	L38.6,10.2c0,0-0.1-0.1-0.2-0.1c-0.5-0.5-1.4-0.6-2,0L8.8,34.7c-0.6,0.5-0.7,1.5-0.1,2.1c0.3,0.3,0.7,0.5,1.1,0.5
	c0.3,0,0.7-0.1,1-0.4l5.3-4.7v29.2c0,2.2,1.8,3.9,3.9,3.9c0,0,0.1,0,0.1,0c0,0,0.1,0,0.1,0h8.5c1.9,0,3.5-1.5,3.6-3.4
	c0-0.1,0-0.2,0-0.3V47c0-0.4,0.3-0.8,0.8-0.8h8.8c0.4,0,0.8,0.3,0.8,0.8v14.6c0,0.1,0,0.2,0,0.3c0.2,1.9,1.7,3.4,3.6,3.4h8.7
	c2.2,0,3.9-2.2,3.9-5v-28l5.3,4.7c0.3,0.2,0.6,0.4,1,0.4c0.4,0,0.8-0.2,1.1-0.5C66.8,36.4,66.8,35.4,66.2,34.9z"/> </symbol><symbol viewBox="0 0 55.406 55.483" id="icon-lien"><title>lien</title> <path d="M49.182,21.807L36.96,34.034c-3.899,3.898-10.125,4.273-14.399,0.976l2.852-2.851c1.05,0.676,2.324,1.051,3.601,1.051
	c0.149,0,0.375,0,0.524,0c1.949-0.149,3.976-1.051,5.55-2.625L45.663,20.01c1.8-1.8,2.773-3.75,2.851-5.699
	c0.074-1.949-0.75-3.75-2.324-5.398c-1.273-1.274-3.227-2.024-5.25-2.024c-2.176,0-4.273,0.899-5.852,2.477l-1.5,1.5
	c-1.125-0.449-2.324-0.824-3.449-1.051l3.602-3.602c4.273-4.273,11.25-4.273,15.523,0C53.46,10.557,53.46,17.534,49.182,21.807z
	 M51.358,4.108c-5.477-5.477-14.324-5.477-19.801,0l-5.551,5.551c-0.074,0.074-0.074,0.074-0.074,0.148
	c-0.301,0.301-0.523,0.676-0.523,1.125c0,0.824,0.676,1.5,1.5,1.5c2.101,0,4.273,0.524,6.375,1.574
	c0.226,0.075,0.449,0.149,0.676,0.149c0.449,0,0.898-0.227,1.199-0.602c0.074-0.074,0.148-0.074,0.148-0.148l1.949-1.949
	c1.051-1.051,2.325-1.575,3.75-1.649c1.2,0,2.399,0.375,3.075,1.125c0.976,0.977,1.5,2.102,1.5,3.149
	c0,1.199-0.676,2.398-1.95,3.675L32.909,28.409c-1.051,1.051-2.324,1.726-3.602,1.801c-1.125,0.074-2.25-0.301-3-1.051
	c-0.301-0.301-0.676-0.449-1.051-0.449s-0.75,0.148-1.05,0.449l-4.875,4.875c-0.301,0.301-0.45,0.676-0.45,1.051
	s0.149,0.75,0.45,1.05c2.625,2.625,6.148,4.051,9.898,4.051s7.274-1.426,9.899-4.051l12.226-12.226
	C56.756,18.506,56.756,9.585,51.358,4.108z"/> <path d="M32.909,20.46l-2.852,2.773c-2.851-1.801-6.824-1.199-9.676,1.648L9.807,35.534c-1.801,1.801-2.773,3.75-2.851,5.699
	c-0.075,1.949,0.75,3.75,2.324,5.398c1.273,1.274,3.148,2.024,5.176,2.024c2.023,0,4.199-0.75,5.925-2.477l1.5-1.5
	c1.125,0.45,2.325,0.825,3.45,1.051l-3.602,3.602c-4.273,4.273-11.25,4.273-15.523,0c-4.274-4.274-4.274-11.25,0-15.524
	l12.226-12.226C22.409,17.534,28.557,17.159,32.909,20.46z M4.108,31.557c-5.477,5.477-5.477,14.324,0,19.801
	c2.699,2.699,6.301,4.125,9.898,4.125c3.602,0,7.2-1.352,9.899-4.125l5.551-5.551c0.074-0.074,0.074-0.074,0.074-0.148
	c0.301-0.301,0.523-0.676,0.523-1.125c0-0.824-0.675-1.5-1.5-1.5c-2.101,0-4.273-0.524-6.375-1.574
	c-0.675-0.301-1.425-0.075-1.875,0.449c0.078,0,0.004,0.074-0.07,0.074l-1.949,1.949c-2.176,2.176-5.324,1.949-6.824,0.449
	c-0.977-0.976-1.5-2.101-1.5-3.148c0-1.199,0.675-2.398,1.949-3.676l10.574-10.574c2.102-2.102,4.949-2.398,6.602-0.676
	c0.074,0.074,0.148,0.149,0.226,0.149l0,0c0,0,0.074,0,0.074,0.074c0.227,0.148,0.524,0.226,0.75,0.226c0.227,0,0.375,0,0.602-0.074
	c0.074,0,0.148-0.074,0.226-0.148c0.075-0.074,0.149-0.149,0.227-0.227l4.875-4.875c0.602-0.601,0.602-1.5,0-2.101
	c-5.477-5.477-14.324-5.477-19.801,0L4.108,31.557z"/> </symbol><symbol viewBox="829 -286 1844.64 647" id="icon-logoVecto"><title>logoVecto</title> <path d="M972.653,194.88l-44.963-44.964l44.963-44.963l44.963,44.963L972.653,194.88z M1332.353-74.908l-44.963-44.963
	l-44.964-44.964l-44.963,44.963L1152.5-74.91l-44.963,44.963l-44.963,44.963l44.963,44.964l44.963,44.963l-44.963,44.963
	l-44.963-44.963l-44.964,44.963l44.964,44.963l44.963,44.964l44.963-44.963l44.963-44.962l44.963-44.963l-44.963-44.963
	L1152.5,15.018l44.963-44.963l44.963-44.963l44.964,44.963l-44.964,44.963l44.964,44.964l44.963-44.964l44.963-44.963"/> <path d="M1152.5,361c-86.41,0-167.647-33.65-228.75-94.75S829,123.91,829,37.5s33.65-167.648,94.75-228.75S1066.09-286,1152.5-286
	s167.647,33.65,228.75,94.75S1476-48.91,1476,37.5s-33.65,167.647-94.75,228.75S1238.91,361,1152.5,361z M1152.5-251
	c-77.062,0-149.51,30.01-204,84.5S864-39.56,864,37.5c0,77.062,30.01,149.51,84.5,204s126.938,84.5,204,84.5s149.51-30.01,204-84.5
	s84.5-126.938,84.5-204c0-77.06-30.01-149.51-84.5-204S1229.562-251,1152.5-251z M1667.794,18.562V92.73h-51.477v-221.897h78.28
	c15.635,0,29.063,1.854,40.283,5.56c11.218,3.707,20.458,8.81,27.72,15.305c7.257,6.5,12.613,14.164,16.065,22.997
	c3.45,8.833,5.18,18.378,5.18,28.632c0,11.067-1.778,21.222-5.33,30.46c-3.557,9.24-8.987,17.16-16.297,23.758
	c-7.31,6.6-16.577,11.753-27.795,15.458c-11.22,3.708-24.496,5.56-39.825,5.56h-26.804V18.562z M1667.794-20.274h26.805
	c13.4,0,23.046-3.198,28.936-9.595c5.887-6.395,8.833-15.33,8.833-26.803c0-5.076-0.763-9.695-2.285-13.86
	c-1.523-4.16-3.834-7.74-6.93-10.736c-3.1-2.993-7.006-5.303-11.727-6.93c-4.722-1.622-10.333-2.436-16.83-2.436h-26.804v70.362
	L1667.794-20.274z M1861.512,51.61h82.24v41.12h-133.717v-221.897h51.477V51.61z M2021.727,92.73h-51.78v-221.897h51.78V92.73z
	 M2187.27-84.086c-1.522,2.437-3.12,4.264-4.797,5.482c-1.675,1.218-3.833,1.828-6.473,1.828c-2.336,0-4.85-0.735-7.538-2.208
	c-2.69-1.47-5.737-3.123-9.138-4.95c-3.403-1.828-7.287-3.477-11.65-4.95c-4.367-1.47-9.343-2.208-14.926-2.208
	c-9.647,0-16.83,2.056-21.55,6.168c-4.722,4.112-7.082,9.67-7.082,16.677c0,4.47,1.42,8.174,4.265,11.118
	c2.842,2.947,6.573,5.483,11.194,7.616c4.62,2.132,9.9,4.088,15.84,5.863c5.938,1.777,12.005,3.757,18.198,5.94
	c6.192,2.184,12.26,4.746,18.2,7.69c5.94,2.946,11.218,6.7,15.84,11.27c4.618,4.57,8.35,10.127,11.192,16.676
	c2.842,6.55,4.265,14.445,4.265,23.683c0,10.255-1.778,19.85-5.33,28.783c-3.557,8.936-8.708,16.73-15.46,23.378
	c-6.753,6.65-15.077,11.88-24.977,15.688s-21.146,5.71-33.733,5.71c-6.906,0-13.936-0.71-21.094-2.13
	c-7.157-1.422-14.087-3.428-20.788-6.017c-6.7-2.59-12.998-5.658-18.885-9.214c-5.89-3.553-11.018-7.512-15.382-11.88l15.23-24.06
	c1.22-1.727,2.817-3.174,4.797-4.34c1.98-1.167,4.136-1.752,6.473-1.752c3.046,0,6.116,0.966,9.214,2.894
	c3.097,1.93,6.6,4.062,10.51,6.396c3.906,2.337,8.4,4.47,13.478,6.396c5.076,1.93,11.065,2.894,17.97,2.894
	c9.342,0,16.602-2.057,21.78-6.168c5.178-4.112,7.767-10.635,7.767-19.57c0-5.178-1.424-9.39-4.266-12.64
	c-2.843-3.25-6.574-5.94-11.193-8.073c-4.62-2.132-9.875-4.01-15.762-5.635c-5.89-1.623-11.932-3.427-18.123-5.407
	c-6.194-1.98-12.236-4.416-18.124-7.31c-5.89-2.893-11.143-6.7-15.762-11.42c-4.62-4.722-8.353-10.61-11.193-17.668
	c-2.844-7.056-4.265-15.763-4.265-26.12c0-8.323,1.675-16.447,5.025-24.367s8.274-14.975,14.773-21.17
	c6.496-6.19,14.468-11.14,23.91-14.848c9.442-3.705,20.256-5.56,32.44-5.56c6.8,0,13.425,0.534,19.874,1.6
	c6.446,1.066,12.564,2.642,18.352,4.72c5.787,2.084,11.194,4.57,16.22,7.464c5.026,2.895,9.52,6.17,13.48,9.824l-12.793,23.91
	L2187.27-84.086z M2352.737,3.332c1.878,4.165,3.68,8.43,5.406,12.793c1.726-4.467,3.527-8.833,5.407-13.098
	c1.877-4.264,3.883-8.324,6.016-12.184l56.96-112.09c1.013-1.93,2.055-3.428,3.12-4.494c1.067-1.067,2.26-1.853,3.58-2.362
	c1.318-0.507,2.817-0.812,4.492-0.914c1.676-0.1,3.63-0.152,5.864-0.152h39.292V92.73h-45.385V-34.895
	c0-6.192,0.304-12.893,0.913-20.104l-58.786,114.07c-1.828,3.557-4.29,6.245-7.387,8.073c-3.1,1.827-6.625,2.74-10.585,2.74h-7.006
	c-3.96,0-7.49-0.913-10.585-2.74c-3.1-1.828-5.56-4.517-7.387-8.072l-59.09-114.22c0.405,3.555,0.71,7.082,0.914,10.584
	c0.202,3.503,0.305,6.727,0.305,9.67V92.73h-45.385v-221.897h39.293c2.232,0,4.188,0.052,5.863,0.152
	c1.676,0.102,3.172,0.407,4.493,0.914c1.32,0.508,2.514,1.293,3.58,2.36c1.065,1.066,2.105,2.565,3.122,4.493L2346.872-8.7
	C2348.902-4.84,2350.857-0.83,2352.737,3.332z M2668.676-129.167v39.597h-91.074v51.78h69.752V0.287h-69.752v52.847h91.074V92.73
	H2525.82v-221.897L2668.676-129.167L2668.676-129.167z"/> <g> <path d="M1689.676,215.027h-13.335c-1.493,0-2.697-0.348-3.613-1.043s-1.61-1.586-2.087-2.673l-4.377-12.927h-28.196l-4.377,12.928
		c-0.374,0.952-1.043,1.81-2.01,2.57c-0.968,0.765-2.164,1.147-3.59,1.147h-13.436l28.705-74.156h17.61l28.706,74.157V215.027z
		 M1642.036,186.677h20.257l-6.82-20.307c-0.51-1.29-1.052-2.807-1.628-4.555c-0.578-1.747-1.154-3.64-1.73-5.675
		c-0.544,2.07-1.095,3.987-1.654,5.75c-0.56,1.766-1.094,3.293-1.603,4.582l-6.82,20.206L1642.036,186.677z M1713.8,161.332
		c2.24,0,4.352,0.22,6.337,0.66c1.984,0.442,3.825,1.07,5.52,1.885h15.932v5.75c0,0.884-0.247,1.58-0.74,2.088s-1.33,0.9-2.518,1.17
		l-3.868,0.865c0.475,1.527,0.712,3.105,0.712,4.733c0,2.647-0.552,5.022-1.653,7.126c-1.104,2.103-2.613,3.893-4.53,5.368
		c-1.917,1.477-4.183,2.613-6.795,3.41c-2.613,0.798-5.412,1.196-8.397,1.196c-1.662,0-3.223-0.102-4.682-0.306
		c-1.154,0.68-1.73,1.46-1.73,2.342c0,0.883,0.475,1.52,1.425,1.908c0.95,0.39,2.206,0.662,3.767,0.814s3.334,0.255,5.318,0.306
		c1.985,0.05,4.013,0.17,6.082,0.356s4.098,0.5,6.083,0.94c1.984,0.442,3.757,1.154,5.318,2.14c1.562,0.983,2.816,2.298,3.768,3.943
		c0.95,1.646,1.425,3.74,1.425,6.285c0,2.375-0.577,4.7-1.73,6.973c-1.154,2.273-2.85,4.292-5.09,6.058
		c-2.24,1.764-4.987,3.18-8.245,4.25c-3.258,1.068-6.99,1.603-11.197,1.603c-4.14,0-7.71-0.39-10.713-1.17s-5.496-1.808-7.48-3.08
		s-3.454-2.74-4.403-4.402c-0.95-1.663-1.426-3.394-1.426-5.19c0-2.342,0.68-4.294,2.036-5.855c1.356-1.56,3.258-2.816,5.7-3.767
		c-1.29-0.78-2.308-1.78-3.054-3.003s-1.12-2.8-1.12-4.733c0-0.78,0.136-1.604,0.408-2.47c0.27-0.864,0.694-1.704,1.272-2.52
		c0.576-0.813,1.306-1.593,2.188-2.34c0.882-0.746,1.934-1.407,3.155-1.985c-2.748-1.458-4.91-3.393-6.49-5.802
		s-2.366-5.208-2.366-8.398c0-2.646,0.56-5.03,1.68-7.15s2.655-3.92,4.606-5.396c1.95-1.476,4.25-2.612,6.896-3.41
		s5.512-1.194,8.6-1.194L1713.8,161.332z M1726.015,216.962c0-1.256-0.56-2.164-1.68-2.724s-2.58-0.95-4.377-1.17
		c-1.8-0.22-3.817-0.356-6.057-0.407c-2.238-0.05-4.46-0.194-6.666-0.432c-0.984,0.68-1.78,1.434-2.393,2.265
		c-0.61,0.83-0.915,1.772-0.915,2.824c0,0.746,0.16,1.426,0.483,2.036s0.89,1.137,1.705,1.578c0.814,0.44,1.91,0.79,3.283,1.044
		s3.112,0.382,5.217,0.382c2.272,0,4.14-0.136,5.6-0.407c1.457-0.272,2.62-0.646,3.485-1.12s1.467-1.044,1.807-1.706
		c0.34-0.66,0.51-1.383,0.51-2.163L1726.015,216.962z M1713.8,185.864c2.612,0,4.504-0.653,5.675-1.96
		c1.17-1.306,1.756-2.994,1.756-5.064c0-2.138-0.584-3.817-1.755-5.038c-1.17-1.222-3.062-1.833-5.675-1.833
		s-4.505,0.61-5.675,1.832c-1.17,1.22-1.756,2.9-1.756,5.038c0,1.02,0.143,1.952,0.432,2.8c0.287,0.85,0.737,1.586,1.35,2.214
		c0.61,0.628,1.38,1.12,2.314,1.476C1711.398,185.685,1712.51,185.863,1713.8,185.864L1713.8,185.864z M1770.447,161.434
		c3.494,0,6.693,0.543,9.594,1.63c2.902,1.085,5.397,2.663,7.483,4.732s3.715,4.605,4.886,7.608s1.755,6.405,1.755,10.205
		c0,1.187-0.05,2.154-0.152,2.9c-0.103,0.746-0.29,1.34-0.56,1.78c-0.272,0.442-0.637,0.747-1.095,0.917s-1.044,0.254-1.756,0.254
		h-30.437c0.51,4.413,1.85,7.61,4.02,9.596c2.172,1.984,4.97,2.978,8.398,2.978c1.832,0,3.41-0.22,4.733-0.662
		c1.323-0.44,2.502-0.933,3.537-1.476s1.985-1.035,2.85-1.477c0.866-0.44,1.773-0.662,2.724-0.662c1.255,0,2.205,0.458,2.85,1.374
		l4.58,5.65c-1.627,1.865-3.383,3.384-5.267,4.554c-1.883,1.17-3.817,2.087-5.802,2.75c-1.985,0.66-3.97,1.118-5.955,1.373
		s-3.877,0.38-5.675,0.38c-3.7,0-7.17-0.602-10.408-1.806c-3.24-1.204-6.074-2.994-8.5-5.37c-2.426-2.374-4.344-5.326-5.75-8.855
		c-1.41-3.53-2.113-7.636-2.113-12.318c0-3.528,0.602-6.87,1.807-10.026c1.204-3.155,2.935-5.92,5.19-8.296
		c2.257-2.375,4.99-4.258,8.195-5.65c3.207-1.39,6.83-2.086,10.867-2.086L1770.447,161.434z M1770.753,172.324
		c-3.02,0-5.378,0.858-7.074,2.57c-1.698,1.715-2.818,4.184-3.36,7.406h19.696c0-1.255-0.16-2.477-0.483-3.664
		s-0.85-2.248-1.577-3.182c-0.73-0.933-1.688-1.688-2.876-2.265C1773.889,172.613,1772.449,172.324,1770.753,172.324
		L1770.753,172.324z M1802.052,215.027v-52.78h9.772c1.968,0,3.258,0.884,3.868,2.647l0.916,3.054
		c1.018-0.95,2.07-1.832,3.155-2.646s2.248-1.502,3.486-2.062s2.578-1,4.02-1.323c1.44-0.322,3.01-0.483,4.708-0.483
		c2.883,0,5.437,0.5,7.66,1.5c2.222,1.003,4.097,2.394,5.623,4.175c1.528,1.78,2.682,3.9,3.462,6.36s1.17,5.134,1.17,8.017v33.54
		h-15.776v-33.54c0-2.578-0.595-4.588-1.782-6.03c-1.188-1.442-2.935-2.164-5.242-2.164c-1.73,0-3.358,0.374-4.886,1.12
		c-1.527,0.747-2.986,1.748-4.377,3.003v37.612H1802.052L1802.052,215.027z M1898.856,174.77c-0.476,0.576-0.934,1.034-1.374,1.373
		c-0.44,0.34-1.07,0.51-1.883,0.51c-0.782,0-1.486-0.187-2.113-0.56c-0.63-0.374-1.332-0.79-2.112-1.248
		c-0.78-0.458-1.697-0.873-2.75-1.247c-1.05-0.373-2.357-0.56-3.918-0.56c-1.934,0-3.605,0.356-5.013,1.068
		c-1.408,0.713-2.57,1.73-3.486,3.054s-1.596,2.944-2.036,4.86c-0.44,1.918-0.662,4.08-0.662,6.49c0,5.056,0.976,8.94,2.927,11.655
		s4.64,4.07,8.067,4.07c1.832,0,3.282-0.228,4.352-0.687c1.068-0.458,1.977-0.967,2.723-1.526s1.433-1.077,2.06-1.553
		c0.63-0.476,1.417-0.713,2.368-0.713c1.255,0,2.205,0.458,2.85,1.374l4.58,5.65c-1.628,1.866-3.342,3.385-5.14,4.555
		c-1.8,1.17-3.64,2.087-5.522,2.75c-1.883,0.66-3.775,1.118-5.675,1.373s-3.75,0.382-5.547,0.382c-3.224,0-6.303-0.61-9.237-1.832
		c-2.936-1.222-5.515-2.994-7.736-5.32c-2.223-2.322-3.987-5.182-5.293-8.575c-1.307-3.392-1.96-7.26-1.96-11.604
		c0-3.8,0.567-7.355,1.705-10.664c1.137-3.31,2.816-6.175,5.04-8.602c2.22-2.426,4.97-4.334,8.244-5.726
		c3.273-1.39,7.065-2.087,11.375-2.087c4.14,0,7.77,0.663,10.893,1.986s5.938,3.257,8.45,5.802l-4.177,5.55V174.77z
		 M1931.94,161.434c3.493,0,6.692,0.543,9.593,1.63c2.9,1.085,5.396,2.663,7.482,4.732s3.715,4.605,4.886,7.608
		s1.757,6.405,1.757,10.205c0,1.187-0.05,2.154-0.152,2.9c-0.103,0.746-0.29,1.34-0.56,1.78c-0.272,0.442-0.637,0.747-1.095,0.917
		s-1.044,0.254-1.756,0.254h-30.437c0.51,4.413,1.85,7.61,4.02,9.596c2.172,1.984,4.97,2.978,8.398,2.978
		c1.832,0,3.41-0.22,4.733-0.662c1.323-0.44,2.502-0.933,3.537-1.476s1.985-1.035,2.85-1.477c0.866-0.44,1.773-0.662,2.724-0.662
		c1.254,0,2.204,0.458,2.85,1.374l4.58,5.65c-1.628,1.865-3.384,3.384-5.268,4.554c-1.883,1.17-3.817,2.087-5.802,2.75
		c-1.985,0.66-3.97,1.118-5.955,1.373s-3.877,0.38-5.675,0.38c-3.7,0-7.17-0.602-10.408-1.806c-3.24-1.204-6.074-2.994-8.5-5.37
		c-2.426-2.374-4.344-5.326-5.75-8.855c-1.41-3.53-2.113-7.636-2.113-12.318c0-3.528,0.6-6.87,1.806-10.026
		c1.204-3.155,2.935-5.92,5.19-8.296c2.257-2.375,4.99-4.258,8.195-5.65c3.21-1.39,6.83-2.086,10.87-2.086L1931.94,161.434z
		 M1932.245,172.324c-3.02,0-5.378,0.858-7.074,2.57c-1.696,1.715-2.816,4.184-3.358,7.406h19.696c0-1.255-0.16-2.477-0.483-3.664
		s-0.85-2.248-1.577-3.182c-0.73-0.933-1.688-1.688-2.876-2.265C1935.383,172.613,1933.943,172.324,1932.245,172.324
		L1932.245,172.324z M1981.917,140.87h14.455c1.492,0,2.74,0.34,3.74,1.02c1,0.68,1.654,1.577,1.96,2.697l10.18,38.682
		c0.305,1.254,0.61,2.595,0.916,4.02c0.305,1.425,0.61,2.918,0.916,4.48c0.61-3.19,1.356-6.023,2.24-8.5l12.01-38.682
		c0.307-0.95,0.96-1.807,1.96-2.57s2.215-1.146,3.64-1.146h5.09c1.492,0,2.697,0.35,3.613,1.044s1.61,1.586,2.087,2.672
		l11.91,38.682c0.88,2.375,1.628,5.072,2.24,8.092c0.27-1.492,0.55-2.918,0.838-4.275c0.288-1.356,0.586-2.63,0.892-3.816
		l10.18-38.68c0.27-0.984,0.915-1.85,1.934-2.597c1.018-0.746,2.24-1.12,3.664-1.12h13.538l-22.903,74.156h-15.574l-13.945-45.96
		c-0.51-1.46-1-3.14-1.476-5.04c-0.476,1.9-0.968,3.58-1.477,5.04l-14.148,45.96h-15.575L1981.917,140.87L1981.917,140.87z
		 M2112.06,161.434c3.493,0,6.692,0.543,9.593,1.63c2.9,1.085,5.396,2.663,7.482,4.732s3.715,4.605,4.886,7.608
		s1.757,6.405,1.757,10.205c0,1.187-0.05,2.154-0.152,2.9c-0.103,0.746-0.29,1.34-0.56,1.78c-0.272,0.442-0.637,0.747-1.095,0.917
		s-1.044,0.254-1.756,0.254h-30.437c0.51,4.413,1.85,7.61,4.02,9.596c2.172,1.984,4.97,2.978,8.398,2.978
		c1.832,0,3.41-0.22,4.733-0.662c1.323-0.44,2.502-0.933,3.537-1.476s1.985-1.035,2.85-1.477c0.866-0.44,1.773-0.662,2.724-0.662
		c1.254,0,2.204,0.458,2.85,1.374l4.58,5.65c-1.628,1.865-3.384,3.384-5.268,4.554c-1.883,1.17-3.817,2.087-5.802,2.75
		c-1.985,0.66-3.97,1.118-5.955,1.373s-3.877,0.38-5.675,0.38c-3.7,0-7.17-0.602-10.408-1.806c-3.24-1.204-6.074-2.994-8.5-5.37
		c-2.426-2.374-4.344-5.326-5.75-8.855c-1.41-3.53-2.113-7.636-2.113-12.318c0-3.528,0.6-6.87,1.806-10.026
		c1.204-3.155,2.935-5.92,5.19-8.296c2.257-2.375,4.99-4.258,8.195-5.65c3.208-1.39,6.83-2.086,10.87-2.086V161.434z
		 M2112.364,172.324c-3.02,0-5.378,0.858-7.074,2.57c-1.697,1.715-2.817,4.184-3.36,7.406h19.697c0-1.255-0.16-2.477-0.483-3.664
		s-0.85-2.248-1.577-3.182c-0.73-0.933-1.688-1.688-2.876-2.265c-1.188-0.576-2.63-0.865-4.326-0.865H2112.364z M2143.663,215.027
		v-76.19h15.778v29.06c2.037-1.967,4.26-3.536,6.668-4.707s5.123-1.756,8.144-1.756c2.985,0,5.7,0.61,8.144,1.832
		s4.53,2.96,6.26,5.217c1.73,2.257,3.062,4.98,3.996,8.17c0.933,3.19,1.4,6.752,1.4,10.687c0,4.275-0.544,8.16-1.63,11.655
		s-2.62,6.49-4.605,8.983c-1.985,2.493-4.353,4.428-7.1,5.802s-5.786,2.062-9.11,2.062c-1.597,0-3.022-0.152-4.276-0.458
		c-1.255-0.306-2.408-0.738-3.46-1.298s-2.01-1.23-2.876-2.01c-0.865-0.78-1.704-1.63-2.52-2.546l-0.56,2.646
		c-0.27,1.087-0.712,1.833-1.323,2.24c-0.61,0.407-1.424,0.61-2.44,0.61h-10.487L2143.663,215.027z M2168.703,173.292
		c-1.933,0-3.612,0.425-5.037,1.272c-1.426,0.85-2.834,2.087-4.225,3.716v22.395c1.19,1.323,2.478,2.248,3.87,2.773
		c1.39,0.526,2.798,0.79,4.224,0.79c1.492,0,2.866-0.28,4.122-0.84c1.255-0.56,2.333-1.477,3.232-2.75
		c0.898-1.27,1.603-2.95,2.112-5.038c0.51-2.087,0.763-4.657,0.763-7.71c0-2.647-0.195-4.895-0.585-6.744
		c-0.39-1.85-0.967-3.36-1.73-4.53s-1.714-2.02-2.85-2.545c-1.137-0.524-2.435-0.788-3.894-0.788L2168.703,173.292z
		 M2268.46,155.937c-0.51,0.814-1.044,1.426-1.604,1.833c-0.56,0.406-1.28,0.61-2.163,0.61c-0.78,0-1.62-0.246-2.52-0.738
		c-0.9-0.49-1.918-1.043-3.054-1.654c-1.14-0.61-2.437-1.16-3.895-1.653c-1.46-0.492-3.122-0.738-4.988-0.738
		c-3.224,0-5.624,0.687-7.2,2.062c-1.58,1.373-2.368,3.23-2.368,5.572c0,1.493,0.474,2.73,1.424,3.715
		c0.95,0.984,2.197,1.832,3.74,2.545s3.31,1.366,5.294,1.96c1.985,0.594,4.013,1.255,6.082,1.984c2.07,0.73,4.098,1.587,6.082,2.57
		c1.985,0.984,3.75,2.24,5.294,3.767c1.543,1.526,2.79,3.385,3.74,5.573s1.426,4.827,1.426,7.914c0,3.428-0.595,6.634-1.78,9.62
		c-1.19,2.985-2.91,5.59-5.167,7.81c-2.258,2.224-5.04,3.972-8.348,5.243c-3.308,1.272-7.066,1.91-11.273,1.91
		c-2.308,0-4.657-0.24-7.05-0.714c-2.392-0.476-4.707-1.146-6.946-2.01s-4.344-1.893-6.312-3.08c-1.968-1.188-3.682-2.51-5.14-3.97
		l5.09-8.042c0.406-0.577,0.94-1.06,1.603-1.45c0.66-0.39,1.38-0.586,2.162-0.586c1.018,0,2.044,0.323,3.08,0.967
		c1.033,0.645,2.204,1.356,3.51,2.137c1.307,0.78,2.81,1.493,4.505,2.138c1.696,0.646,3.698,0.967,6.006,0.967
		c3.122,0,5.548-0.687,7.278-2.06c1.73-1.376,2.597-3.556,2.597-6.542c0-1.73-0.476-3.138-1.425-4.224
		c-0.95-1.086-2.197-1.985-3.74-2.698c-1.545-0.712-3.3-1.34-5.27-1.883c-1.967-0.542-3.986-1.146-6.056-1.807
		c-2.07-0.662-4.09-1.477-6.057-2.443s-3.726-2.24-5.27-3.817s-2.79-3.545-3.74-5.903s-1.425-5.268-1.425-8.73
		c0-2.78,0.56-5.496,1.68-8.143c1.12-2.646,2.765-5.005,4.937-7.075c2.17-2.07,4.835-3.723,7.99-4.962
		c3.156-1.238,6.77-1.857,10.842-1.857c2.272,0,4.486,0.178,6.642,0.534c2.154,0.356,4.2,0.883,6.133,1.577
		c1.934,0.695,3.74,1.526,5.42,2.493s3.18,2.062,4.504,3.283l-4.275,7.99L2268.46,155.937z M2299.81,147.793
		c0,1.256-0.254,2.436-0.763,3.538s-1.205,2.07-2.087,2.9c-0.883,0.833-1.91,1.495-3.08,1.986c-1.17,0.492-2.417,0.738-3.74,0.738
		c-1.29,0-2.494-0.246-3.613-0.738c-1.12-0.49-2.112-1.153-2.978-1.985c-0.866-0.83-1.546-1.797-2.037-2.9
		c-0.492-1.102-0.738-2.28-0.738-3.537c0-1.29,0.246-2.493,0.738-3.613c0.49-1.12,1.17-2.104,2.036-2.952
		c0.864-0.848,1.856-1.51,2.977-1.984c1.12-0.476,2.323-0.713,3.613-0.713c1.323,0,2.57,0.238,3.74,0.714s2.197,1.137,3.08,1.984
		c0.882,0.85,1.578,1.832,2.087,2.952s0.763,2.324,0.763,3.613L2299.81,147.793z M2298.182,162.248v52.78h-15.778v-52.78H2298.182z
		 M2309.226,215.027v-52.78h9.772c1.968,0,3.258,0.884,3.868,2.647l0.865,2.85c0.883-0.916,1.8-1.755,2.75-2.52
		s1.976-1.425,3.078-1.984s2.29-1,3.563-1.323c1.273-0.322,2.673-0.483,4.2-0.483c3.188,0,5.827,0.823,7.914,2.47
		s3.672,3.842,4.76,6.59c0.88-1.63,1.958-3.02,3.23-4.174c1.272-1.153,2.646-2.087,4.123-2.8c1.476-0.712,3.036-1.237,4.683-1.577
		c1.645-0.34,3.282-0.51,4.91-0.51c3.02,0,5.7,0.45,8.043,1.35c2.34,0.9,4.3,2.206,5.878,3.92c1.58,1.713,2.775,3.816,3.59,6.31
		c0.813,2.495,1.22,5.32,1.22,8.475v33.54h-15.776v-33.54c0-5.462-2.342-8.194-7.024-8.194c-2.137,0-3.91,0.705-5.318,2.112
		c-1.408,1.41-2.112,3.436-2.112,6.082v33.54h-15.777v-33.54c0-3.02-0.595-5.14-1.78-6.36c-1.19-1.223-2.937-1.834-5.243-1.834
		c-1.426,0-2.774,0.323-4.047,0.968s-2.47,1.51-3.588,2.596v38.172h-15.78L2309.226,215.027z M2395.85,231.772v-69.524h9.773
		c1.968,0,3.258,0.883,3.868,2.646l1.172,3.868c1.018-1.12,2.112-2.138,3.282-3.054s2.426-1.705,3.767-2.367
		c1.34-0.66,2.783-1.177,4.327-1.55c1.544-0.374,3.23-0.56,5.064-0.56c2.75,0,5.294,0.61,7.635,1.83
		c2.342,1.223,4.36,2.987,6.057,5.294c1.696,2.308,3.028,5.133,3.996,8.475c0.967,3.34,1.45,7.133,1.45,11.374
		c0,3.97-0.552,7.635-1.654,10.993c-1.103,3.36-2.646,6.278-4.632,8.755c-1.984,2.477-4.36,4.41-7.125,5.802
		c-2.766,1.39-5.828,2.087-9.187,2.087c-2.75,0-5.057-0.39-6.922-1.17c-1.867-0.78-3.563-1.832-5.09-3.155v20.257h-15.777
		L2395.85,231.772z M2421.604,173.292c-1.154,0-2.197,0.11-3.13,0.33c-0.934,0.223-1.8,0.535-2.596,0.942
		c-0.798,0.407-1.536,0.925-2.214,1.553c-0.68,0.628-1.357,1.35-2.036,2.163v22.395c1.188,1.323,2.477,2.248,3.868,2.773
		c1.39,0.526,2.85,0.79,4.377,0.79c1.458,0,2.8-0.29,4.02-0.866c1.223-0.576,2.283-1.5,3.183-2.773
		c0.898-1.273,1.603-2.928,2.112-4.964c0.51-2.036,0.763-4.512,0.763-7.43c0-2.783-0.202-5.124-0.61-7.024s-0.975-3.436-1.704-4.606
		c-0.73-1.17-1.604-2.01-2.62-2.52c-1.02-0.51-2.157-0.764-3.412-0.764L2421.604,173.292z M2470.16,138.836v76.19h-15.78v-76.19
		H2470.16z M2498.61,147.793c0,1.256-0.255,2.436-0.764,3.538s-1.205,2.07-2.087,2.9c-0.884,0.833-1.91,1.495-3.08,1.986
		c-1.17,0.492-2.418,0.738-3.74,0.738c-1.29,0-2.495-0.246-3.614-0.738c-1.12-0.49-2.112-1.153-2.978-1.985
		c-0.865-0.83-1.545-1.797-2.036-2.9c-0.492-1.102-0.738-2.28-0.738-3.537c0-1.29,0.246-2.493,0.738-3.613
		c0.49-1.12,1.17-2.104,2.036-2.952c0.865-0.848,1.857-1.51,2.978-1.984c1.12-0.476,2.323-0.713,3.613-0.713
		c1.322,0,2.57,0.238,3.74,0.714s2.196,1.137,3.08,1.984c0.88,0.85,1.577,1.832,2.086,2.952s0.763,2.324,0.763,3.613
		L2498.61,147.793z M2496.98,162.248v52.78h-15.777v-52.78H2496.98L2496.98,162.248z M2511.944,215.027V173.09l-3.46-0.714
		c-1.19-0.27-2.147-0.694-2.876-1.272c-0.73-0.576-1.095-1.425-1.095-2.545v-6.21h7.43v-0.764c0-3.188,0.553-6.2,1.655-9.034
		c1.103-2.832,2.808-5.293,5.115-7.38c2.308-2.086,5.25-3.74,8.83-4.962s7.847-1.832,12.8-1.832c1.528,0,3.105,0.076,4.734,0.23
		c1.63,0.152,3.036,0.38,4.225,0.687l-0.51,7.99c-0.067,0.85-0.49,1.408-1.27,1.68c-0.782,0.272-1.613,0.407-2.495,0.407
		c-3.53,0-6.447,0.272-8.754,0.814c-2.308,0.543-4.132,1.35-5.472,2.418c-1.34,1.068-2.272,2.4-2.798,3.995
		c-0.526,1.594-0.79,3.427-0.79,5.496v0.254h33.49v52.678h-15.777V173.14h-17.203v41.888h-15.778L2511.944,215.027z
		 M2595.058,161.434c3.494,0,6.693,0.543,9.594,1.63c2.9,1.085,5.396,2.663,7.482,4.732s3.715,4.605,4.886,7.608
		s1.756,6.405,1.756,10.205c0,1.187-0.05,2.154-0.152,2.9c-0.103,0.746-0.29,1.34-0.56,1.78c-0.272,0.442-0.637,0.747-1.095,0.917
		s-1.045,0.254-1.757,0.254h-30.437c0.51,4.413,1.85,7.61,4.02,9.596c2.172,1.984,4.97,2.978,8.398,2.978
		c1.832,0,3.41-0.22,4.733-0.662c1.323-0.44,2.502-0.933,3.537-1.476s1.985-1.035,2.85-1.477c0.866-0.44,1.773-0.662,2.724-0.662
		c1.255,0,2.205,0.458,2.85,1.374l4.58,5.65c-1.627,1.865-3.383,3.384-5.267,4.554c-1.882,1.17-3.816,2.087-5.8,2.75
		c-1.986,0.66-3.97,1.118-5.956,1.373s-3.877,0.38-5.675,0.38c-3.7,0-7.17-0.602-10.41-1.806s-6.073-2.994-8.5-5.37
		c-2.425-2.374-4.343-5.326-5.75-8.855c-1.408-3.53-2.112-7.636-2.112-12.318c0-3.528,0.602-6.87,1.807-10.026
		c1.204-3.155,2.935-5.92,5.19-8.296c2.257-2.375,4.99-4.258,8.195-5.65c3.207-1.39,6.83-2.086,10.868-2.086L2595.058,161.434z
		 M2595.363,172.324c-3.02,0-5.378,0.858-7.074,2.57c-1.698,1.715-2.818,4.184-3.36,7.406h19.696c0-1.255-0.16-2.477-0.483-3.664
		s-0.85-2.248-1.577-3.182c-0.73-0.933-1.688-1.688-2.876-2.265C2598.499,172.613,2597.059,172.324,2595.363,172.324
		L2595.363,172.324z M2615.62,140.058l-13.233,13.385c-0.78,0.78-1.526,1.333-2.24,1.654c-0.712,0.323-1.662,0.483-2.85,0.483
		h-9.467l6.922-12.47c0.577-0.983,1.256-1.738,2.036-2.265c0.78-0.525,1.968-0.788,3.562-0.788L2615.62,140.058L2615.62,140.058z
		 M2649.922,161.434c3.494,0,6.693,0.543,9.594,1.63c2.9,1.085,5.396,2.663,7.482,4.732s3.715,4.605,4.886,7.608
		s1.756,6.405,1.756,10.205c0,1.187-0.05,2.154-0.152,2.9c-0.103,0.746-0.29,1.34-0.56,1.78c-0.272,0.442-0.637,0.747-1.095,0.917
		s-1.044,0.254-1.756,0.254h-30.437c0.51,4.413,1.85,7.61,4.02,9.596c2.172,1.984,4.97,2.978,8.398,2.978
		c1.832,0,3.41-0.22,4.733-0.662c1.324-0.44,2.503-0.933,3.538-1.476s1.985-1.035,2.85-1.477c0.866-0.44,1.773-0.662,2.724-0.662
		c1.255,0,2.205,0.458,2.85,1.374l4.58,5.65c-1.627,1.865-3.383,3.384-5.267,4.554c-1.883,1.17-3.817,2.087-5.802,2.75
		c-1.985,0.66-3.97,1.118-5.955,1.373s-3.877,0.38-5.675,0.38c-3.7,0-7.17-0.602-10.408-1.806c-3.24-1.204-6.074-2.994-8.5-5.37
		c-2.426-2.374-4.344-5.326-5.75-8.855c-1.41-3.53-2.113-7.636-2.113-12.318c0-3.528,0.602-6.87,1.807-10.026
		c1.203-3.155,2.934-5.92,5.19-8.296c2.256-2.375,4.988-4.258,8.194-5.65c3.208-1.39,6.83-2.086,10.868-2.086L2649.922,161.434z
		 M2650.228,172.324c-3.02,0-5.378,0.858-7.074,2.57c-1.697,1.715-2.817,4.184-3.36,7.406h19.697c0-1.255-0.16-2.477-0.482-3.664
		s-0.85-2.248-1.577-3.182c-0.73-0.933-1.687-1.688-2.875-2.265c-1.19-0.576-2.63-0.865-4.327-0.865H2650.228z"/> </g> </symbol><symbol viewBox="0 0 75 75" id="icon-mail"><title>mail</title> <path d="M12.324-114.434c-0.324-0.097-0.871-0.226-1.617-0.226c-2.844,0-5.137,2.683-5.137,5.82c0,1.422,0.711,2.457,2.133,2.457
	c1.875,0,3.586-2.39,3.942-4.398L12.324-114.434z M8.348-99.176c-5.301,0-9.793-3.879-9.793-10.086c0-6.66,4.621-12.41,11.797-12.41
	c5.625,0,9.406,3.942,9.406,9.34c0,4.848-2.715,7.695-5.754,7.695c-1.293,0-2.488-0.871-2.391-2.843h-0.129
	c-1.132,1.906-2.617,2.843-4.558,2.843c-1.875,0-3.492-1.519-3.492-4.074c0-4.008,3.168-7.66,7.66-7.66
	c1.386,0,2.617,0.289,3.457,0.68l-1.098,5.851c-0.484,2.457-0.098,3.59,0.969,3.621c1.648,0.035,3.492-2.164,3.492-5.914
	c0-4.687-2.812-8.047-7.824-8.047c-5.27,0-9.695,4.172-9.695,10.731c0,5.398,3.523,8.726,8.304,8.726
	c1.844,0,3.555-0.386,4.879-1.132l0.516,1.39C12.324-99.531,10.516-99.176,8.348-99.176z M40.203-112.211L8.824-85.641l-0.027-0.023
	L-4.789-96.949l-18.414-15.289v36.426h63.41v-36.399H40.203z M-22.512-114.32l4.477,3.718v-6.652L-22.512-114.32z M-15.988-108.949
	l12.5,10.426L8.758-88.309l0.027-0.023l24.199-20.609v-20.004h-48.972V-108.949z M2.926-130.992h11.488l-5.707-3.789L2.926-130.992z
	 M35.031-110.508l4.5-3.808l-4.5-2.989V-110.508z M42.25-114.965v41.199h-67.5v-41.203l7.215-4.73v-11.293h17.226l9.52-6.238
	l9.398,6.238h16.918v11.23L42.25-114.965z M8.785-88.336L-3.488-98.523L8.758-88.309L8.785-88.336z M-4.789-96.949l13.59,11.285
	L8.77-85.637L-4.789-96.949z"/> <path d="M67.765,27.602l-7.34-4.664v-7.763H48.208L37.311,8.25l-10.779,6.925H14.575v7.681l-7.264,4.667
	c-1.05,0.825-1.726,2.102-1.726,3.524v29.551c0,2.476,2.023,4.5,4.5,4.5h54.824c2.477,0,4.5-2.024,4.5-4.5V31.125
	C69.487,29.699,68.811,28.426,67.765,27.602z M65.288,29.551l-0.148,0.074l-4.715,3.754v-6.904L65.288,29.551z M37.311,11.852
	l5.252,3.323H32.179L37.311,11.852z M58.425,17.175v17.796L45.64,45.148l-7.875-6.226c-0.149-0.074-0.301-0.149-0.45-0.149
	c-0.148,0-0.3,0.075-0.449,0.149L29.14,45L16.575,34.979V17.175H58.425z M14.575,26.573v6.811l-4.713-3.759L14.575,26.573z
	 M8.589,60.676V31.125c0-0.148,0-0.227,0.074-0.375l19.199,15.227L8.737,61.125C8.663,60.977,8.589,60.824,8.589,60.676z
	 M10.163,62.25v-0.074H9.862L37.311,40.5l27.45,21.75H10.163z M66.487,60.676c0,0.301-0.074,0.523-0.226,0.75L46.839,46.125
	l19.574-15.523c0.074,0.148,0.074,0.3,0.074,0.523V60.676z"/> <path d="M37.857,29.918l1.144-3.642c-0.286-0.095-0.648-0.229-1.049-0.248c-0.286-0.019-0.572,0.019-0.858,0.114
	c-0.573,0.171-1.03,0.61-1.335,1.354c-0.381,0.839-0.381,1.64-0.019,2.231c0.248,0.42,0.648,0.668,1.03,0.686
	C37.189,30.414,37.647,30.109,37.857,29.918z M40.298,25.19l0.534,0.305l-1.488,4.766c0.286,0.495,0.801,1.43,1.506,1.468
	c1.106-0.229,2.04-2.803,2.174-4.595c0.171-2.288-1.64-4.481-4.538-4.69c-4.099-0.305-6.33,2.65-6.501,5.129
	c-0.324,4.728,3.471,6.73,6.845,6.883L38.696,36c-6.312-0.381-8.504-4.5-8.237-8.542c0.268-3.966,3.68-6.846,8.123-6.541
	c3.756,0.248,6.178,3.203,5.968,6.311c-0.171,2.46-1.525,5.739-3.68,6.025c-1.125,0.134-2.079-0.972-2.574-1.774
	c-0.4,0.248-0.934,0.439-1.545,0.458c-0.038-0.019-0.076-0.019-0.114-0.019c-0.877-0.057-1.697-0.572-2.192-1.373
	c-0.649-1.03-0.686-2.364-0.115-3.641c0.286-0.61,0.61-1.106,1.049-1.469c0.363-0.363,0.781-0.61,1.278-0.744
	c0.744-0.248,1.621-0.248,2.516,0.019C39.84,24.922,40.26,25.19,40.298,25.19z"/> </symbol><symbol viewBox="0 0 75 75" id="icon-methode"><title>methode</title> <path fill-rule="evenodd" clip-rule="evenodd" d="M37.5,12.305l4.699,7.047h-9.394L37.5,12.305z M37.5,6.895l-1.246,1.871
	l-9.055,13.582h20.606L37.5,6.898V6.895z"/> <path fill-rule="evenodd" clip-rule="evenodd" d="M57.605,54.602h10.5v10.5h-10.5V54.602z M54.605,51.602v16.5h16.5v-16.5H54.605z"/> <path d="M12.895,53.102c-3.333,0-6,2.668-6,6c0,3.332,2.667,6,6,6c3.332,0,6-2.668,6-6C18.895,55.77,16.227,53.102,12.895,53.102z
	 M12.895,50.102c4.953,0,9,4.046,9,9c0,4.953-4.047,9-9,9c-4.954,0-9-4.047-9-9C3.895,54.148,7.941,50.102,12.895,50.102z"/> <path fill-rule="evenodd" clip-rule="evenodd" d="M31.848,53.84L31.848,53.84c-0.391,0.012-0.762,0.172-1.032,0.453l-3.617,3.613
	c-0.789,0.598-0.793,1.782-0.011,2.383l0.003,0.004l3.625,3.621c1.414,1.328,3.45-0.711,2.118-2.121l-1.188-1.191h15.129
	c0.84,0.019,1.535-0.657,1.535-1.5c0-0.84-0.695-1.52-1.535-1.5H31.746l1.188-1.188C33.914,55.461,33.211,53.801,31.848,53.84z"/> <path fill-rule="evenodd" clip-rule="evenodd" d="M23.75,28.254c-1.82,0.363-3.699,0.949-5.535,1.441
	c-1.965,0.5-1.172,3.45,0.777,2.899l1.625-0.438l-7.566,13.102c-1.074,1.75,1.617,3.304,2.597,1.5l7.567-13.102l0.433,1.625
	c0.516,1.934,3.418,1.157,2.899-0.777l-1.328-4.953c-0.102-0.739-0.727-1.293-1.469-1.301V28.254z"/> <path fill-rule="evenodd" clip-rule="evenodd" d="M49.84,28.254c-1.137,0.043-1.813,1.289-1.231,2.266l7.563,13.101l-1.625-0.433
	c-1.934-0.516-2.707,2.382-0.777,2.898c0,0,3.414,0.914,5.121,1.371c0.754,0.203,1.671-0.437,1.836-1.062
	c0.457-1.707,0.914-3.415,1.371-5.125c0.25-0.934-0.407-1.864-1.371-1.907c-0.711-0.035-1.352,0.438-1.524,1.133l-0.433,1.625
	L51.207,29.02C50.934,28.527,50.402,28.23,49.84,28.254z"/> </symbol><symbol viewBox="0 0 75 75" id="icon-phone"><title>phone</title> <path d="M54.75,59.25H21c-0.414,0-0.75-0.336-0.75-0.75s0.336-0.75,0.75-0.75h33.75c0.414,0,0.75,0.336,0.75,0.75
	S55.164,59.25,54.75,59.25z"/> <path d="M39.781,63.273c0,2.676-4.011,2.676-4.011,0C35.77,60.598,39.781,60.598,39.781,63.273"/> <path d="M54.75,15.75H21c-0.414,0-0.75-0.336-0.75-0.75s0.336-0.75,0.75-0.75h33.75c0.414,0,0.75,0.336,0.75,0.75
	S55.164,15.75,54.75,15.75z"/> <path d="M33.562,11.023c0,1.071-1.605,1.071-1.605,0C31.957,9.953,33.562,9.953,33.562,11.023"/> <path d="M43.5,11.25c0,0.414-0.336,0.75-0.75,0.75H36c-0.414,0-0.75-0.336-0.75-0.75S35.586,10.5,36,10.5h6.75
	C43.164,10.5,43.5,10.836,43.5,11.25z"/> <path d="M25.812,7.5c-2.238,0-4.062,1.824-4.062,4.062v51.122c0,2.242,1.824,4.066,4.062,4.066h24.122
	c2.242,0,4.066-1.824,4.066-4.062V11.562C54,9.324,52.176,7.5,49.938,7.5H25.812z M49.938,68.25H25.812
	c-3.066,0-5.562-2.496-5.562-5.562V11.562C20.25,8.496,22.746,6,25.812,6h24.122c3.07,0,5.566,2.496,5.566,5.562v51.122
	C55.5,65.754,53.004,68.25,49.938,68.25z"/> </symbol><symbol viewBox="0 0 75 75" id="icon-portfolio"><title>portfolio</title> <path d="M16.875,38.438h10.313v-9.376H16.875V38.438z M29.062,40.312H15V27.188h14.062V40.312z"/> <path d="M32.812,38.438h10.313v-9.376H32.812V38.438z M45,40.312H30.938V27.188H45V40.312z"/> <path d="M48.75,38.438h10.312v-9.376H48.75V38.438z M60.938,40.312H46.875V27.188h14.063V40.312z"/> <path d="M16.875,53.438h10.313v-9.376H16.875V53.438z M29.062,55.312H15V42.188h14.062V55.312z"/> <path d="M32.812,53.438h10.313v-9.376H32.812V53.438z M45,55.312H30.938V42.188H45V55.312z"/> <path d="M48.75,53.438h10.312v-9.376H48.75V53.438z M60.938,55.312H46.875V42.188h14.063V55.312z"/> <path d="M10.312,15.938c-0.562,0-0.937,0.374-0.937,0.937v41.25c0,0.563,0.375,0.937,0.937,0.937h55.313
	c0.563,0,0.937-0.374,0.937-0.937v-41.25c0-0.563-0.374-0.937-0.937-0.937H10.312z M65.625,60.938H10.312
	c-1.593,0-2.812-1.219-2.812-2.813v-41.25c0-1.594,1.219-2.813,2.812-2.813h55.313c1.594,0,2.813,1.219,2.813,2.813v41.25
	C68.438,59.719,67.219,60.938,65.625,60.938z"/> <rect x="8.438" y="21.562" width="58.125" height="1.875"/> <rect x="13.125" y="17.812" width="1.875" height="1.875"/> <rect x="16.875" y="17.812" width="1.875" height="1.875"/> <rect x="20.625" y="17.812" width="1.875" height="1.875"/> </symbol><symbol viewBox="0 0 75 75" id="icon-user"><title>user</title> <path d="M37.5,10.547c-7.109,0-12.891,5.781-12.891,12.891c0,7.109,5.782,12.89,12.891,12.89s12.891-5.781,12.891-12.89
	C50.391,16.328,44.609,10.547,37.5,10.547z M37.5,38.672c-8.398,0-15.234-6.836-15.234-15.234c0-8.399,6.836-15.235,15.234-15.235
	s15.234,6.836,15.234,15.235C52.734,31.836,45.898,38.672,37.5,38.672z"/> <path d="M10.555,64.453h53.89c-0.043-2.281-0.304-5.863-1.906-9.367c-2.281-4.992-6.625-8.434-12.91-10.234
	c-3.684,2.093-7.867,3.195-12.129,3.195s-8.445-1.102-12.133-3.195c-6.285,1.804-10.625,5.246-12.91,10.234
	C10.859,58.59,10.598,62.172,10.555,64.453z M66.797,66.797H8.203v-1.172c0-2.227,0-6.863,2.125-11.512
	c2.641-5.777,7.652-9.699,14.895-11.652l0.48-0.129l0.426,0.254c3.43,2.039,7.363,3.117,11.371,3.117s7.941-1.078,11.371-3.121
	l0.426-0.254l0.48,0.129c7.243,1.953,12.254,5.875,14.895,11.652c2.125,4.653,2.125,9.289,2.125,11.516V66.797z"/> </symbol></svg>