<svg viewBox="0 0 100 100" xmlns="http://www.w3.org/2000/svg"><symbol viewBox="0 0 75 75" id="icon-contact"><title>contact</title> <path d="M17.223,42.348v10.507c0,0.247-0.196,0.391-0.395,0.391c-0.137,0-0.277-0.07-0.348-0.226L8.238,35.469
	c-0.836-1.797-1.488-3.516-1.488-5.465c0-7.777,7.637-13.379,17.059-13.379c1.406,0,2.765,0.137,4.074,0.387
	c1.074-0.805,2.226-1.532,3.441-2.188c-2.324-0.769-4.859-1.199-7.515-1.199c-11.434,0-20.059,7.043-20.059,16.379
	c0,2.566,0.848,4.75,1.773,6.738l8.239,17.559c0.562,1.203,1.738,1.949,3.062,1.949c1.871,0,3.395-1.523,3.395-3.391v-6.734
	c1.121,0.164,2.261,0.246,3.418,0.254c-0.817-0.992-1.539-2.039-2.164-3.133C19.992,43.086,18.559,42.789,17.223,42.348z"/> <path d="M46.203,13.418c-13.812,0-25.047,9.102-25.047,20.293c0,11.187,11.235,20.293,25.047,20.293
	c1.871,0,3.715-0.164,5.516-0.492v9.734c0,1.934,1.574,3.508,3.511,3.508c1.372,0,2.582-0.774,3.168-2.016l10.653-22.703
	c1.14-2.465,2.199-5.18,2.199-8.328c0-5.758-2.711-11.012-7.629-14.793C59.008,15.367,52.824,13.418,46.203,13.418z M46.203,16.418
	c12.176,0,22.047,7.238,22.047,17.289c0,2.516-0.844,4.738-1.922,7.059L55.68,63.461c-0.094,0.199-0.274,0.289-0.45,0.289
	c-0.257,0-0.511-0.188-0.511-0.508V49.664c-2.621,0.859-5.496,1.34-8.516,1.34c-12.176,0-22.047-7.742-22.047-17.293
	S34.027,16.418,46.203,16.418"/> </symbol><symbol viewBox="0 0 72.172 60.137" id="icon-couleurs"><title>couleurs</title> <path d="M41.934,48.625l-0.059-0.097l0.278-0.481l0.066-0.094l-0.004-0.015l18.946-32.821l8.554,10.196L41.934,48.625z
	 M28.45,57.625L2.512,12.699l11.84-6.835l24.777,42.914l-0.035,0.211l0.199,0.074l0.996,1.726L28.45,57.625z M31.911,2.414
	l7.32,41.524L19.243,9.321l-0.797-4.536L31.911,2.414z M46.856,4.942l-0.078,0.437l-6.032,34.207L35.274,8.543l-1.028-5.82
	L46.856,4.942z M57.477,17.004L42.414,43.098l6.387-36.242l10.902,6.293L57.477,17.004z M61.801,11.762L49.215,4.496l0.047-0.273
	l-0.914-1.305L33.051,0.223L33.004,0.27L32.621,0L16.942,2.766l-0.914,1.305l0.054,0.304l-0.351-0.609l-1.535-0.41L0.414,11.313
	L0,12.848l27.063,46.875l1.539,0.414l13.789-7.961l0.344-1.285l29.297-24.586l0.14-1.586L62.039,12.653L61.801,11.762z"/> <path d="M31.297,48.887c-0.734,0.422-1.742,0.145-2.164-0.578c-0.437-0.754-0.176-1.727,0.578-2.16
	c0.242-0.141,0.512-0.211,0.789-0.211c0.567,0,1.09,0.301,1.371,0.789C32.313,47.481,32.051,48.449,31.297,48.887z M30.504,43.684
	c-0.668,0-1.332,0.176-1.914,0.515c-1.828,1.055-2.457,3.403-1.402,5.235c0.683,1.183,1.957,1.914,3.324,1.914
	c0.668,0,1.328-0.176,1.914-0.516c1.828-1.058,2.457-3.406,1.403-5.234C33.141,44.418,31.871,43.684,30.504,43.684z"/> </symbol><symbol viewBox="0 0 30 26.25" id="icon-date"><title>date</title> <path d="M3.043,3.75c-0.644,0-1.167,0.523-1.167,1.167v18.286c0,0.648,0.523,1.171,1.167,1.171h23.911
	c0.648,0,1.172-0.523,1.172-1.167V4.917c0-0.644-0.524-1.167-1.168-1.167H3.043z M26.958,26.25H3.043C1.368,26.25,0,24.882,0,23.207
	V4.917c0-1.675,1.368-3.043,3.043-3.043h23.911C28.633,1.874,30,3.242,30,4.917v18.286C30,24.882,28.633,26.25,26.958,26.25z"/> <rect x="0.938" y="7.5" width="28.125" height="1.875"/> <rect x="4.688" width="1.875" height="5.625"/> <rect x="8.438" width="1.875" height="5.625"/> <rect x="19.688" width="1.875" height="5.625"/> <rect x="23.438" width="1.875" height="5.625"/> </symbol><symbol viewBox="0 0 75 75" id="icon-methode"><title>methode</title> <path fill-rule="evenodd" clip-rule="evenodd" d="M37.5,12.305l4.699,7.047h-9.394L37.5,12.305z M37.5,6.895l-1.246,1.871
	l-9.055,13.582h20.606L37.5,6.898V6.895z"/> <path fill-rule="evenodd" clip-rule="evenodd" d="M57.605,54.602h10.5v10.5h-10.5V54.602z M54.605,51.602v16.5h16.5v-16.5H54.605z"/> <path d="M12.895,53.102c-3.333,0-6,2.668-6,6c0,3.332,2.667,6,6,6c3.332,0,6-2.668,6-6C18.895,55.77,16.227,53.102,12.895,53.102z
	 M12.895,50.102c4.953,0,9,4.046,9,9c0,4.953-4.047,9-9,9c-4.954,0-9-4.047-9-9C3.895,54.148,7.941,50.102,12.895,50.102z"/> <path fill-rule="evenodd" clip-rule="evenodd" d="M31.848,53.84L31.848,53.84c-0.391,0.012-0.762,0.172-1.032,0.453l-3.617,3.613
	c-0.789,0.598-0.793,1.782-0.011,2.383l0.003,0.004l3.625,3.621c1.414,1.328,3.45-0.711,2.118-2.121l-1.188-1.191h15.129
	c0.84,0.019,1.535-0.657,1.535-1.5c0-0.84-0.695-1.52-1.535-1.5H31.746l1.188-1.188C33.914,55.461,33.211,53.801,31.848,53.84z"/> <path fill-rule="evenodd" clip-rule="evenodd" d="M23.75,28.254c-1.82,0.363-3.699,0.949-5.535,1.441
	c-1.965,0.5-1.172,3.45,0.777,2.899l1.625-0.438l-7.566,13.102c-1.074,1.75,1.617,3.304,2.597,1.5l7.567-13.102l0.433,1.625
	c0.516,1.934,3.418,1.157,2.899-0.777l-1.328-4.953c-0.102-0.739-0.727-1.293-1.469-1.301V28.254z"/> <path fill-rule="evenodd" clip-rule="evenodd" d="M49.84,28.254c-1.137,0.043-1.813,1.289-1.231,2.266l7.563,13.101l-1.625-0.433
	c-1.934-0.516-2.707,2.382-0.777,2.898c0,0,3.414,0.914,5.121,1.371c0.754,0.203,1.671-0.437,1.836-1.062
	c0.457-1.707,0.914-3.415,1.371-5.125c0.25-0.934-0.407-1.864-1.371-1.907c-0.711-0.035-1.352,0.438-1.524,1.133l-0.433,1.625
	L51.207,29.02C50.934,28.527,50.402,28.23,49.84,28.254z"/> </symbol><symbol viewBox="0 0 75 75" id="icon-portfolio"><title>portfolio</title> <path d="M16.875,38.438h10.313v-9.376H16.875V38.438z M29.062,40.312H15V27.188h14.062V40.312z"/> <path d="M32.812,38.438h10.313v-9.376H32.812V38.438z M45,40.312H30.938V27.188H45V40.312z"/> <path d="M48.75,38.438h10.312v-9.376H48.75V38.438z M60.938,40.312H46.875V27.188h14.063V40.312z"/> <path d="M16.875,53.438h10.313v-9.376H16.875V53.438z M29.062,55.312H15V42.188h14.062V55.312z"/> <path d="M32.812,53.438h10.313v-9.376H32.812V53.438z M45,55.312H30.938V42.188H45V55.312z"/> <path d="M48.75,53.438h10.312v-9.376H48.75V53.438z M60.938,55.312H46.875V42.188h14.063V55.312z"/> <path d="M10.312,15.938c-0.562,0-0.937,0.374-0.937,0.937v41.25c0,0.563,0.375,0.937,0.937,0.937h55.313
	c0.563,0,0.937-0.374,0.937-0.937v-41.25c0-0.563-0.374-0.937-0.937-0.937H10.312z M65.625,60.938H10.312
	c-1.593,0-2.812-1.219-2.812-2.813v-41.25c0-1.594,1.219-2.813,2.812-2.813h55.313c1.594,0,2.813,1.219,2.813,2.813v41.25
	C68.438,59.719,67.219,60.938,65.625,60.938z"/> <rect x="8.438" y="21.562" width="58.125" height="1.875"/> <rect x="13.125" y="17.812" width="1.875" height="1.875"/> <rect x="16.875" y="17.812" width="1.875" height="1.875"/> <rect x="20.625" y="17.812" width="1.875" height="1.875"/> </symbol><symbol viewBox="0 0 75 75" id="icon-user"><title>user</title> <path d="M37.5,10.547c-7.109,0-12.891,5.781-12.891,12.891c0,7.109,5.782,12.89,12.891,12.89s12.891-5.781,12.891-12.89
	C50.391,16.328,44.609,10.547,37.5,10.547z M37.5,38.672c-8.398,0-15.234-6.836-15.234-15.234c0-8.399,6.836-15.235,15.234-15.235
	s15.234,6.836,15.234,15.235C52.734,31.836,45.898,38.672,37.5,38.672z"/> <path d="M10.555,64.453h53.89c-0.043-2.281-0.304-5.863-1.906-9.367c-2.281-4.992-6.625-8.434-12.91-10.234
	c-3.684,2.093-7.867,3.195-12.129,3.195s-8.445-1.102-12.133-3.195c-6.285,1.804-10.625,5.246-12.91,10.234
	C10.859,58.59,10.598,62.172,10.555,64.453z M66.797,66.797H8.203v-1.172c0-2.227,0-6.863,2.125-11.512
	c2.641-5.777,7.652-9.699,14.895-11.652l0.48-0.129l0.426,0.254c3.43,2.039,7.363,3.117,11.371,3.117s7.941-1.078,11.371-3.121
	l0.426-0.254l0.48,0.129c7.243,1.953,12.254,5.875,14.895,11.652c2.125,4.653,2.125,9.289,2.125,11.516V66.797z"/> </symbol></svg>