<svg viewBox="0 0 100 100" xmlns="http://www.w3.org/2000/svg"><symbol viewBox="0 0 75 75" id="icon-address"><title>address</title> <path d="M66.449,60.676c0,0.301-0.074,0.523-0.226,0.75L46.801,46.125l19.574-15.523c0.074,0.148,0.074,0.3,0.074,0.523V60.676z
	 M10.125,62.176c-0.074,0-0.227,0-0.301,0L37.273,40.5l27.45,21.75H10.125V62.176z M8.551,60.676V31.125
	c0-0.148,0-0.227,0.074-0.375l19.199,15.227L8.699,61.125C8.625,60.977,8.551,60.824,8.551,60.676z M37.273,11.852L65.25,29.551
	l-0.148,0.074l-19.5,15.523l-7.875-6.226c-0.149-0.074-0.301-0.149-0.45-0.149c-0.148,0-0.3,0.075-0.449,0.149L29.102,45
	L9.824,29.625L37.273,11.852z M67.727,27.602L37.273,8.25l-30,19.273c-1.05,0.825-1.726,2.102-1.726,3.524v29.551
	c0,2.476,2.023,4.5,4.5,4.5h54.824c2.477,0,4.5-2.024,4.5-4.5V31.125C69.449,29.699,68.773,28.426,67.727,27.602z"/> </symbol><symbol viewBox="0 0 75 75" id="icon-contact"><title>contact</title> <path d="M17.223,42.348v10.507c0,0.247-0.196,0.391-0.395,0.391c-0.137,0-0.277-0.07-0.348-0.226L8.238,35.469
	c-0.836-1.797-1.488-3.516-1.488-5.465c0-7.777,7.637-13.379,17.059-13.379c1.406,0,2.765,0.137,4.074,0.387
	c1.074-0.805,2.226-1.532,3.441-2.188c-2.324-0.769-4.859-1.199-7.515-1.199c-11.434,0-20.059,7.043-20.059,16.379
	c0,2.566,0.848,4.75,1.773,6.738l8.239,17.559c0.562,1.203,1.738,1.949,3.062,1.949c1.871,0,3.395-1.523,3.395-3.391v-6.734
	c1.121,0.164,2.261,0.246,3.418,0.254c-0.817-0.992-1.539-2.039-2.164-3.133C19.992,43.086,18.559,42.789,17.223,42.348z"/> <path d="M46.203,13.418c-13.812,0-25.047,9.102-25.047,20.293c0,11.187,11.235,20.293,25.047,20.293
	c1.871,0,3.715-0.164,5.516-0.492v9.734c0,1.934,1.574,3.508,3.511,3.508c1.372,0,2.582-0.774,3.168-2.016l10.653-22.703
	c1.14-2.465,2.199-5.18,2.199-8.328c0-5.758-2.711-11.012-7.629-14.793C59.008,15.367,52.824,13.418,46.203,13.418z M46.203,16.418
	c12.176,0,22.047,7.238,22.047,17.289c0,2.516-0.844,4.738-1.922,7.059L55.68,63.461c-0.094,0.199-0.274,0.289-0.45,0.289
	c-0.257,0-0.511-0.188-0.511-0.508V49.664c-2.621,0.859-5.496,1.34-8.516,1.34c-12.176,0-22.047-7.742-22.047-17.293
	S34.027,16.418,46.203,16.418"/> </symbol><symbol viewBox="0 0 32.824 29.164" id="icon-contexte"><title>contexte</title> <path d="M23.703,8.887H8.641c-0.622,0-1.125-0.504-1.125-1.125s0.503-1.125,1.125-1.125h15.062c0.621,0,1.125,0.504,1.125,1.125
	S24.324,8.887,23.703,8.887z"/> <path d="M23.703,13.387H8.641c-0.622,0-1.125-0.504-1.125-1.125s0.503-1.125,1.125-1.125h15.062c0.621,0,1.125,0.504,1.125,1.125
	S24.324,13.387,23.703,13.387z"/> <path d="M16.203,17.887H8.641c-0.622,0-1.125-0.504-1.125-1.125s0.503-1.125,1.125-1.125h7.562c0.621,0,1.125,0.504,1.125,1.125
	S16.824,17.887,16.203,17.887z"/> <path d="M6.168,2.25c-2.16,0-3.914,1.758-3.914,3.914V25.41l3.137-2.992c0.21-0.199,0.488-0.312,0.777-0.312h20.496
	c2.16,0,3.914-1.754,3.914-3.914V6.164c0-2.16-1.758-3.914-3.914-3.914H6.168z M1.125,29.164c-0.148,0-0.301-0.031-0.441-0.09
	C0.269,28.899,0,28.492,0,28.039V6.164C0,2.766,2.766,0,6.164,0H26.66c3.399,0,6.164,2.766,6.164,6.164v12.028
	c0,3.398-2.765,6.164-6.164,6.164H6.617l-4.715,4.496C1.691,29.059,1.41,29.164,1.125,29.164z"/> </symbol><symbol viewBox="0 0 72.172 60.137" id="icon-couleurs"><title>couleurs</title> <path d="M41.934,48.625l-0.059-0.097l0.278-0.481l0.066-0.094l-0.004-0.015l18.946-32.821l8.554,10.196L41.934,48.625z
	 M28.45,57.625L2.512,12.699l11.84-6.835l24.777,42.914l-0.035,0.211l0.199,0.074l0.996,1.726L28.45,57.625z M31.911,2.414
	l7.32,41.524L19.243,9.321l-0.797-4.536L31.911,2.414z M46.856,4.942l-0.078,0.437l-6.032,34.207L35.274,8.543l-1.028-5.82
	L46.856,4.942z M57.477,17.004L42.414,43.098l6.387-36.242l10.902,6.293L57.477,17.004z M61.801,11.762L49.215,4.496l0.047-0.273
	l-0.914-1.305L33.051,0.223L33.004,0.27L32.621,0L16.942,2.766l-0.914,1.305l0.054,0.304l-0.351-0.609l-1.535-0.41L0.414,11.313
	L0,12.848l27.063,46.875l1.539,0.414l13.789-7.961l0.344-1.285l29.297-24.586l0.14-1.586L62.039,12.653L61.801,11.762z"/> <path d="M31.297,48.887c-0.734,0.422-1.742,0.145-2.164-0.578c-0.437-0.754-0.176-1.727,0.578-2.16
	c0.242-0.141,0.512-0.211,0.789-0.211c0.567,0,1.09,0.301,1.371,0.789C32.313,47.481,32.051,48.449,31.297,48.887z M30.504,43.684
	c-0.668,0-1.332,0.176-1.914,0.515c-1.828,1.055-2.457,3.403-1.402,5.235c0.683,1.183,1.957,1.914,3.324,1.914
	c0.668,0,1.328-0.176,1.914-0.516c1.828-1.058,2.457-3.406,1.403-5.234C33.141,44.418,31.871,43.684,30.504,43.684z"/> </symbol><symbol viewBox="0 0 30 26.25" id="icon-date"><title>date</title> <path d="M3.043,3.75c-0.644,0-1.167,0.523-1.167,1.167v18.286c0,0.648,0.523,1.171,1.167,1.171h23.911
	c0.648,0,1.172-0.523,1.172-1.167V4.917c0-0.644-0.524-1.167-1.168-1.167H3.043z M26.958,26.25H3.043C1.368,26.25,0,24.882,0,23.207
	V4.917c0-1.675,1.368-3.043,3.043-3.043h23.911C28.633,1.874,30,3.242,30,4.917v18.286C30,24.882,28.633,26.25,26.958,26.25z"/> <rect x="0.938" y="7.5" width="28.125" height="1.875"/> <rect x="4.688" width="1.875" height="5.625"/> <rect x="8.438" width="1.875" height="5.625"/> <rect x="19.688" width="1.875" height="5.625"/> <rect x="23.438" width="1.875" height="5.625"/> </symbol><symbol viewBox="0 0 75 75" id="icon-envoyer"><title>envoyer</title> <path d="M3.824,68.102l5.699-24.676c0.227-1.051,1.125-1.875,2.25-2.024l31.875-3.3c0.899-0.075,0.899-1.426,0-1.575l-31.875-3.074
	c-1.125-0.074-2.023-0.898-2.25-1.949L3.824,6.898C3.301,4.801,5.551,3.074,7.5,4.051L69.824,35.25c1.875,0.977,1.875,3.676,0,4.648
	L7.5,70.949C5.551,71.926,3.301,70.199,3.824,68.102z"/> </symbol><symbol viewBox="0 0 55.406 55.483" id="icon-lien"><title>lien</title> <path d="M49.182,21.807L36.96,34.034c-3.899,3.898-10.125,4.273-14.399,0.976l2.852-2.851c1.05,0.676,2.324,1.051,3.601,1.051
	c0.149,0,0.375,0,0.524,0c1.949-0.149,3.976-1.051,5.55-2.625L45.663,20.01c1.8-1.8,2.773-3.75,2.851-5.699
	c0.074-1.949-0.75-3.75-2.324-5.398c-1.273-1.274-3.227-2.024-5.25-2.024c-2.176,0-4.273,0.899-5.852,2.477l-1.5,1.5
	c-1.125-0.449-2.324-0.824-3.449-1.051l3.602-3.602c4.273-4.273,11.25-4.273,15.523,0C53.46,10.557,53.46,17.534,49.182,21.807z
	 M51.358,4.108c-5.477-5.477-14.324-5.477-19.801,0l-5.551,5.551c-0.074,0.074-0.074,0.074-0.074,0.148
	c-0.301,0.301-0.523,0.676-0.523,1.125c0,0.824,0.676,1.5,1.5,1.5c2.101,0,4.273,0.524,6.375,1.574
	c0.226,0.075,0.449,0.149,0.676,0.149c0.449,0,0.898-0.227,1.199-0.602c0.074-0.074,0.148-0.074,0.148-0.148l1.949-1.949
	c1.051-1.051,2.325-1.575,3.75-1.649c1.2,0,2.399,0.375,3.075,1.125c0.976,0.977,1.5,2.102,1.5,3.149
	c0,1.199-0.676,2.398-1.95,3.675L32.909,28.409c-1.051,1.051-2.324,1.726-3.602,1.801c-1.125,0.074-2.25-0.301-3-1.051
	c-0.301-0.301-0.676-0.449-1.051-0.449s-0.75,0.148-1.05,0.449l-4.875,4.875c-0.301,0.301-0.45,0.676-0.45,1.051
	s0.149,0.75,0.45,1.05c2.625,2.625,6.148,4.051,9.898,4.051s7.274-1.426,9.899-4.051l12.226-12.226
	C56.756,18.506,56.756,9.585,51.358,4.108z"/> <path d="M32.909,20.46l-2.852,2.773c-2.851-1.801-6.824-1.199-9.676,1.648L9.807,35.534c-1.801,1.801-2.773,3.75-2.851,5.699
	c-0.075,1.949,0.75,3.75,2.324,5.398c1.273,1.274,3.148,2.024,5.176,2.024c2.023,0,4.199-0.75,5.925-2.477l1.5-1.5
	c1.125,0.45,2.325,0.825,3.45,1.051l-3.602,3.602c-4.273,4.273-11.25,4.273-15.523,0c-4.274-4.274-4.274-11.25,0-15.524
	l12.226-12.226C22.409,17.534,28.557,17.159,32.909,20.46z M4.108,31.557c-5.477,5.477-5.477,14.324,0,19.801
	c2.699,2.699,6.301,4.125,9.898,4.125c3.602,0,7.2-1.352,9.899-4.125l5.551-5.551c0.074-0.074,0.074-0.074,0.074-0.148
	c0.301-0.301,0.523-0.676,0.523-1.125c0-0.824-0.675-1.5-1.5-1.5c-2.101,0-4.273-0.524-6.375-1.574
	c-0.675-0.301-1.425-0.075-1.875,0.449c0.078,0,0.004,0.074-0.07,0.074l-1.949,1.949c-2.176,2.176-5.324,1.949-6.824,0.449
	c-0.977-0.976-1.5-2.101-1.5-3.148c0-1.199,0.675-2.398,1.949-3.676l10.574-10.574c2.102-2.102,4.949-2.398,6.602-0.676
	c0.074,0.074,0.148,0.149,0.226,0.149l0,0c0,0,0.074,0,0.074,0.074c0.227,0.148,0.524,0.226,0.75,0.226c0.227,0,0.375,0,0.602-0.074
	c0.074,0,0.148-0.074,0.226-0.148c0.075-0.074,0.149-0.149,0.227-0.227l4.875-4.875c0.602-0.601,0.602-1.5,0-2.101
	c-5.477-5.477-14.324-5.477-19.801,0L4.108,31.557z"/> </symbol><symbol viewBox="0 0 75 75" id="icon-mail"><title>mail</title> <path d="M12.324-114.434c-0.324-0.097-0.871-0.226-1.617-0.226c-2.844,0-5.137,2.683-5.137,5.82c0,1.422,0.711,2.457,2.133,2.457
	c1.875,0,3.586-2.39,3.942-4.398L12.324-114.434z M8.348-99.176c-5.301,0-9.793-3.879-9.793-10.086c0-6.66,4.621-12.41,11.797-12.41
	c5.625,0,9.406,3.942,9.406,9.34c0,4.848-2.715,7.695-5.754,7.695c-1.293,0-2.488-0.871-2.391-2.843h-0.129
	c-1.132,1.906-2.617,2.843-4.558,2.843c-1.875,0-3.492-1.519-3.492-4.074c0-4.008,3.168-7.66,7.66-7.66
	c1.386,0,2.617,0.289,3.457,0.68l-1.098,5.851c-0.484,2.457-0.098,3.59,0.969,3.621c1.648,0.035,3.492-2.164,3.492-5.914
	c0-4.687-2.812-8.047-7.824-8.047c-5.27,0-9.695,4.172-9.695,10.731c0,5.398,3.523,8.726,8.304,8.726
	c1.844,0,3.555-0.386,4.879-1.132l0.516,1.39C12.324-99.531,10.516-99.176,8.348-99.176z M40.203-112.211L8.824-85.641l-0.027-0.023
	L-4.789-96.949l-18.414-15.289v36.426h63.41v-36.399H40.203z M-22.512-114.32l4.477,3.718v-6.652L-22.512-114.32z M-15.988-108.949
	l12.5,10.426L8.758-88.309l0.027-0.023l24.199-20.609v-20.004h-48.972V-108.949z M2.926-130.992h11.488l-5.707-3.789L2.926-130.992z
	 M35.031-110.508l4.5-3.808l-4.5-2.989V-110.508z M42.25-114.965v41.199h-67.5v-41.203l7.215-4.73v-11.293h17.226l9.52-6.238
	l9.398,6.238h16.918v11.23L42.25-114.965z M8.785-88.336L-3.488-98.523L8.758-88.309L8.785-88.336z M-4.789-96.949l13.59,11.285
	L8.77-85.637L-4.789-96.949z"/> <path d="M67.765,27.602l-7.34-4.664v-7.763H48.208L37.311,8.25l-10.779,6.925H14.575v7.681l-7.264,4.667
	c-1.05,0.825-1.726,2.102-1.726,3.524v29.551c0,2.476,2.023,4.5,4.5,4.5h54.824c2.477,0,4.5-2.024,4.5-4.5V31.125
	C69.487,29.699,68.811,28.426,67.765,27.602z M65.288,29.551l-0.148,0.074l-4.715,3.754v-6.904L65.288,29.551z M37.311,11.852
	l5.252,3.323H32.179L37.311,11.852z M58.425,17.175v17.796L45.64,45.148l-7.875-6.226c-0.149-0.074-0.301-0.149-0.45-0.149
	c-0.148,0-0.3,0.075-0.449,0.149L29.14,45L16.575,34.979V17.175H58.425z M14.575,26.573v6.811l-4.713-3.759L14.575,26.573z
	 M8.589,60.676V31.125c0-0.148,0-0.227,0.074-0.375l19.199,15.227L8.737,61.125C8.663,60.977,8.589,60.824,8.589,60.676z
	 M10.163,62.25v-0.074H9.862L37.311,40.5l27.45,21.75H10.163z M66.487,60.676c0,0.301-0.074,0.523-0.226,0.75L46.839,46.125
	l19.574-15.523c0.074,0.148,0.074,0.3,0.074,0.523V60.676z"/> <path d="M37.857,29.918l1.144-3.642c-0.286-0.095-0.648-0.229-1.049-0.248c-0.286-0.019-0.572,0.019-0.858,0.114
	c-0.573,0.171-1.03,0.61-1.335,1.354c-0.381,0.839-0.381,1.64-0.019,2.231c0.248,0.42,0.648,0.668,1.03,0.686
	C37.189,30.414,37.647,30.109,37.857,29.918z M40.298,25.19l0.534,0.305l-1.488,4.766c0.286,0.495,0.801,1.43,1.506,1.468
	c1.106-0.229,2.04-2.803,2.174-4.595c0.171-2.288-1.64-4.481-4.538-4.69c-4.099-0.305-6.33,2.65-6.501,5.129
	c-0.324,4.728,3.471,6.73,6.845,6.883L38.696,36c-6.312-0.381-8.504-4.5-8.237-8.542c0.268-3.966,3.68-6.846,8.123-6.541
	c3.756,0.248,6.178,3.203,5.968,6.311c-0.171,2.46-1.525,5.739-3.68,6.025c-1.125,0.134-2.079-0.972-2.574-1.774
	c-0.4,0.248-0.934,0.439-1.545,0.458c-0.038-0.019-0.076-0.019-0.114-0.019c-0.877-0.057-1.697-0.572-2.192-1.373
	c-0.649-1.03-0.686-2.364-0.115-3.641c0.286-0.61,0.61-1.106,1.049-1.469c0.363-0.363,0.781-0.61,1.278-0.744
	c0.744-0.248,1.621-0.248,2.516,0.019C39.84,24.922,40.26,25.19,40.298,25.19z"/> </symbol><symbol viewBox="0 0 75 75" id="icon-methode"><title>methode</title> <path fill-rule="evenodd" clip-rule="evenodd" d="M37.5,12.305l4.699,7.047h-9.394L37.5,12.305z M37.5,6.895l-1.246,1.871
	l-9.055,13.582h20.606L37.5,6.898V6.895z"/> <path fill-rule="evenodd" clip-rule="evenodd" d="M57.605,54.602h10.5v10.5h-10.5V54.602z M54.605,51.602v16.5h16.5v-16.5H54.605z"/> <path d="M12.895,53.102c-3.333,0-6,2.668-6,6c0,3.332,2.667,6,6,6c3.332,0,6-2.668,6-6C18.895,55.77,16.227,53.102,12.895,53.102z
	 M12.895,50.102c4.953,0,9,4.046,9,9c0,4.953-4.047,9-9,9c-4.954,0-9-4.047-9-9C3.895,54.148,7.941,50.102,12.895,50.102z"/> <path fill-rule="evenodd" clip-rule="evenodd" d="M31.848,53.84L31.848,53.84c-0.391,0.012-0.762,0.172-1.032,0.453l-3.617,3.613
	c-0.789,0.598-0.793,1.782-0.011,2.383l0.003,0.004l3.625,3.621c1.414,1.328,3.45-0.711,2.118-2.121l-1.188-1.191h15.129
	c0.84,0.019,1.535-0.657,1.535-1.5c0-0.84-0.695-1.52-1.535-1.5H31.746l1.188-1.188C33.914,55.461,33.211,53.801,31.848,53.84z"/> <path fill-rule="evenodd" clip-rule="evenodd" d="M23.75,28.254c-1.82,0.363-3.699,0.949-5.535,1.441
	c-1.965,0.5-1.172,3.45,0.777,2.899l1.625-0.438l-7.566,13.102c-1.074,1.75,1.617,3.304,2.597,1.5l7.567-13.102l0.433,1.625
	c0.516,1.934,3.418,1.157,2.899-0.777l-1.328-4.953c-0.102-0.739-0.727-1.293-1.469-1.301V28.254z"/> <path fill-rule="evenodd" clip-rule="evenodd" d="M49.84,28.254c-1.137,0.043-1.813,1.289-1.231,2.266l7.563,13.101l-1.625-0.433
	c-1.934-0.516-2.707,2.382-0.777,2.898c0,0,3.414,0.914,5.121,1.371c0.754,0.203,1.671-0.437,1.836-1.062
	c0.457-1.707,0.914-3.415,1.371-5.125c0.25-0.934-0.407-1.864-1.371-1.907c-0.711-0.035-1.352,0.438-1.524,1.133l-0.433,1.625
	L51.207,29.02C50.934,28.527,50.402,28.23,49.84,28.254z"/> </symbol><symbol viewBox="0 0 75 75" id="icon-phone"><title>phone</title> <path d="M54.75,59.25H21c-0.414,0-0.75-0.336-0.75-0.75s0.336-0.75,0.75-0.75h33.75c0.414,0,0.75,0.336,0.75,0.75
	S55.164,59.25,54.75,59.25z"/> <path d="M39.781,63.273c0,2.676-4.011,2.676-4.011,0C35.77,60.598,39.781,60.598,39.781,63.273"/> <path d="M54.75,15.75H21c-0.414,0-0.75-0.336-0.75-0.75s0.336-0.75,0.75-0.75h33.75c0.414,0,0.75,0.336,0.75,0.75
	S55.164,15.75,54.75,15.75z"/> <path d="M33.562,11.023c0,1.071-1.605,1.071-1.605,0C31.957,9.953,33.562,9.953,33.562,11.023"/> <path d="M43.5,11.25c0,0.414-0.336,0.75-0.75,0.75H36c-0.414,0-0.75-0.336-0.75-0.75S35.586,10.5,36,10.5h6.75
	C43.164,10.5,43.5,10.836,43.5,11.25z"/> <path d="M25.812,7.5c-2.238,0-4.062,1.824-4.062,4.062v51.122c0,2.242,1.824,4.066,4.062,4.066h24.122
	c2.242,0,4.066-1.824,4.066-4.062V11.562C54,9.324,52.176,7.5,49.938,7.5H25.812z M49.938,68.25H25.812
	c-3.066,0-5.562-2.496-5.562-5.562V11.562C20.25,8.496,22.746,6,25.812,6h24.122c3.07,0,5.566,2.496,5.566,5.562v51.122
	C55.5,65.754,53.004,68.25,49.938,68.25z"/> </symbol><symbol viewBox="0 0 75 75" id="icon-portfolio"><title>portfolio</title> <path d="M16.875,38.438h10.313v-9.376H16.875V38.438z M29.062,40.312H15V27.188h14.062V40.312z"/> <path d="M32.812,38.438h10.313v-9.376H32.812V38.438z M45,40.312H30.938V27.188H45V40.312z"/> <path d="M48.75,38.438h10.312v-9.376H48.75V38.438z M60.938,40.312H46.875V27.188h14.063V40.312z"/> <path d="M16.875,53.438h10.313v-9.376H16.875V53.438z M29.062,55.312H15V42.188h14.062V55.312z"/> <path d="M32.812,53.438h10.313v-9.376H32.812V53.438z M45,55.312H30.938V42.188H45V55.312z"/> <path d="M48.75,53.438h10.312v-9.376H48.75V53.438z M60.938,55.312H46.875V42.188h14.063V55.312z"/> <path d="M10.312,15.938c-0.562,0-0.937,0.374-0.937,0.937v41.25c0,0.563,0.375,0.937,0.937,0.937h55.313
	c0.563,0,0.937-0.374,0.937-0.937v-41.25c0-0.563-0.374-0.937-0.937-0.937H10.312z M65.625,60.938H10.312
	c-1.593,0-2.812-1.219-2.812-2.813v-41.25c0-1.594,1.219-2.813,2.812-2.813h55.313c1.594,0,2.813,1.219,2.813,2.813v41.25
	C68.438,59.719,67.219,60.938,65.625,60.938z"/> <rect x="8.438" y="21.562" width="58.125" height="1.875"/> <rect x="13.125" y="17.812" width="1.875" height="1.875"/> <rect x="16.875" y="17.812" width="1.875" height="1.875"/> <rect x="20.625" y="17.812" width="1.875" height="1.875"/> </symbol><symbol viewBox="0 0 75 75" id="icon-user"><title>user</title> <path d="M37.5,10.547c-7.109,0-12.891,5.781-12.891,12.891c0,7.109,5.782,12.89,12.891,12.89s12.891-5.781,12.891-12.89
	C50.391,16.328,44.609,10.547,37.5,10.547z M37.5,38.672c-8.398,0-15.234-6.836-15.234-15.234c0-8.399,6.836-15.235,15.234-15.235
	s15.234,6.836,15.234,15.235C52.734,31.836,45.898,38.672,37.5,38.672z"/> <path d="M10.555,64.453h53.89c-0.043-2.281-0.304-5.863-1.906-9.367c-2.281-4.992-6.625-8.434-12.91-10.234
	c-3.684,2.093-7.867,3.195-12.129,3.195s-8.445-1.102-12.133-3.195c-6.285,1.804-10.625,5.246-12.91,10.234
	C10.859,58.59,10.598,62.172,10.555,64.453z M66.797,66.797H8.203v-1.172c0-2.227,0-6.863,2.125-11.512
	c2.641-5.777,7.652-9.699,14.895-11.652l0.48-0.129l0.426,0.254c3.43,2.039,7.363,3.117,11.371,3.117s7.941-1.078,11.371-3.121
	l0.426-0.254l0.48,0.129c7.243,1.953,12.254,5.875,14.895,11.652c2.125,4.653,2.125,9.289,2.125,11.516V66.797z"/> </symbol></svg>