<?xml version="1.0" standalone="no"?>
<!DOCTYPE svg PUBLIC "-//W3C//DTD SVG 20010904//EN"
 "http://www.w3.org/TR/2001/REC-SVG-20010904/DTD/svg10.dtd">
<svg version="1.0" xmlns="http://www.w3.org/2000/svg"
 width="700.000000pt" height="700.000000pt" viewBox="0 0 700.000000 700.000000"
 preserveAspectRatio="xMidYMid meet">
<metadata>
Created by potrace 1.14, written by Peter Selinger 2001-2017
</metadata>
<g transform="translate(0.000000,700.000000) scale(0.100000,-0.100000)"
fill="#000000" stroke="none">
<path d="M1240 6993 c-19 -2 -85 -15 -146 -29 -338 -75 -623 -264 -842 -559
-70 -93 -157 -280 -196 -420 -57 -201 -54 -61 -52 -2510 1 -2085 3 -2266 18
-2335 77 -341 235 -608 483 -817 57 -48 178 -133 189 -133 3 0 27 -13 55 -29
80 -48 295 -123 391 -137 14 -2 52 -8 85 -13 38 -6 901 -9 2315 -8 l2255 3
110 27 c344 85 614 260 816 531 97 128 200 335 224 449 2 10 7 27 10 37 6 18
9 35 20 90 3 14 8 36 12 50 4 14 8 1042 9 2285 2 2118 1 2266 -15 2355 -26
136 -47 210 -90 311 -156 361 -429 626 -791 767 -56 22 -180 57 -235 67 -16 2
-41 8 -55 12 -25 8 -4505 13 -4570 6z m4530 -318 c466 -73 832 -440 907 -910
4 -27 8 -1053 8 -2280 0 -2144 -1 -2233 -19 -2310 -91 -392 -360 -690 -729
-810 -175 -57 -61 -54 -2467 -52 -1218 1 -2228 6 -2245 10 -16 4 -41 10 -55
12 -253 53 -504 217 -654 428 -87 121 -160 294 -192 452 -11 57 -15 4457 -4
4525 5 30 12 69 15 86 9 61 55 190 94 266 157 307 446 520 786 581 115 21
4424 22 4555 2z"/>
<path d="M2643 4597 c-4 -6 -7 -1930 -4 -2218 l1 -46 153 1 152 1 0 535 c0
414 2 536 12 540 10 4 1039 5 1091 1 9 -1 12 -116 12 -539 l0 -539 153 1 152
1 1 1133 2 1132 -57 1 c-67 0 -221 0 -238 0 -10 -1 -13 -101 -13 -466 l0 -465
-557 2 -558 3 0 463 0 462 -60 1 c-33 0 -100 1 -148 2 -49 1 -91 -2 -94 -6z"/>
</g>
</svg>
